<svg width="655" height="136" viewBox="0 0 655 136" fill="none" xmlns="http://www.w3.org/2000/svg">
<path fill-rule="evenodd" clip-rule="evenodd" d="M65.5128 56.1745C69.3686 55.4631 81.0362 57.3816 81.6299 64.2047C82.4748 73.8973 52.4033 80.0119 54.9303 63.6381C55.4023 60.577 58.835 57.407 65.5128 56.1745ZM59.5164 68.5566C62.4509 73.9691 78.7495 71.7718 78.7457 65.056C79.36 64.9681 79.1409 64.2613 78.1056 64.521C76.3817 70.7192 64.752 70.9215 59.5164 68.5566Z" fill="white"/>
<path fill-rule="evenodd" clip-rule="evenodd" d="M151.316 68.6161C148.796 57.6675 138.594 49.1116 130.312 39.1125C121.073 27.9587 111.03 16.1842 97.4438 16.0026C87.5232 15.8696 87.4717 20.8717 82.696 23.2471C78.3268 25.4203 72.8447 25.6994 68.2729 27.5014C63.9937 29.1886 59.9994 31.2174 55.7692 33.3606C39.9338 41.3819 26.5679 54.0182 14.8242 65.4579C12.8068 67.4225 10.7253 69.4859 8.76194 71.6008C8.76194 71.6008 8.75645 71.6063 8.74885 71.6147C8.73745 71.6274 8.72605 71.6401 8.71423 71.6523C8.15352 72.2637 2.63001 78.4488 0.679341 86.5517L0.675541 86.5584L0.675963 86.5643C0.00758565 89.3485 -0.241525 92.3568 0.280763 95.4458C0.330163 95.7367 0.37703 96.0403 0.420519 96.3603C1.13914 101.632 -0.649392 110.122 0.983763 115.853C3.01254 122.971 9.68069 120.842 10.4892 116.185C11.652 109.481 2.90614 100.427 7.79463 92.7377C9.88927 89.4439 12.2858 89.134 15.8434 88.1848L17.5678 87.9193L19.8068 87.5739L20.3608 87.489L23.1052 87.0651L25.422 86.7079L32.9392 85.5493L34.713 85.2757L38.5273 84.6876C38.9698 84.5909 39.5103 84.506 40.1677 84.4351C40.1685 84.4351 40.1693 84.4351 40.1702 84.4342L40.4049 84.3988C40.5337 84.3882 40.668 84.3789 40.801 84.3692C41.1143 84.338 41.436 84.3076 41.7624 84.2784C41.9921 84.5837 42.2015 85.0807 42.4202 85.6055C43.0557 87.1318 44.1201 89.6858 47.3649 90.2765C47.9606 90.3846 48.5897 90.4391 49.2345 90.4391C52.9179 90.4391 57.6096 88.6041 59.9597 83.4986C70.4389 83.3428 79.9587 83.5298 79.9587 83.5298C85.2242 83.5151 88.7802 83.5273 88.7802 83.5273V83.5265C90.0587 83.5463 91.387 83.5058 92.823 83.3369C94.1758 87.6482 94.7124 91.425 98.3131 91.7277C103.038 92.125 103.038 87.4303 105.958 84.5284C111.974 85.2943 109.239 90.3867 113.64 90.9457C117.217 91.4001 118.62 87.0419 122.724 86.5783C128.699 85.9027 133.544 91.1518 137.351 91.1881C146.676 91.2776 154.383 81.9402 151.316 68.6161ZM111.958 25.9531C108.783 26.7435 106.531 28.304 105.276 30.6976C117.792 24.6269 120.54 34.6319 127.532 41.1383C131.042 44.4038 135.314 45.385 135.96 49.2657C134.082 50.7768 130.404 50.784 129.813 53.3701C130.723 54.2699 135.54 53.8375 136.276 52.7904C141.694 56.4971 147.233 60.0585 148.913 68.2395C142.774 68.2218 136.414 70.191 131.553 72.7568C131.168 71.9154 130.551 71.3542 130.167 70.5123C130.501 66.9863 134.892 66.8521 138.663 66.1976C136.225 62.9837 130.337 64.7034 127.448 66.611C125.949 58.647 118.067 58.3232 116.52 50.4167C115.014 45.9318 108.365 47.6013 108.04 41.7016C109.994 39.5297 114.596 39.5693 115.256 36.317C111.695 35.5274 106.508 38.0591 104.357 40.2555C101.077 38.5425 99.7985 34.436 97.6388 31.3825C98.2071 28.2331 101.251 27.1535 102.347 24.4458C98.767 22.7396 96.1277 26.4834 93.7455 27.5863C90.0963 27.8337 88.5366 25.5811 86.8616 23.4658C91.9849 13.7129 107.619 19.6227 111.958 25.9531ZM75.3594 40.4864C78.2508 45.4792 89.0217 46.1543 94.4747 42.3256C96.6095 43.6231 92.619 44.3557 92.3881 45.4737C85.5046 46.5571 79.7497 46.2903 76.2102 43.371C76.5463 41.6674 75.2459 41.9237 75.3594 40.4864ZM50.9394 52.1516C48.3668 55.2557 41.1185 53.7936 39.6196 51.3903C41.6543 50.9879 46.7294 55.0505 50.9394 52.1516ZM128.825 75.3704C128.03 78.8841 124.919 77.9012 122.679 79.4748C119.074 82.0073 118.383 87.3932 113.429 88.5957C110.546 86.04 113.576 83.271 113.866 80.2656C112.784 76.3453 109.207 76.4906 108.21 76.6274C102.176 77.4536 103.71 89.5587 98.6889 89.3253C93.2042 89.0702 96.9738 79.8721 93.9524 76.1291C92.2943 75.6237 90.6325 75.3269 89.004 75.223V75.2214C88.9909 75.2205 88.9778 75.2205 88.9651 75.2205C88.2664 75.1774 87.5743 75.1694 86.8912 75.1973C79.3752 75.1323 72.6526 75.294 66.8069 75.5684C64.9137 75.6664 59.1888 77.0057 57.1908 81.8004C55.1793 86.6273 50.594 87.5929 47.9391 87.1094C47.315 86.9963 46.8658 86.7303 46.5141 86.3689C46.6002 86.4276 46.5145 86.3228 46.1873 85.9716C45.9605 85.646 45.7786 85.274 45.6063 84.8797C45.1136 83.081 45.9179 80.4447 45.5261 78.7592C45.0435 76.6835 36.5724 78.7592 36.5724 78.7592L20.4106 81.5399C12.0219 83.9711 4.19223 86.2709 3.83967 94.8695C3.56945 101.434 7.86429 108.914 7.02323 115.957C5.94909 118.048 4.47638 116.023 4.42741 115.956C2.33825 111.522 3.14723 102.779 2.88376 97.6477C2.31841 93.1557 2.33361 84.7674 7.47585 77.6863C12.5835 70.6521 15.1502 69.5881 15.1911 69.5716C15.1915 69.5716 15.1915 69.5712 15.192 69.5708C15.192 69.5708 15.192 69.5712 15.192 69.5716C15.192 69.5712 15.1932 69.5708 15.1932 69.5708L15.1915 69.5737C13.4376 87.8361 45.2221 78.6215 37.2526 64.6316C35.2674 61.1462 29.2224 60.2662 23.4244 62.3182C26.9403 57.6468 31.76 54.0642 35.9353 49.9442C41.1903 62.0138 61.725 54.6689 60.189 43.032C59.7364 39.6057 57.3555 38.7494 57.2069 36.1924C66.4341 30.6862 82.9472 22.4174 92.885 31.2165C85.6114 29.0206 72.2308 33.2668 72.4204 40.7503C72.6454 49.622 89.9607 51.0939 97.7275 45.5881C98.4364 43.4627 99.6309 41.7438 99.4975 38.9145C102.78 44.9607 109.341 47.0815 113.152 52.4957C103.596 47.8099 91.9013 55.1506 94.7124 64.8089C97.63 74.8287 120.465 74.3689 118.537 59.7114C122.007 60.308 121.309 64.5712 122.746 67.0328C124.724 70.4173 129.249 72.0644 128.825 75.3704ZM19.244 75.1293C23.5422 77.7243 29.8874 76.5104 33.9319 73.812C32.6268 77.7462 21.1136 79.4934 19.244 75.1293ZM112.173 67.9807C106.954 71.4851 98.5213 68.5325 96.9595 63.4228C100.755 66.4687 104.405 69.689 112.173 67.9807ZM148.844 80.682C146.501 79.5268 146.297 75.8454 143.031 75.2813C138.181 74.4449 133.778 77.807 134.903 83.7084C135.532 84.6905 136.178 85.6524 137.998 85.2078C140.784 83.7722 136.126 83.6029 136.989 80.5608C139.232 77.7522 143.711 77.2126 145.854 80.3581C146.034 91.3954 124.595 90.0443 130.798 77.5634C132.686 73.7643 145.113 68.3252 148.747 72.9924C150.007 75.7398 149.483 78.1516 148.844 80.682Z" fill="white"/>
<path d="M244.875 75.7188L255.188 41.5H265.625L249.781 87H240L224.219 41.5H234.625L244.875 75.7188ZM297.312 67.2812H279.312V79.4688H300.438V87H269.938V41.5H300.375V49.0938H279.312V59.9375H297.312V67.2812ZM341.938 81.25C340.25 83.2708 337.865 84.8438 334.781 85.9688C331.698 87.0729 328.281 87.625 324.531 87.625C320.594 87.625 317.135 86.7708 314.156 85.0625C311.198 83.3333 308.906 80.8333 307.281 77.5625C305.677 74.2917 304.854 70.4479 304.812 66.0312V62.9375C304.812 58.3958 305.573 54.4688 307.094 51.1562C308.635 47.8229 310.844 45.2812 313.719 43.5312C316.615 41.7604 320 40.875 323.875 40.875C329.271 40.875 333.49 42.1667 336.531 44.75C339.573 47.3125 341.375 51.0521 341.938 55.9688H332.812C332.396 53.3646 331.469 51.4583 330.031 50.25C328.615 49.0417 326.656 48.4375 324.156 48.4375C320.969 48.4375 318.542 49.6354 316.875 52.0312C315.208 54.4271 314.365 57.9896 314.344 62.7188V65.625C314.344 70.3958 315.25 74 317.062 76.4375C318.875 78.875 321.531 80.0938 325.031 80.0938C328.552 80.0938 331.062 79.3438 332.562 77.8438V70H324.031V63.0938H341.938V81.25ZM375.25 77.625H358.812L355.688 87H345.719L362.656 41.5H371.344L388.375 87H378.406L375.25 77.625ZM361.344 70.0312H372.719L367 53L361.344 70.0312ZM429.625 87H420.25L402 57.0625V87H392.625V41.5H402L420.281 71.5V41.5H429.625V87ZM447.781 87H438.406V41.5H447.781V87ZM466.438 79.4688H489.375V87H454.719V81.5L477.219 49.0938H454.75V41.5H488.875V46.875L466.438 79.4688ZM505.25 79.4688H528.188V87H493.531V81.5L516.031 49.0938H493.562V41.5H527.688V46.875L505.25 79.4688ZM560.25 77.625H543.812L540.688 87H530.719L547.656 41.5H556.344L573.375 87H563.406L560.25 77.625ZM546.344 70.0312H557.719L552 53L546.344 70.0312Z" fill="white"/>
<line x1="169" y1="8.74228e-08" x2="169" y2="136" stroke="white" stroke-width="4"/>
</svg>
