<svg width="163" height="158" viewBox="0 0 163 158" fill="none" xmlns="http://www.w3.org/2000/svg">
<circle cx="84" cy="79" r="79" fill="#FF7171"/>
<path d="M158 101.815L105.637 146L44 103.803L104.594 71L155.65 95.4653L158 101.815Z" fill="#DADAE5"/>
<path d="M74.5515 16L101 66.5519L43.9108 93L7 24.8233L74.5515 16Z" fill="#DADAE5"/>
<path opacity="0.03" d="M105 62.9432L78.2597 11L74 16.2612L100.198 66L105 62.9432Z" fill="black"/>
<path d="M105 61.992L78.2597 11L74 16.1648L100.198 65L105 61.992Z" fill="#EFF0F4"/>
<path opacity="0.03" d="M105 62.0947L78.445 11L72 19.0664L98.0161 68L105 62.0947Z" fill="black"/>
<path opacity="0.03" d="M105 63V73.5735L44 106V93.7382L105 63Z" fill="black"/>
<path opacity="0.03" d="M158 89.4067L104.464 63L104 73.6266L156.821 101L158 89.4067Z" fill="black"/>
<path d="M105 62V71.2181L44 104V93.0752L105 62Z" fill="#EFF0F4"/>
<path d="M158 88.7398L104.464 62L104 71.2887L156.821 99L158 88.7398Z" fill="#EFF0F4"/>
<path opacity="0.03" d="M105 62V71.2181L44 104V93.0752L105 62Z" fill="black"/>
<path opacity="0.03" d="M158 88.7398L104.464 62L104 71.2887L156.821 99L158 88.7398Z" fill="black"/>
<path d="M158 89L157.869 102.261L105.649 146L105 132.467L158 89Z" fill="#CCCAD6"/>
<path d="M131.446 91.1346C131.446 91.1346 132.749 92.887 131.358 94.0041C130.692 94.5371 125.635 96.3916 120.542 98.1878C118.039 99.0713 115.529 99.9328 113.524 100.619L109.36 102.028L108.028 102.262L99.9775 103.671L92.4396 105L89.139 104.847L89 91.9889L96.9257 80L99.1871 81.3654L99.5823 81.599L105.247 83.3294L121.23 88.2214L128.424 90.4118L129.265 90.6674L131.446 91.1346Z" fill="#FFE09C"/>
<path d="M84.0066 105C84.0066 105 83.6564 90.797 88.0705 85.0966C88.0705 85.0966 91.6529 80.0484 94.0824 78.425C94.0824 78.425 96.0597 76.468 99 80.9528C99 80.9528 91.3902 87.5206 90.8357 95.949L90.2812 104.377L84.0066 105Z" fill="#E7C4C3"/>
<path d="M98.678 97.9055C100.461 96.3286 100.823 93.8252 99.4866 92.3142C98.1503 90.8032 95.6216 90.8566 93.8387 92.4335C92.0557 94.0105 91.6937 96.5138 93.03 98.0248C94.3663 99.5358 96.895 99.4824 98.678 97.9055Z" fill="#FF7F8E"/>
<path d="M111.379 92.863C113.162 91.2861 113.524 88.7828 112.188 87.2717C110.851 85.7607 108.323 85.8141 106.54 87.3911C104.757 88.968 104.395 91.4713 105.731 92.9823C107.067 94.4933 109.596 94.4399 111.379 92.863Z" fill="#FF7F8E"/>
<path d="M104.986 82.9734C105.043 83.6891 104.929 84.4083 104.654 85.0707C104.379 85.7331 103.951 86.3196 103.405 86.7813C101.636 88.36 99.1267 88.4112 97.7997 86.8983C96.4727 85.3853 96.8353 82.8857 98.6046 81.307C98.7254 81.1998 98.8511 81.0975 98.9817 81L99.3732 81.2339L104.986 82.9734Z" fill="#FF7F8E"/>
<path d="M107.199 99.0705C107.503 99.419 107.729 99.8267 107.862 100.267C107.995 100.707 108.032 101.171 107.972 101.626L100.026 103C99.9474 102.287 100.049 101.565 100.321 100.9C100.593 100.234 101.028 99.6449 101.586 99.1844C103.356 97.6539 105.877 97.5969 107.199 99.0705Z" fill="#FF7F8E"/>
<path d="M95 100.746L95.9338 102C96.5745 100.92 97.4053 100.016 98.3692 99.351L98.5784 99.2539C99.9156 98.7064 97.6446 98 97.6446 98C97.6446 98 95.1718 99.7748 95 100.746Z" fill="#94CC79"/>
<path d="M100 91.0596L100.934 92C101.575 91.1898 102.405 90.5121 103.369 90.0132L103.578 89.9404C104.916 89.5298 102.645 89 102.645 89C102.645 89 100.164 90.3311 100 91.0596Z" fill="#94CC79"/>
<path d="M104 94.0596L104.934 95C105.575 94.1898 106.405 93.5121 107.369 93.0133L107.578 92.9404C108.916 92.5298 106.645 92 106.645 92C106.645 92 104.172 93.3245 104 94.0596Z" fill="#94CC79"/>
<path d="M86.3053 107.997C86.3053 107.997 81.5481 108.223 83.448 104.804C85.8855 103.799 88.5434 103.432 91.1655 103.739C91.1655 103.739 111.21 101.552 113.574 99.7074C113.574 99.7074 131.159 94.0353 131.741 93C131.741 93 133.214 93.0875 129.134 95.7267C125.055 98.3659 111.196 102.587 111.196 102.587L96.3718 106.101L90.8636 106.276L86.3053 107.997Z" fill="#E7C4C3"/>
<path opacity="0.2" d="M86.3053 107.997C86.3053 107.997 81.5481 108.223 83.448 104.804C85.8855 103.799 88.5434 103.432 91.1655 103.739C91.1655 103.739 111.21 101.552 113.574 99.7074C113.574 99.7074 131.159 94.0353 131.741 93C131.741 93 133.214 93.0875 129.134 95.7267C125.055 98.3659 111.196 102.587 111.196 102.587L96.3718 106.101L90.8636 106.276L86.3053 107.997Z" fill="white"/>
<path d="M126.776 96C126.776 96 128.632 97.1086 127.773 98.6319C127.358 99.3471 123.405 102.923 119.371 106.406C117.398 108.123 115.404 109.832 113.816 111.198C111.865 112.864 110.511 114.009 110.511 114.009L109.368 114.724L102.51 118.951L96.0594 122.927L92.958 124L88 112.385L90.803 98.589L93.4021 98.9967L93.8535 99.0682L99.7215 98.5604L116.285 97.13L123.74 96.4792L124.613 96.4005L126.776 96Z" fill="#FFE09C"/>
<path d="M87.2158 127C87.2158 127 81.4089 113.767 83.4254 106.665C83.4254 106.665 84.9416 100.52 86.6321 98.0346C86.6321 98.0346 87.7844 95.4212 92.3405 98.5015C92.3405 98.5015 87.5494 107.637 90.2557 115.824L93 123.95L87.2158 127Z" fill="#E7C4C3"/>
<path d="M98.9543 114.786C100.013 112.654 99.4059 110.198 97.5991 109.301C95.7923 108.404 93.4697 109.406 92.4114 111.538C91.3531 113.67 91.9598 116.125 93.7666 117.022C95.5733 117.919 97.896 116.918 98.9543 114.786Z" fill="#FF7F8E"/>
<path d="M108.82 105.33C109.879 103.198 109.272 100.742 107.465 99.8453C105.658 98.9483 103.336 99.9496 102.277 102.082C101.219 104.214 101.826 106.669 103.633 107.566C105.439 108.463 107.762 107.462 108.82 105.33Z" fill="#FF7F8E"/>
<path d="M99.4961 98C99.8351 98.6708 100.008 99.4122 99.9997 100.163C99.9917 100.913 99.8032 101.651 99.4499 102.314C98.3323 104.548 95.8891 105.596 93.9777 104.655C92.0662 103.714 91.4342 101.151 92.5518 98.9179C92.6289 98.7649 92.7137 98.6145 92.8061 98.4666L93.284 98.5431L99.4961 98Z" fill="#FF7F8E"/>
<path d="M107.385 113.288C107.781 113.479 108.129 113.746 108.407 114.072C108.685 114.397 108.887 114.774 109 115.177L102.5 119C102.172 118.425 102 117.783 102 117.131C102 116.479 102.172 115.836 102.5 115.261C103.521 113.385 105.681 112.499 107.385 113.288Z" fill="#FF7F8E"/>
<path d="M96.0089 118.507L97.2225 119C97.4629 118.147 97.9259 117.347 98.5798 116.654L98.7306 116.53C99.7576 115.797 97.517 116.038 97.517 116.038C97.517 116.038 95.8652 117.88 96.0089 118.507Z" fill="#94CC79"/>
<path d="M97.0097 108.343L98.223 109C98.4633 107.863 98.9262 106.796 99.58 105.872L99.7307 105.707C100.757 104.73 98.5174 105.05 98.5174 105.05C98.5174 105.05 96.8589 107.483 97.0097 108.343Z" fill="#94CC79"/>
<path d="M102.009 108.507L103.223 109C103.463 108.147 103.926 107.347 104.58 106.654L104.731 106.53C105.758 105.797 103.517 106.038 103.517 106.038C103.517 106.038 101.865 107.856 102.009 108.507Z" fill="#94CC79"/>
<path d="M111.009 107.343L112.223 108C112.463 106.863 112.926 105.796 113.58 104.872L113.731 104.707C114.758 103.73 112.517 104.05 112.517 104.05C112.517 104.05 110.865 106.475 111.009 107.343Z" fill="#94CC79"/>
<path d="M111.009 101.507L112.223 102C112.463 101.147 112.926 100.347 113.58 99.6536L113.731 99.5305C114.758 98.7972 112.517 99.0377 112.517 99.0377C112.517 99.0377 110.865 100.856 111.009 101.507Z" fill="#94CC79"/>
<path d="M91.8316 128.502C91.8316 128.502 87.5777 130.455 88.0343 126.627C89.8805 124.808 92.1666 123.492 94.6724 122.807C94.6724 122.807 112.116 113.386 113.594 110.855C113.594 110.855 127.501 99.1779 127.646 98.0174C127.646 98.0174 129.044 97.5488 126.283 101.477C123.522 105.406 112.514 114.373 112.514 114.373L100.318 123.023L95.3681 125.186L91.8316 128.502Z" fill="#E7C4C3"/>
<path opacity="0.2" d="M91.8316 128.502C91.8316 128.502 87.5777 130.455 88.0343 126.627C89.8805 124.808 92.1666 123.492 94.6724 122.807C94.6724 122.807 112.116 113.386 113.594 110.855C113.594 110.855 127.501 99.1779 127.646 98.0174C127.646 98.0174 129.044 97.5488 126.283 101.477C123.522 105.406 112.514 114.373 112.514 114.373L100.318 123.023L95.3681 125.186L91.8316 128.502Z" fill="white"/>
<path d="M105.347 132.381L44 93V103.835L106 146L105.347 132.381Z" fill="#CCCAD6"/>
<path d="M37.4188 97L44 93.2331L4.61569 21L0 25.4286L37.4188 97Z" fill="#CCCAD6"/>
</svg>
