<svg width="186" height="158" viewBox="0 0 186 158" fill="none" xmlns="http://www.w3.org/2000/svg">
<circle cx="91" cy="79" r="79" fill="#FF7171"/>
<g clip-path="url(#clip0)">
<path d="M132.879 36.8645H131.558C131.297 36.8645 131.086 37.0753 131.086 37.3354V55.0236C131.086 55.2837 131.297 55.4945 131.558 55.4945H132.879C133.14 55.4945 133.351 55.2837 133.351 55.0236V37.3354C133.351 37.0753 133.14 36.8645 132.879 36.8645Z" fill="#3F3D56"/>
<path d="M124.273 2L64.5517 2C60.1141 2 56.5167 5.58939 56.5167 10.0171V147.674C56.5167 152.102 60.1141 155.692 64.5517 155.692H124.273C128.711 155.692 132.308 152.102 132.308 147.674V10.0171C132.308 5.58939 128.711 2 124.273 2Z" fill="#3F3D56"/>
<path d="M121.759 6.00317H113.065V7.04669C113.065 7.69625 112.937 8.33943 112.688 8.93951C112.438 9.53958 112.073 10.0848 111.613 10.544C111.152 11.0031 110.606 11.3673 110.004 11.6156C109.402 11.8639 108.758 11.9916 108.107 11.9912H80.4573C79.8063 11.9916 79.1616 11.8639 78.5601 11.6156C77.9585 11.3673 77.4119 11.0031 76.9515 10.544C76.491 10.0848 76.1258 9.53958 75.8765 8.93951C75.6273 8.33943 75.4991 7.69625 75.4991 7.04669V6.00317H67.359C65.7625 6.00317 64.2315 6.63594 63.1026 7.76228C61.9738 8.88861 61.3396 10.4162 61.3396 12.0091V145.693C61.3396 147.286 61.9738 148.813 63.1026 149.94C64.2315 151.066 65.7625 151.699 67.359 151.699H121.759C123.355 151.699 124.887 151.066 126.015 149.94C127.144 148.813 127.778 147.286 127.778 145.693V12.0194C127.78 11.2298 127.625 10.4477 127.323 9.71787C127.021 8.98801 126.578 8.3247 126.019 7.76591C125.46 7.20711 124.796 6.7638 124.065 6.46133C123.334 6.15886 122.55 6.00317 121.759 6.00317V6.00317Z" fill="white"/>
<path d="M96.8877 6.58984H87.8992C87.4587 6.58984 87.1017 6.94611 87.1017 7.38559V7.93727C87.1017 8.37675 87.4587 8.73302 87.8992 8.73302H96.8877C97.3282 8.73302 97.6853 8.37675 97.6853 7.93727V7.38559C97.6853 6.94611 97.3282 6.58984 96.8877 6.58984Z" fill="#E6E8EC"/>
<path d="M100.506 8.87858C101.18 8.87858 101.726 8.33369 101.726 7.66152C101.726 6.98936 101.18 6.44446 100.506 6.44446C99.8322 6.44446 99.2861 6.98936 99.2861 7.66152C99.2861 8.33369 99.8322 8.87858 100.506 8.87858Z" fill="#E6E8EC"/>
<path d="M94.8752 95.0382C102.794 95.0382 109.213 88.6333 109.213 80.7326C109.213 72.8318 102.794 66.427 94.8752 66.427C86.9568 66.427 80.5377 72.8318 80.5377 80.7326C80.5377 88.6333 86.9568 95.0382 94.8752 95.0382Z" fill="white"/>
<path d="M113.733 78.7351C113.733 82.5167 112.609 86.2133 110.503 89.3575C108.397 92.5017 105.405 94.9522 101.903 96.3993C98.4015 97.8463 94.5485 98.2248 90.8313 97.4869C87.1142 96.7491 83.6998 94.928 81.0199 92.2539C78.34 89.5798 76.5151 86.1729 75.7758 82.464C75.0365 78.7551 75.4161 74.9107 76.8666 71.417C78.3171 67.9233 80.7733 64.9373 83.9247 62.8365C87.076 60.7356 90.781 59.6144 94.571 59.6145C97.0875 59.6146 99.5793 60.1092 101.904 61.0702C104.229 62.0311 106.342 63.4395 108.121 65.215C109.9 66.9906 111.312 69.0984 112.275 71.4182C113.238 73.7379 113.733 76.2242 113.733 78.7351V78.7351ZM92.3559 88.8557L106.571 74.6727C106.686 74.5582 106.777 74.4222 106.839 74.2725C106.901 74.1227 106.933 73.9622 106.933 73.8001C106.933 73.638 106.901 73.4775 106.839 73.3278C106.777 73.178 106.686 73.042 106.571 72.9276L104.822 71.1952C104.707 71.0805 104.571 70.9895 104.421 70.9274C104.271 70.8653 104.111 70.8333 103.948 70.8333C103.786 70.8333 103.625 70.8653 103.476 70.9274C103.326 70.9895 103.19 71.0805 103.075 71.1952L91.4815 82.7632L86.0682 77.3492C85.8358 77.1186 85.5214 76.9892 85.1937 76.9892C84.866 76.9892 84.5516 77.1186 84.3192 77.3492L82.5702 79.1046C82.3391 79.3364 82.2094 79.6501 82.2094 79.9771C82.2094 80.3041 82.3391 80.6178 82.5702 80.8497L90.6073 88.866C90.722 88.9808 90.8583 89.0718 91.0084 89.134C91.1584 89.1961 91.3193 89.2281 91.4818 89.2281C91.6442 89.2281 91.8051 89.1961 91.9552 89.134C92.1052 89.0718 92.2415 88.9808 92.3563 88.866L92.3559 88.8557Z" fill="#49D05F"/>
<path d="M58.8897 32.2996H58.6912C58.4306 32.2996 58.2193 32.5104 58.2193 32.7704V37.342C58.2193 37.602 58.4306 37.8128 58.6912 37.8128H58.8897C59.1503 37.8128 59.3616 37.602 59.3616 37.342V32.7704C59.3616 32.5104 59.1503 32.2996 58.8897 32.2996Z" fill="#3F3D56"/>
<path d="M58.9932 42.3949H58.6498C58.3892 42.3949 58.1779 42.6057 58.1779 42.8658V51.5195C58.1779 51.7795 58.3892 51.9903 58.6498 51.9903H58.9932C59.2538 51.9903 59.4651 51.7795 59.4651 51.5195V42.8658C59.4651 42.6057 59.2538 42.3949 58.9932 42.3949Z" fill="#3F3D56"/>
<path d="M58.9518 55.3479H58.6705C58.4098 55.3479 58.1985 55.5587 58.1985 55.8188V64.5549C58.1985 64.815 58.4098 65.0258 58.6705 65.0258H58.9518C59.2124 65.0258 59.4237 64.815 59.4237 64.5549V55.8188C59.4237 55.5587 59.2124 55.3479 58.9518 55.3479Z" fill="#3F3D56"/>
<path d="M43.0171 80.9396C43.0498 80.9711 43.0919 80.9913 43.1371 80.997C43.1822 81.0028 43.228 80.9939 43.2677 80.9716C43.183 80.9729 43.0987 80.9621 43.0171 80.9396Z" fill="url(#paint0_linear)"/>
<path d="M52.4891 84.6364L52.2418 85.9803L52.051 87.0084L51.7039 88.889L48.3389 91.2396C48.3389 91.2396 48.0355 90.9805 47.5352 90.5722C46.1561 89.4392 43.2576 87.1322 41.1292 85.8937C40.5817 85.5456 39.9894 85.2732 39.3685 85.0842L52.4891 84.6364Z" fill="#FEB9B9"/>
<path d="M50.0205 85.6363C50.0205 85.6363 53.9441 86.3083 54.1738 84.6364C54.4036 82.9645 52.1543 82.061 50.248 81.9485C48.3418 81.8361 36.9007 82.6205 36.9007 82.6205C36.9007 82.6205 34.8826 85.3061 42.1712 85.7556L50.0205 85.6363Z" fill="#3F3D56"/>
<path d="M58.6008 30.467H38.0753V54.7516H58.6008V30.467Z" fill="#2F2E41"/>
<path opacity="0.1" d="M58.6008 30.5773H38.0753V54.8618H58.6008V30.5773Z" fill="black"/>
<path d="M14.0195 72.0389C13.6816 72.1238 13.2496 72.4501 12.7693 72.9218C10.7006 74.9652 7.73784 79.7607 7.73784 79.7607C3.9499 75.2587 8.14155 71.7017 9.92825 70.4792C10.3627 70.1834 10.6545 70.0205 10.6545 70.0205L14.0195 72.0389Z" fill="#FEB9B9"/>
<path d="M52.2638 38.1316C52.2638 38.1316 53.2736 45.1815 56.7504 46.8602C60.2271 48.5388 52.2638 51.6762 52.2638 51.6762L41.3851 47.6444C41.3851 47.6444 47.5543 45.6293 46.3199 39.6978L52.2638 38.1316Z" fill="#FEB9B9"/>
<path d="M40.5992 80.5449L40.3531 81.8843L40.1532 82.9163L39.8062 84.7969L36.4411 87.1453C36.4411 87.1453 36.1378 86.8885 35.6374 86.4803C34.2584 85.3474 31.3601 83.0403 29.2284 81.8019C28.6812 81.4532 28.0888 81.1809 27.4677 80.9923L40.5992 80.5449Z" fill="#FEB9B9"/>
<path d="M37.6883 82.1967C37.6883 82.1967 41.2096 82.2216 41.4214 80.5449C41.6333 78.8683 39.5024 77.9696 37.6883 77.8571C35.8742 77.7446 24.8519 78.5813 24.8519 78.5813C24.8519 78.5813 23.2881 81.7478 30.2212 82.1965L37.6883 82.1967Z" fill="#2F2E41"/>
<path d="M62.3771 108.536C62.2232 108.46 62.0691 108.382 61.9174 108.306L61.5036 107.786L56.0769 100.919V101.039C56.0402 102.185 55.6495 111.272 52.6016 112.111C49.3493 113.005 45.4257 113.23 43.6372 107.187C41.8486 101.144 38.5806 87.939 35.2246 87.1548L40.2169 83.0703C40.2169 83.0703 43.5222 86.9277 44.8689 90.6201C44.8184 90.3908 42.5359 79.7496 44.4091 77.8667H60.7872C60.7872 77.8667 63.3156 85.0519 65.0485 88.6112C66.3977 91.3747 68.4227 97.9085 69.7265 102.33C71.0172 106.696 66.4822 110.551 62.3771 108.536Z" fill="#3F3D56"/>
<path opacity="0.1" d="M61.9106 79.873C59.3822 81.366 48.2828 80.7582 44.6719 80.5152L43.6881 80.444C43.5824 80.444 43.7042 80.3844 43.7042 80.3844L43.8054 79.3684L46.497 72.5433L60.9085 64.2046C60.6165 65.083 60.52 66.4269 60.5431 67.9658C60.6097 72.9103 61.9106 79.873 61.9106 79.873Z" fill="black"/>
<path d="M61.9106 79.5359C59.3823 81.0289 48.2828 80.4211 44.6719 80.1781L43.6881 80.1092L43.5249 80.0954L43.7042 80.0496L44.5914 79.8203L46.4968 72.211L60.9083 63.8745C60.6165 64.7529 60.5198 66.0968 60.5429 67.6357C60.6097 72.5755 61.9106 79.5359 61.9106 79.5359Z" fill="#EFEFEF"/>
<path opacity="0.1" d="M60.5338 67.631C57.6032 68.3052 51.1537 70.2835 48.6758 75.0615C47.0233 78.2424 45.6327 79.6069 44.6627 80.1779L43.6788 80.109C43.6853 80.0895 43.6906 80.0695 43.6949 80.0494L44.5821 79.8201L46.4875 72.2107L60.899 63.8745C60.6105 64.7482 60.5107 66.0921 60.5338 67.631Z" fill="black"/>
<path opacity="0.1" d="M10.6544 70.0254L14.0195 72.039C13.6815 72.1239 13.2496 72.4503 12.7692 72.922C12.4888 72.1054 10.729 70.9657 9.92822 70.4796C10.3624 70.1882 10.6544 70.0254 10.6544 70.0254Z" fill="black"/>
<path opacity="0.1" d="M43.0791 80.24C43.0423 80.2591 43.0003 80.2663 42.9591 80.2606C42.9179 80.2548 42.8796 80.2364 42.8494 80.2079C42.924 80.2297 43.0014 80.2405 43.0791 80.24V80.24Z" fill="black"/>
<path d="M50.6941 46.4129C50.6941 46.4129 47.6648 46.7476 45.5341 44.5095C45.5341 44.5095 36.5697 47.0848 33.5337 52.9031C30.4978 58.7213 9.85919 70.1377 9.85919 70.1377C9.85919 70.1377 13.4495 72.1514 13.1115 73.1581L26.6841 65.3239C26.6841 65.3239 31.5109 61.8564 32.851 61.0721C34.1911 60.2879 41.6013 55.4764 43.1712 68.5692C44.7411 81.6621 43.1712 80.0957 43.1712 80.0957C43.1712 80.0957 45.4146 80.8801 48.6669 74.6122C51.9193 68.3443 62.012 66.8904 62.012 66.8904L62.5727 60.29C62.5727 60.29 64.5748 55.9142 63.0325 54.0979C62.5652 53.5601 62.2544 52.905 62.1338 52.2035C61.8787 50.5271 62.1338 47.7338 65.7055 45.413C71.2013 41.8306 73.3319 38.9228 73.3319 38.9228C73.3319 38.9228 73.4444 36.7946 70.0796 35.7877C66.7147 34.7808 53.0317 29.2975 53.0317 29.2975L52.5719 31.2009L63.368 38.8035C63.368 38.8035 57.985 43.1608 53.7144 43.0553C53.7142 43.0553 54.5072 46.3004 50.6941 46.4129Z" fill="#29C2F2"/>
<path opacity="0.1" d="M52.7718 41.2C52.5066 40.303 52.2993 39.3899 52.1513 38.4663L46.2074 40.0331C46.4694 41.1653 46.4226 42.3469 46.0718 43.4549C47.287 43.7784 48.5709 43.737 49.7627 43.336C50.9545 42.9349 52.0012 42.1919 52.7718 41.2V41.2Z" fill="black"/>
<path d="M47.8348 43.3354C51.3651 43.3354 54.227 40.4799 54.227 36.9575C54.227 33.4351 51.3651 30.5796 47.8348 30.5796C44.3046 30.5796 41.4427 33.4351 41.4427 36.9575C41.4427 40.4799 44.3046 43.3354 47.8348 43.3354Z" fill="#FEB9B9"/>
<path opacity="0.1" d="M54.7877 88.3217C54.7877 88.3217 58.4883 95.5963 57.3666 97.8322Z" fill="black"/>
<path d="M51.2341 22.2271C53.0084 22.429 54.6933 23.1879 56.4403 23.6031C56.8769 23.7385 57.3417 23.7559 57.7872 23.6534C58.4652 23.4447 59.0169 22.7362 59.7202 22.7567C60.153 22.7705 60.5361 23.0641 60.8924 23.346C61.4637 23.7824 62.0015 24.2607 62.5013 24.7772C63.7056 26.082 64.4526 27.8388 65.5512 29.2584C66.6498 30.678 68.2166 32.3427 69.7773 31.6917C68.7156 35.8198 65.4041 38.4021 61.6417 38.6592C60.1408 38.762 58.6031 38.4505 57.1504 38.8884C56.7886 39.0364 56.4065 39.1292 56.017 39.1635C55.1803 39.1635 54.5068 38.3976 53.985 37.6522C52.7622 35.9002 51.7946 33.9118 50.4178 32.3133C49.9581 31.7836 49.4272 31.2813 48.7836 31.1851C48.14 31.0889 47.5494 31.3961 46.9771 31.6919C46.0325 32.1805 45.0672 32.6849 44.334 33.5267C43.6007 34.3685 43.1387 35.6113 43.442 36.7374C43.6053 37.3475 43.9779 37.898 43.9844 38.5354C43.9983 39.5536 43.0973 40.2967 42.9203 41.2874C42.8803 41.7035 42.8657 42.1217 42.8766 42.5396C42.7985 43.8967 41.908 45.0071 40.9806 45.8626C40.6175 46.1929 40.2182 46.5506 40.1118 47.062C40.0405 47.4128 40.1118 47.7817 40.0659 48.1376C39.9303 49.0183 39.0499 49.4655 38.2707 49.5803C37.3603 49.7147 36.4305 49.6047 35.5768 49.2615C36.6664 48.7475 37.3376 47.2847 37.0847 45.9751C36.7377 44.1587 34.9081 42.8538 35.0652 41.0055C35.1512 40.4384 35.3216 39.8873 35.5709 39.3704C35.9696 38.3716 36.2593 37.3328 36.4352 36.2721C36.573 35.4533 36.6398 34.5842 36.3822 33.8022C36.1524 33.0912 35.6721 32.5249 35.2651 31.9239C34.7135 31.1063 34.2781 30.2164 33.9711 29.2796C33.8598 29.0017 33.8174 28.7012 33.8474 28.4035C33.9396 28.0518 34.1359 27.7361 34.4106 27.4975C35.4105 26.4488 36.4793 25.3601 37.8194 25.0597C38.4588 24.9537 39.1091 24.9291 39.7547 24.9863C40.8775 25.0214 42.0014 24.9738 43.1173 24.844C44.0366 24.7362 45.5902 24.75 46.3696 24.156C47.0958 23.6008 47.5051 22.9037 48.3991 22.5507C49.3044 22.2159 50.2776 22.1049 51.2353 22.2273L51.2341 22.2271Z" fill="#2F2E41"/>
<path d="M170.007 155.31C175.128 155.31 179.28 154.609 179.28 153.745C179.28 152.881 175.128 152.181 170.007 152.181C164.886 152.181 160.735 152.881 160.735 153.745C160.735 154.609 164.886 155.31 170.007 155.31Z" fill="#EFEFEF"/>
<path d="M173.842 151.187C174.265 150.842 174.573 150.377 174.725 149.854C174.841 149.328 174.615 148.703 174.107 148.499C173.54 148.283 172.932 148.676 172.474 149.072C172.016 149.468 171.487 149.921 170.885 149.836C171.195 149.556 171.427 149.202 171.559 148.806C171.69 148.411 171.717 147.988 171.636 147.579C171.609 147.409 171.536 147.25 171.426 147.119C171.112 146.783 170.54 146.925 170.165 147.192C168.965 148.032 168.631 149.66 168.624 151.12C168.502 150.593 168.606 150.043 168.601 149.509C168.597 148.975 168.451 148.358 167.992 148.076C167.709 147.924 167.391 147.849 167.07 147.859C166.53 147.839 165.931 147.894 165.562 148.287C165.101 148.775 165.225 149.594 165.622 150.128C166.019 150.662 166.625 151.004 167.183 151.375C167.629 151.641 168.01 152.003 168.296 152.436C168.33 152.496 168.358 152.56 168.378 152.627H171.748C172.507 152.243 173.212 151.759 173.841 151.187L173.842 151.187Z" fill="#EFEFEF"/>
<path d="M43.9385 156C47.3181 156 50.0578 155.538 50.0578 154.968C50.0578 154.397 47.3181 153.935 43.9385 153.935C40.5589 153.935 37.8192 154.397 37.8192 154.968C37.8192 155.538 40.5589 156 43.9385 156Z" fill="#EFEFEF"/>
<path d="M46.4693 153.279C46.7482 153.051 46.9514 152.745 47.0521 152.4C47.0965 152.227 47.0802 152.044 47.0061 151.881C46.9319 151.718 46.8043 151.586 46.6443 151.505C46.2698 151.363 45.8696 151.622 45.5669 151.883C45.2642 152.145 44.9155 152.444 44.5184 152.388C44.7228 152.203 44.8758 151.969 44.9625 151.708C45.0491 151.447 45.0665 151.168 45.013 150.898C44.9951 150.786 44.9473 150.681 44.8745 150.594C44.6684 150.373 44.29 150.467 44.0421 150.643C43.2508 151.198 43.0301 152.271 43.0255 153.235C42.945 152.887 43.0134 152.524 43.0103 152.172C43.0072 151.82 42.9114 151.413 42.6084 151.226C42.4216 151.126 42.2116 151.077 41.9997 151.084C41.6436 151.07 41.2479 151.106 41.0043 151.366C40.6999 151.688 40.7822 152.229 41.0439 152.581C41.3056 152.933 41.7058 153.16 42.0743 153.403C42.3688 153.578 42.6201 153.817 42.8094 154.103C42.8322 154.142 42.8505 154.185 42.8642 154.229H45.0876C45.5889 153.975 46.0537 153.655 46.4693 153.278V153.279Z" fill="#EFEFEF"/>
<path d="M9.33128 156C12.7109 156 15.4506 155.538 15.4506 154.968C15.4506 154.397 12.7109 153.935 9.33128 153.935C5.95168 153.935 3.21198 154.397 3.21198 154.968C3.21198 155.538 5.95168 156 9.33128 156Z" fill="#EFEFEF"/>
<path d="M11.8621 153.279C12.1409 153.051 12.3441 152.745 12.4449 152.4C12.4892 152.227 12.473 152.044 12.3988 151.881C12.3247 151.718 12.197 151.586 12.037 151.505C11.6626 151.363 11.2624 151.622 10.9597 151.883C10.6569 152.145 10.3083 152.444 9.91114 152.388C10.1155 152.203 10.2685 151.969 10.3552 151.708C10.4419 151.447 10.4593 151.168 10.4057 150.898C10.3879 150.786 10.34 150.681 10.2672 150.594C10.0612 150.373 9.6828 150.467 9.43488 150.643C8.64354 151.198 8.42283 152.271 8.4183 153.235C8.33772 152.887 8.40613 152.524 8.40304 152.172C8.39995 151.82 8.30413 151.413 8.0012 151.226C7.81434 151.126 7.60439 151.077 7.39243 151.084C7.03633 151.07 6.64067 151.106 6.39708 151.366C6.0927 151.688 6.17492 152.229 6.43664 152.581C6.69836 152.933 7.09856 153.16 7.46703 153.403C7.76156 153.578 8.01281 153.817 8.20212 154.103C8.22492 154.142 8.2433 154.185 8.25694 154.229H10.4803C10.9817 153.975 11.4464 153.655 11.8621 153.278V153.279Z" fill="#EFEFEF"/>
<path d="M186 155.411H0L0 155.785H186V155.411Z" fill="#2F2E41"/>
<path d="M176.921 12.3888C176.921 12.3888 157.504 11.2198 159.791 24.7952C159.791 24.7952 159.33 27.195 161.516 28.2834C161.516 28.2834 161.551 27.2779 163.509 27.6207C164.206 27.7359 164.914 27.7699 165.619 27.7218C166.57 27.6594 167.474 27.2904 168.197 26.6703V26.6703C168.197 26.6703 173.655 24.42 175.777 15.5201C175.777 15.5201 177.347 13.5783 177.285 13.0788L174.008 14.4754C174.008 14.4754 175.129 16.8338 174.239 18.7934C174.239 18.7934 174.133 14.5597 173.503 14.6518C173.376 14.6703 171.801 15.4685 171.801 15.4685C171.801 15.4685 173.727 19.5756 172.274 22.5624C172.274 22.5624 172.825 17.5005 171.199 15.7654L168.893 17.1092C168.893 17.1092 171.144 21.3521 169.618 24.815C169.618 24.815 170.009 19.5044 168.407 17.4359L166.318 19.0626C166.318 19.0626 168.432 23.2432 167.143 26.1153C167.143 26.1153 166.975 19.935 165.865 19.468C165.865 19.468 164.037 21.0787 163.758 21.7366C163.758 21.7366 165.206 24.7739 164.306 26.3752C164.306 26.3752 163.755 22.2567 163.303 22.2336C163.303 22.2336 161.482 24.9624 161.292 26.8354C161.292 26.8354 161.371 24.0536 162.863 21.976C162.863 21.976 161.101 22.2774 160.072 23.4153C160.072 23.4153 160.356 21.4872 163.312 21.317C163.312 21.317 164.818 19.2462 165.219 19.122C165.219 19.122 162.282 18.8752 160.499 19.665C160.499 19.665 162.067 17.8451 165.759 18.6733L167.823 16.9914C167.823 16.9914 163.953 16.4643 162.312 17.0467C162.312 17.0467 164.2 15.436 168.379 16.6095L170.625 15.2703C170.625 15.2703 167.325 14.5615 165.36 14.8101C165.36 14.8101 167.436 13.6942 171.285 14.9045L172.899 14.1848C172.899 14.1848 170.482 13.7109 169.774 13.635C169.066 13.5591 169.029 13.3659 169.029 13.3659C170.56 13.1112 172.132 13.2856 173.57 13.8698C173.57 13.8698 176.979 12.6028 176.921 12.3888Z" fill="#6CBDEB"/>
<path d="M150.317 5.20176C150.317 5.20176 141.554 4.67476 142.578 10.809C142.578 10.809 142.372 11.8928 143.357 12.3851C143.357 12.3851 143.373 11.9249 144.259 12.0837C144.573 12.1365 144.893 12.1519 145.211 12.1297C145.641 12.1013 146.05 11.9332 146.375 11.651V11.651C146.375 11.651 148.843 10.634 149.802 6.61211C149.802 6.61211 150.51 5.73555 150.482 5.50999L149.002 6.14042C149.002 6.14042 149.507 7.20573 149.11 8.09154C149.11 8.09154 149.062 6.17928 148.778 6.22328C148.72 6.22328 148.008 6.5934 148.008 6.5934C148.008 6.5934 148.88 8.45014 148.222 9.7986C148.222 9.7986 148.471 7.51149 147.736 6.72684L146.693 7.3437C146.693 7.3437 147.71 9.26029 147.021 10.8251C147.021 10.8251 147.199 8.42526 146.474 7.49113L145.531 8.22745C145.531 8.22745 146.486 10.1165 145.905 11.4146C145.905 11.4146 145.826 8.62122 145.326 8.40963C145.326 8.40963 144.5 9.13671 144.373 9.43589C144.373 9.43589 145.028 10.8164 144.623 11.532C144.623 11.532 144.373 9.6705 144.161 9.66083C144.161 9.66083 143.338 10.8946 143.253 11.7316C143.294 10.9507 143.539 10.1941 143.963 9.53664C143.488 9.62643 143.05 9.85277 142.702 10.1878C142.702 10.1878 142.831 9.3158 144.166 9.23993C144.166 9.23993 144.858 8.30354 145.028 8.24596C145.028 8.24596 143.7 8.13554 142.895 8.49271C142.895 8.49271 143.603 7.67125 145.271 8.04404L146.193 7.28469C146.193 7.28469 144.443 7.05234 143.702 7.30854C143.702 7.30854 144.555 6.58147 146.443 7.11073L147.458 6.5056C147.458 6.5056 145.966 6.18586 145.078 6.29998C145.078 6.29998 146.017 5.796 147.756 6.3411L148.482 6.01663C148.482 6.01663 147.39 5.80258 147.068 5.76804C146.747 5.73349 146.732 5.6461 146.732 5.6461C147.424 5.5312 148.135 5.61087 148.784 5.87619C148.784 5.87619 150.344 5.29758 150.317 5.20176Z" fill="#3F3D56"/>
<path d="M15.1823 98.8486C15.1823 98.8486 6.41939 98.3216 7.44319 104.456C7.44319 104.456 7.2371 105.54 8.22257 106.032C8.22257 106.032 8.23865 105.572 9.12417 105.73C9.43866 105.783 9.75831 105.799 10.0765 105.777C10.5066 105.748 10.9156 105.58 11.241 105.298V105.298C11.241 105.298 13.7084 104.281 14.6677 100.259C14.6677 100.259 15.3756 99.3824 15.3478 99.1568L13.8673 99.7873C13.8673 99.7873 14.3724 100.853 13.9757 101.738C13.9757 101.738 13.9272 99.8261 13.6437 99.8701C13.586 99.8701 12.8734 100.24 12.8734 100.24C12.8734 100.24 13.7451 102.097 13.0879 103.445C13.0879 103.445 13.3368 101.158 12.6013 100.374L11.559 100.991C11.559 100.991 12.576 102.907 11.8864 104.472C11.8864 104.472 12.0641 102.072 11.3399 101.138L10.3967 101.874C10.3967 101.874 11.3515 103.763 10.7703 105.061C10.7703 105.061 10.692 102.268 10.1915 102.056C10.1915 102.056 9.3659 102.784 9.23895 103.083C9.23895 103.083 9.89387 104.463 9.4881 105.179C9.4881 105.179 9.23896 103.317 9.0269 103.308C9.0269 103.308 8.20362 104.541 8.1183 105.378C8.15953 104.598 8.40438 103.841 8.82865 103.183C8.35356 103.273 7.91514 103.5 7.56724 103.835C7.56724 103.835 7.69646 102.963 9.03164 102.887C9.03164 102.887 9.72345 101.95 9.89408 101.893C9.89408 101.893 8.5659 101.782 7.76096 102.14C7.76096 102.14 8.46884 101.318 10.1362 101.691L11.0586 100.932C11.0586 100.932 9.30902 100.699 8.56714 100.955C8.56714 100.955 9.4203 100.228 11.309 100.758L12.3237 100.152C12.3237 100.152 10.8317 99.8327 9.94395 99.9468C9.94395 99.9468 10.8824 99.4429 12.6213 99.9879L13.3478 99.6635C13.3478 99.6635 12.2555 99.4494 11.9341 99.4149C11.6126 99.3803 11.5973 99.293 11.5973 99.293C12.2896 99.178 13.0002 99.2577 13.6497 99.523C13.6497 99.523 15.2093 98.9444 15.1823 98.8486Z" fill="#3F3D56"/>
</g>
<defs>
<linearGradient id="paint0_linear" x1="43.1436" y1="80.9992" x2="43.1436" y2="80.9396" gradientUnits="userSpaceOnUse">
<stop stop-color="#808080" stop-opacity="0.251"/>
<stop offset="0.54" stop-color="#808080" stop-opacity="0.122"/>
<stop offset="1" stop-color="#808080" stop-opacity="0.102"/>
</linearGradient>
<clipPath id="clip0">
<rect width="186" height="154" fill="white" transform="translate(0 2)"/>
</clipPath>
</defs>
</svg>
