<svg width="719" height="471" viewBox="0 0 719 471" fill="none" xmlns="http://www.w3.org/2000/svg">
<path fill-rule="evenodd" clip-rule="evenodd" d="M48.9369 471H758V382H211.02L48.9369 471Z" fill="black"/>
<path d="M645.294 273.288C634.583 253.483 619.402 236.454 600.959 223.558C599.641 222.647 598.12 222.073 596.53 221.886C598.702 207.582 598.246 191.777 590.183 179.857C571.05 151.575 473.567 180.763 473.567 180.763C405.237 157.047 346.013 187.149 346.013 187.149C346.013 187.149 270.392 175.291 235.775 184.416C219.448 188.72 215.482 205.392 215.853 221.817H215.799C214.351 221.814 212.922 222.138 211.617 222.766C210.312 223.393 209.165 224.307 208.262 225.439C199.055 236.956 171.24 272.429 171.998 279.279C172.91 287.492 202.974 394.212 201.613 445.754L621.608 441.11C621.608 441.11 628.565 337.392 645.967 280.618C646.721 278.182 646.479 275.546 645.294 273.288Z" fill="#3F3D56"/>
<path opacity="0.1" d="M207.087 279.744L224.395 245.076L238.967 312.577L239.138 343.909L207.087 279.744Z" fill="black"/>
<path opacity="0.1" d="M604.299 279.744L586.99 245.076L566.914 309.079L570.779 345.457L604.299 279.744Z" fill="black"/>
<path d="M237.7 310.735L566.945 308.932L570.594 345.419L238.967 344.505L237.7 310.735Z" fill="#3F3D56"/>
<path opacity="0.1" d="M237.7 310.735L566.945 308.932L570.594 345.419L238.967 344.505L237.7 310.735Z" fill="black"/>
<path opacity="0.1" d="M564.231 341.866H245.685C241.215 341.866 237.591 345.494 237.591 349.97V372.989C237.591 377.465 241.215 381.093 245.685 381.093H564.231C568.701 381.093 572.325 377.465 572.325 372.989V349.97C572.325 345.494 568.701 341.866 564.231 341.866Z" fill="white"/>
<path d="M503.825 210.64C503.825 210.64 502.711 209.092 501.397 209.928C500.771 210.338 497.826 214.053 494.934 217.83C493.512 219.68 492.097 221.546 490.976 223.032C489.593 224.858 488.657 226.128 488.657 226.128L488.101 227.173L484.722 233.496L481.545 239.441L480.772 242.243L491.502 245.896L503.716 242.56L503.191 240.292L503.098 239.905L503.198 234.688L503.477 219.982L503.608 213.364V212.59L503.825 210.64Z" fill="#FFE09C"/>
<path d="M479.257 246.895C479.257 246.895 490.853 251.036 496.797 248.868C496.797 248.868 501.938 247.227 503.964 245.641C503.964 245.641 506.121 244.511 503.191 240.826C503.191 240.826 495.684 245.432 488.58 243.62L481.476 241.802L479.257 246.895Z" fill="#E7C4C3"/>
<path d="M492.191 241.655C494 240.594 494.738 238.49 493.84 236.956C492.942 235.421 490.748 235.038 488.939 236.099C487.131 237.16 486.392 239.264 487.29 240.798C488.188 242.333 490.382 242.716 492.191 241.655Z" fill="#FF7F8E"/>
<path d="M499.902 232.398C501.711 231.337 502.449 229.233 501.551 227.699C500.653 226.165 498.459 225.781 496.651 226.842C494.842 227.903 494.104 230.007 495.002 231.542C495.9 233.076 498.094 233.46 499.902 232.398Z" fill="#FF7F8E"/>
<path d="M503.191 234.688C502.608 234.445 501.976 234.344 501.347 234.394C500.718 234.444 500.11 234.643 499.573 234.975C497.764 236.035 497.022 238.14 497.926 239.673C498.831 241.206 501.018 241.593 502.82 240.532C502.943 240.455 503.067 240.377 503.183 240.292L503.09 239.905L503.191 234.688Z" fill="#FF7F8E"/>
<path d="M490.072 228.55C489.857 228.195 489.57 227.888 489.229 227.651C488.888 227.413 488.501 227.251 488.093 227.173L484.715 233.496C485.306 233.763 485.954 233.88 486.601 233.837C487.248 233.794 487.875 233.592 488.425 233.249C490.234 232.188 490.969 230.083 490.072 228.55Z" fill="#FF7F8E"/>
<path d="M497.586 219.286C497.307 218.838 496.918 218.47 496.457 218.215C495.995 217.96 495.477 217.828 494.95 217.83C493.527 219.68 492.113 221.546 490.992 223.032L491.038 223.125C491.935 224.673 494.13 225.036 495.939 223.976C497.748 222.916 498.467 220.818 497.586 219.286Z" fill="#FF7F8E"/>
<path d="M503.6 213.357C503.202 213.457 502.819 213.613 502.464 213.821C500.655 214.881 499.921 216.987 500.817 218.519C501.098 218.969 501.489 219.339 501.953 219.593C502.418 219.848 502.94 219.979 503.469 219.974L503.6 213.357Z" fill="#FF7F8E"/>
<path d="M485.596 238.736L484.977 237.692C485.904 237.415 486.758 236.939 487.482 236.298C487.529 236.252 487.567 236.198 487.606 236.151C488.379 235.176 488.217 237.204 488.217 237.204C488.217 237.204 486.315 238.822 485.596 238.736Z" fill="#94CC79"/>
<path d="M494.718 237.119L494.1 236.066C495.025 235.788 495.879 235.312 496.604 234.673C496.604 234.626 496.689 234.58 496.728 234.526C497.501 233.558 497.339 235.578 497.339 235.578C497.339 235.578 495.437 237.204 494.718 237.119Z" fill="#94CC79"/>
<path d="M493.883 232.784L493.265 231.732C494.189 231.456 495.044 230.983 495.769 230.346C495.808 230.292 495.854 230.246 495.893 230.199C496.666 229.224 496.504 231.244 496.504 231.244C496.504 231.244 494.602 232.854 493.883 232.784Z" fill="#94CC79"/>
<path d="M494.989 224.967L494.37 223.914C495.295 223.636 496.15 223.16 496.875 222.521C496.875 222.474 496.96 222.428 496.998 222.374C497.772 221.399 497.609 223.426 497.609 223.426C497.609 223.426 495.708 225.044 494.989 224.967Z" fill="#94CC79"/>
<path d="M500.222 215.508L499.611 214.456C500.535 214.178 501.387 213.703 502.108 213.062C502.154 213.017 502.195 212.968 502.232 212.915C503.005 211.948 502.851 213.968 502.851 213.968C502.851 213.968 500.941 215.586 500.222 215.508Z" fill="#94CC79"/>
<path d="M499.635 225.16L499.016 224.108C499.942 223.833 500.796 223.36 501.521 222.722C501.521 222.668 501.606 222.621 501.645 222.575C502.418 221.6 502.255 223.62 502.255 223.62C502.255 223.62 500.354 225.245 499.635 225.16Z" fill="#94CC79"/>
<path d="M477.355 243.62C477.355 243.62 475.871 247.491 479.257 246.871C480.764 245.122 481.794 243.013 482.249 240.749C482.249 240.749 489.569 224.688 491.734 223.217C491.734 223.217 501.274 210.16 502.302 209.966C502.302 209.966 502.634 208.697 499.302 211.383C495.97 214.069 488.673 224.409 488.673 224.409L481.715 235.764L480.076 240.292L477.355 243.62Z" fill="#E7C4C3"/>
<path opacity="0.2" d="M477.355 243.62C477.355 243.62 475.871 247.491 479.257 246.871C480.764 245.122 481.794 243.013 482.249 240.749C482.249 240.749 489.569 224.688 491.734 223.217C491.734 223.217 501.274 210.16 502.302 209.966C502.302 209.966 502.634 208.697 499.302 211.383C495.97 214.069 488.673 224.409 488.673 224.409L481.715 235.764L480.076 240.292L477.355 243.62Z" fill="white"/>
<path d="M362.363 322.237C363.639 326.435 365.209 330.537 367.063 334.513C372.386 333.398 377.623 331.903 382.733 330.039C382.895 329.985 379.803 325.937 379.478 325.604C378.219 324.21 376.718 323.057 375.049 322.198C373.418 321.486 371.408 322.028 369.637 322.121C367.225 322.245 364.801 322.283 362.363 322.237Z" fill="#FBBEBE"/>
<path d="M375.08 328.592C372.42 327.756 370.797 325.07 369.715 322.485C368.632 319.899 367.759 317.067 365.703 315.178C365.312 315.238 364.942 315.393 364.627 315.631C364.311 315.869 364.059 316.181 363.894 316.54C363.573 317.265 363.214 317.973 362.819 318.661C361.969 319.899 360.5 320.503 359.379 321.556C358.258 322.608 357.632 324.211 356.464 325.271C354.996 326.602 352.924 326.935 350.999 327.376C348.017 328.054 345.138 329.121 342.433 330.55C341.438 331.151 340.374 331.629 339.264 331.974C338.042 332.213 336.789 332.254 335.553 332.098L327.05 331.494C326.292 331.397 325.524 331.428 324.777 331.587C323.917 331.901 323.185 332.491 322.696 333.266C322.206 334.04 321.987 334.955 322.071 335.867C322.18 336.776 322.475 337.653 322.938 338.443C323.401 339.233 324.022 339.919 324.761 340.457C326.247 341.515 327.884 342.342 329.616 342.911C337.034 345.719 344.673 347.904 352.452 349.443V351.131C357.86 353.8 363.809 355.188 369.838 355.187C370.283 355.218 370.729 355.141 371.137 354.962C371.695 354.558 372.086 353.963 372.235 353.29C374.282 347.295 375.476 341.042 375.783 334.714C375.935 333.113 375.812 331.498 375.42 329.938C374.956 328.39 376.549 329.048 375.072 328.445" fill="#2F2E41"/>
<path d="M538.442 296.439C513.186 297.987 488.193 290.549 462.945 289.759C459.802 289.561 456.645 289.763 453.553 290.363C450.306 291.091 447.275 292.561 444.276 293.97C430.709 300.286 416.686 305.518 402.67 310.743L386.575 316.749C383.359 317.949 380.027 319.164 376.603 318.955C375.057 318.862 373.178 318.63 372.32 319.907C369.699 323.777 370.936 329.497 372.668 333.839C373.224 335.248 374.214 336.781 375.683 336.935C376.742 337.044 377.731 336.432 378.775 336.161C381.705 335.387 384.627 337.353 387.642 337.671C391.368 338.065 394.824 335.945 398.341 334.644C404.17 332.485 410.548 332.554 416.678 331.548C426.96 329.83 436.484 325.054 445.389 319.613C448.775 317.539 452.208 315.317 456.104 314.559C460.58 313.684 465.18 314.837 469.578 316.107C480.047 319.071 490.354 322.585 500.454 326.633C505.773 328.77 511.06 331.053 516.596 332.531C528.569 335.683 541.233 334.943 552.759 330.418C556.795 328.816 561.193 325.991 561.425 321.625C561.557 319.133 559.624 316.981 558.333 314.814C557.513 313.444 556.686 312.082 555.782 310.766C551.399 304.373 546.111 295.982 538.442 296.439Z" fill="#2F2E41"/>
<path opacity="0.1" d="M538.442 296.439C513.186 297.987 488.193 290.549 462.945 289.759C459.802 289.561 456.645 289.763 453.553 290.363C450.306 291.091 447.275 292.561 444.276 293.97C430.709 300.286 416.686 305.518 402.67 310.743L386.575 316.749C383.359 317.949 380.027 319.164 376.603 318.955C375.057 318.862 373.178 318.63 372.32 319.907C369.699 323.777 370.936 329.497 372.668 333.839C373.224 335.248 374.214 336.781 375.683 336.935C376.742 337.044 377.731 336.432 378.775 336.161C381.705 335.387 384.627 337.353 387.642 337.671C391.368 338.065 394.824 335.945 398.341 334.644C404.17 332.485 410.548 332.554 416.678 331.548C426.96 329.83 436.484 325.054 445.389 319.613C448.775 317.539 452.208 315.317 456.104 314.559C460.58 313.684 465.18 314.837 469.578 316.107C480.047 319.071 490.354 322.585 500.454 326.633C505.773 328.77 511.06 331.053 516.596 332.531C528.569 335.683 541.233 334.943 552.759 330.418C556.795 328.816 561.193 325.991 561.425 321.625C561.557 319.133 559.624 316.981 558.333 314.814C557.513 313.444 556.686 312.082 555.782 310.766C551.399 304.373 546.111 295.982 538.442 296.439Z" fill="black"/>
<path d="M410.849 323.468C414.797 324.814 418.786 326.055 422.816 327.191C425.066 323.491 429.279 320.913 430.237 316.687C430.278 316.594 430.298 316.493 430.296 316.391C430.294 316.289 430.271 316.189 430.228 316.097C430.185 316.005 430.123 315.923 430.046 315.856C429.969 315.79 429.879 315.741 429.781 315.712C426.902 314.115 423.704 313.177 420.419 312.964C417.822 312.802 416.639 315.511 415.456 317.423C414.985 318.189 411.908 323.831 410.849 323.468Z" fill="#FBBEBE"/>
<path d="M416.415 320.766C415.235 320.566 414.108 320.123 413.108 319.465C412.107 318.807 411.254 317.948 410.602 316.943C410.045 315.967 409.45 314.621 408.337 314.721C407.223 314.822 406.79 316.029 406.589 317.043C405.84 320.881 404.751 324.645 403.335 328.29C401.914 331.942 399.504 335.126 396.377 337.485C394.909 338.499 393.285 339.265 391.847 340.333C390.556 341.285 389.435 342.493 387.982 343.228C387.032 343.669 386.05 344.036 385.044 344.327C383.569 344.848 382.158 345.537 380.839 346.378C379.68 347.049 378.699 347.989 377.979 349.118C377.614 349.69 377.401 350.345 377.359 351.022C377.317 351.699 377.448 352.376 377.739 352.988C378.045 353.489 378.453 353.919 378.937 354.249C379.42 354.58 379.969 354.805 380.545 354.908C381.697 355.109 382.871 355.141 384.032 355.001C388.631 354.66 393.231 354.227 397.831 353.84C399.774 353.722 401.707 353.463 403.613 353.066C404.626 352.818 405.608 352.501 406.613 352.238C408.333 351.795 410.095 351.536 411.869 351.464C412.389 351.423 412.912 351.47 413.416 351.603C414.482 351.951 415.232 353.012 416.338 353.228C417.043 353.296 417.754 353.2 418.417 352.95C421.726 352.044 425.212 352.067 428.637 351.882C430.183 351.804 431.915 351.518 432.611 350.163C433.476 348.476 432.039 346.587 431.474 344.745C431.186 343.587 431.025 342.401 430.995 341.208C430.734 338.264 429.871 335.405 428.459 332.81C427.292 330.658 425.692 328.274 426.511 325.96C426.789 325.186 427.346 324.412 427.284 323.638C427.021 319.93 418.51 321.207 416.415 320.766Z" fill="#2F2E41"/>
<path d="M500.57 255.873C496.1 253.896 492.519 250.33 490.52 245.865C490.095 244.905 489.747 243.907 489.345 242.939C488.019 239.719 485.96 236.854 483.331 234.572C483.048 234.263 482.702 234.019 482.317 233.856C481.931 233.693 481.515 233.615 481.097 233.628C480.692 233.751 480.328 233.979 480.04 234.289C479.752 234.599 479.551 234.98 479.458 235.393C479.226 236.274 479.169 237.191 479.288 238.094C479.514 240.221 479.88 242.331 480.386 244.41L481.607 249.991C481.758 250.851 482.017 251.689 482.38 252.483C482.905 253.424 483.599 254.258 484.429 254.944C485.55 255.981 486.686 256.98 487.838 257.955C489.444 259.494 491.535 260.424 493.752 260.587C498.761 261.516 503.863 262.862 508.1 266.137C508.045 266.137 508.1 262.39 508.007 261.965C507.814 260.842 507.659 259.728 506.932 258.969C505.27 257.266 502.572 256.779 500.57 255.873Z" fill="#FBBEBE"/>
<path opacity="0.1" d="M500.57 255.873C496.1 253.896 492.519 250.33 490.52 245.865C490.095 244.905 489.747 243.907 489.345 242.939C488.019 239.719 485.96 236.854 483.331 234.572C483.048 234.263 482.702 234.019 482.317 233.856C481.931 233.693 481.515 233.615 481.097 233.628C480.692 233.751 480.328 233.979 480.04 234.289C479.752 234.599 479.551 234.98 479.458 235.393C479.226 236.274 479.169 237.191 479.288 238.094C479.514 240.221 479.88 242.331 480.386 244.41L481.607 249.991C481.758 250.851 482.017 251.689 482.38 252.483C482.905 253.424 483.599 254.258 484.429 254.944C485.55 255.981 486.686 256.98 487.838 257.955C489.444 259.494 491.535 260.424 493.752 260.587C498.761 261.516 503.863 262.862 508.1 266.137C508.045 266.137 508.1 262.39 508.007 261.965C507.814 260.842 507.659 259.728 506.932 258.969C505.27 257.266 502.572 256.779 500.57 255.873Z" fill="black"/>
<path d="M552.002 213.14C555.396 213.14 558.147 210.371 558.147 206.955C558.147 203.54 555.396 200.771 552.002 200.771C548.607 200.771 545.856 203.54 545.856 206.955C545.856 210.371 548.607 213.14 552.002 213.14Z" fill="#2F2E41"/>
<path d="M548.198 203.217C546.536 203.031 544.681 202.9 543.343 203.921C542.633 204.546 542.066 205.317 541.681 206.181C540.306 208.548 539.234 211.078 538.488 213.713C537.94 215.973 537.847 218.357 537.167 220.555C535.907 224.673 532.683 228.148 532.312 232.444C532.149 234.363 532.474 236.616 531.067 237.931C530.724 238.22 530.357 238.479 529.969 238.705C528.997 239.357 528.173 240.206 527.55 241.198C527.128 242.088 526.546 242.894 525.834 243.574C524.581 244.503 522.509 244.402 521.891 245.842C521.273 247.282 522.865 248.938 522.494 250.486C522.192 251.755 520.778 252.336 519.804 253.203C518.551 254.31 517.979 255.974 517.485 257.568C515.431 257.957 513.317 257.896 511.288 257.39C509.26 256.883 507.365 255.944 505.734 254.635C507.443 258.861 507.481 263.528 507.559 268.095C507.559 269.573 507.559 271.237 506.476 272.267C511.37 272.375 516.139 273.699 520.909 274.782C522.996 275.254 525.262 275.665 527.202 274.782C528.297 274.192 529.275 273.405 530.085 272.46C532.683 269.821 535.404 266.949 536.038 263.288C536.394 261.245 536.038 259.139 536.146 257.096C536.385 254.529 536.903 251.996 537.692 249.542C539.068 244.452 539.991 239.252 540.452 233.999C540.73 230.764 543.544 228.156 544.998 225.253C547.781 219.789 550.618 214.092 550.826 207.954C550.927 205.926 550.231 203.441 548.198 203.217Z" fill="#2F2E41"/>
<path opacity="0.1" d="M548.198 203.217C546.536 203.031 544.681 202.9 543.343 203.921C542.633 204.546 542.066 205.317 541.681 206.181C540.306 208.548 539.234 211.078 538.488 213.713C537.94 215.973 537.847 218.357 537.167 220.555C535.907 224.673 532.683 228.148 532.312 232.444C532.149 234.363 532.474 236.616 531.067 237.931C530.724 238.22 530.357 238.479 529.969 238.705C528.997 239.357 528.173 240.206 527.55 241.198C527.128 242.088 526.546 242.894 525.834 243.574C524.581 244.503 522.509 244.402 521.891 245.842C521.273 247.282 522.865 248.938 522.494 250.486C522.192 251.755 520.778 252.336 519.804 253.203C518.551 254.31 517.979 255.974 517.485 257.568C515.431 257.957 513.317 257.896 511.288 257.39C509.26 256.883 507.365 255.944 505.734 254.635C507.443 258.861 507.481 263.528 507.559 268.095C507.559 269.573 507.559 271.237 506.476 272.267C511.37 272.375 516.139 273.699 520.909 274.782C522.996 275.254 525.262 275.665 527.202 274.782C528.297 274.192 529.275 273.405 530.085 272.46C532.683 269.821 535.404 266.949 536.038 263.288C536.394 261.245 536.038 259.139 536.146 257.096C536.385 254.529 536.903 251.996 537.692 249.542C539.068 244.452 539.991 239.252 540.452 233.999C540.73 230.764 543.544 228.156 544.998 225.253C547.781 219.789 550.618 214.092 550.826 207.954C550.927 205.926 550.231 203.441 548.198 203.217Z" fill="black"/>
<path d="M542.423 301.764C537.167 299.256 533.317 294.589 529.065 290.588C520.948 282.956 511.014 277.553 502.48 270.394C496.821 265.657 491.765 260.13 485.55 256.159C480.079 252.678 473.881 250.506 467.437 249.813C466.699 249.681 465.94 249.718 465.218 249.921C464.403 250.282 463.693 250.844 463.154 251.554C460.4 254.666 457.951 258.036 455.841 261.616C445.018 279.999 429.65 295.479 416.918 312.562C416.515 312.968 416.277 313.509 416.249 314.08C416.22 314.652 416.403 315.213 416.763 315.658L419.353 320.735C420.798 323.584 423.125 326.927 426.248 326.331C427.678 326.068 428.815 325.016 429.866 324.009L441.462 312.887L453.653 301.215C460.796 294.38 468.055 287.383 472.717 278.645C476.35 284.96 482.813 289.094 487.243 294.899C488.928 297.097 490.335 299.543 491.804 301.865C494.216 305.596 496.96 309.102 499.696 312.6L513.681 330.472C515.583 332.903 517.546 335.395 520.152 337.044C523.468 339.141 527.496 339.699 531.392 340.047C536.645 340.516 541.92 340.708 547.193 340.62C551.213 340.55 555.357 340.287 558.967 338.499C562.577 336.711 565.538 333.081 565.352 328.994C565.131 326.894 564.442 324.87 563.335 323.073C558.372 313.862 551.839 306.238 542.423 301.764Z" fill="#2F2E41"/>
<path d="M555.782 215.996C558.39 215.996 560.505 213.865 560.505 211.236C560.505 208.607 558.39 206.476 555.782 206.476C553.173 206.476 551.058 208.607 551.058 211.236C551.058 213.865 553.173 215.996 555.782 215.996Z" fill="#E8E8F0"/>
<path d="M554.738 207.66C555.8 209.779 555.987 212.231 555.256 214.487C554.525 216.712 553.504 218.83 552.218 220.787C551.112 222.807 549.787 224.7 548.268 226.43C555.558 226.786 562.631 223.922 569.063 220.447C574.242 217.66 579.406 214.208 582.205 208.991C581.382 209.191 580.527 209.214 579.694 209.061C578.862 208.908 578.071 208.581 577.373 208.101C575.985 207.131 574.741 205.968 573.678 204.649L570.014 200.523C569.154 199.627 568.399 198.635 567.764 197.567C566.97 196.105 566.633 194.439 566.798 192.783C565.344 194.309 563.717 195.66 561.951 196.808C559.338 198.511 556.454 199.749 553.834 201.452C552.906 202.048 550.834 203 551.368 204.231C551.901 205.462 554.019 206.36 554.738 207.66Z" fill="#FBBEBE"/>
<path opacity="0.1" d="M554.738 207.66C555.8 209.779 555.987 212.231 555.256 214.487C554.525 216.712 553.504 218.83 552.218 220.787C551.112 222.807 549.787 224.7 548.268 226.43C555.558 226.786 562.631 223.922 569.063 220.447C574.242 217.66 579.406 214.208 582.205 208.991C581.382 209.191 580.527 209.214 579.694 209.061C578.862 208.908 578.071 208.581 577.373 208.101C575.985 207.131 574.741 205.968 573.678 204.649L570.014 200.523C569.154 199.627 568.399 198.635 567.764 197.567C566.97 196.105 566.633 194.439 566.798 192.783C565.344 194.309 563.717 195.66 561.951 196.808C559.338 198.511 556.454 199.749 553.834 201.452C552.906 202.048 550.834 203 551.368 204.231C551.901 205.462 554.019 206.36 554.738 207.66Z" fill="black"/>
<path d="M554.839 208.38C553.47 210.702 553.177 213.411 554.839 215.516C555.047 215.779 555.813 217.405 556.145 217.42C556.467 217.388 556.765 217.236 556.98 216.994C558.75 215.377 560.072 213.31 561.618 211.476C563.164 209.641 565.136 207.977 567.501 207.606C570.354 207.164 573.114 208.674 575.611 210.137C576.697 210.667 577.644 211.443 578.378 212.405C578.905 213.357 579.216 214.414 579.29 215.501C580.149 222.01 580.133 228.605 580.11 235.168C580.11 239.921 580.11 244.696 579.182 249.356C578.718 251.771 578.023 254.132 577.69 256.562C577.452 258.708 577.356 260.867 577.404 263.025V272.065C577.342 273.724 577.458 275.385 577.752 277.019C578.177 279.001 579.113 280.827 579.739 282.755C580.385 284.97 580.828 287.239 581.061 289.535L582.298 298.893C582.684 301.842 582.97 305.085 581.192 307.407C580.419 308.475 579.329 309.334 578.517 310.402C575.425 314.381 576.438 320.07 575.162 324.938C574.159 328.502 572.093 331.675 569.241 334.033C567.053 335.891 564.231 337.346 561.425 336.827C557.629 336.123 555.349 332.183 554.313 328.414C553.277 324.644 552.906 320.596 550.664 317.438C548.832 314.853 546.026 313.227 543.428 311.385C540.831 309.543 538.357 307.167 537.8 304.04C537.553 302.678 537.708 301.277 537.561 299.899C537.359 298.153 536.691 296.493 535.627 295.094C534.563 293.696 533.143 292.609 531.516 291.95C529.575 291.176 527.179 290.92 526.104 289.14C528.934 287.546 530.804 284.597 531.794 281.493C532.783 278.389 532.984 275.092 533.178 271.841L533.827 260.966C534.113 256.105 534.244 251.291 536.386 246.925C537.337 244.967 538.527 243.141 539.524 241.213C540.84 238.501 541.963 235.7 542.887 232.831C544.433 228.372 545.979 223.914 547.371 219.402C547.925 217.222 548.751 215.121 549.829 213.148C550.927 211.259 552.643 208.79 554.839 208.38Z" fill="#FF7171"/>
<path d="M530.719 279.031L533.595 279.132L534.206 274.79C534.284 273.919 534.487 273.064 534.809 272.251C535.285 271.394 535.839 270.583 536.463 269.828C539.292 265.827 539.084 260.54 539.787 255.656C540.723 249.17 543.428 243.102 546.103 237.134L551.7 224.68C552.808 222.565 553.342 220.194 553.246 217.807C553.3 215.88 553.865 208.883 553.919 206.971C553.919 206.259 552.373 206.654 552.025 206.019C551.329 204.633 550.37 208.387 549.064 209.208C547.757 210.028 547.031 211.53 546.482 212.97C545.276 216.104 544.542 219.402 543.39 222.567C542.238 225.733 540.707 228.844 538.179 231.081C537.035 232.088 535.721 232.877 534.639 233.953C531.168 237.39 530.828 242.815 530.704 247.715C530.642 250.587 530.054 279.031 530.719 279.031Z" fill="#2F2E41"/>
<path d="M572.093 203.186C569.303 204.285 567.772 207.319 566.991 210.23C566.21 213.14 565.886 216.251 564.386 218.86C560.876 224.967 551.94 226.747 549.474 233.349C548.701 235.509 548.701 237.877 548.476 240.176C548.028 244.905 546.474 249.464 546.018 254.201C545.775 257.875 545.86 261.564 546.273 265.223L549.365 302.523C549.821 307.941 549.806 313.692 548.43 318.924C551.592 319.536 554.885 318.715 557.815 317.376C560.745 316.037 563.427 314.195 566.249 312.639C571.104 309.953 576.461 308.057 580.713 304.481C581.484 303.881 582.143 303.15 582.661 302.322C583.511 300.851 583.589 299.063 583.991 297.407C584.357 296.083 584.825 294.789 585.39 293.537C586.947 289.777 588.305 285.938 589.456 282.035C590.247 279.446 590.869 276.809 591.319 274.14C591.659 272.019 591.845 269.867 592.03 267.723C592.257 264.364 592.922 261.049 594.009 257.862C596.726 250.267 598.267 242.301 598.578 234.239C598.666 233.075 598.585 231.905 598.339 230.764C597.862 229.381 597.229 228.056 596.452 226.817C595.154 224.371 594.373 221.677 593.151 219.185C590.384 213.573 585.49 209.308 580.373 205.74C577.884 203.999 574.946 202.071 572.093 203.186Z" fill="#2F2E41"/>
<path d="M506.793 264.039C504.573 262.872 502.564 261.342 500.848 259.511C500.075 258.598 499.426 257.568 498.63 256.67C496.623 254.523 494.014 253.034 491.146 252.398C488.302 251.772 485.392 251.489 482.481 251.554C480.532 251.43 478.577 251.666 476.713 252.251C475.781 252.556 474.942 253.093 474.274 253.812C473.606 254.531 473.131 255.408 472.895 256.361C472.469 258.683 473.985 260.935 475.801 262.429C477.493 263.811 479.484 264.778 481.615 265.254C483.352 265.555 485.104 265.759 486.864 265.866C497.207 266.949 506.438 272.584 515.467 277.716C523.429 282.231 531.544 286.447 539.81 290.363C540.136 287.882 540.273 285.38 540.22 282.878C540.174 281.013 540.081 278.165 538.318 277.066C536.27 275.788 532.907 275.518 530.588 274.743C525.26 272.994 520.055 270.887 515.011 268.435C512.223 267.068 509.483 265.602 506.793 264.039Z" fill="#FBBEBE"/>
<path d="M570.31 192.104C572.912 182.194 567.041 172.06 557.197 169.469C547.353 166.878 537.264 172.811 534.662 182.721C532.06 192.631 537.93 202.765 547.774 205.356C557.618 207.947 567.708 202.014 570.31 192.104Z" fill="#FBBEBE"/>
<path d="M577.366 224.224C575.719 226.143 574.892 228.62 573.786 230.896C571.514 235.586 567.942 239.611 566.156 244.518C564.27 249.689 564.332 255.834 560.637 259.898C559.995 260.602 559.222 261.283 559.036 262.22C559.011 262.789 558.946 263.355 558.843 263.915C558.317 265.386 555.905 265.463 555.457 266.965C555.326 267.406 555.395 267.886 555.233 268.319C554.862 269.287 553.586 269.434 552.728 270.022C550.935 271.237 551.298 274.055 550.023 275.812C549.463 276.469 548.737 276.965 547.922 277.248C547.107 277.531 546.23 277.591 545.384 277.422C543.709 277.077 542.097 276.474 540.607 275.634C540.077 275.339 539.493 275.157 538.89 275.1C538.176 275.122 537.485 275.357 536.904 275.773C533.502 277.94 531.902 282.236 531.925 286.292C531.948 290.348 533.34 294.249 534.762 298.041C534.959 298.681 535.28 299.275 535.705 299.791C536.834 300.983 538.798 300.797 540.297 300.131C541.797 299.465 543.158 298.421 544.766 298.126C547.618 297.608 550.409 299.574 553.269 299.411C555.388 299.287 557.266 298.057 559.021 296.865C561.835 294.961 564.695 292.995 566.751 290.301C568.019 288.645 568.947 286.764 570.052 284.991C571.467 282.832 573.016 280.764 574.691 278.799L585.313 265.78C586.379 264.548 587.336 263.224 588.173 261.825C589.14 259.936 589.887 257.941 590.399 255.881C591.412 252.405 592.432 248.915 592.602 245.285C592.662 242.306 592.402 239.33 591.829 236.407C591.463 233.493 590.682 230.647 589.51 227.954C587.323 223.125 581.702 219.154 577.366 224.224Z" fill="#2F2E41"/>
<path d="M609.494 215.942C610.344 212.765 610.429 209.431 609.741 206.215C609.053 202.999 607.612 199.992 605.536 197.443C608.357 185.391 602.212 173.325 591.389 168.859C591.775 157.558 584.625 147.186 573.609 144.276C562.16 141.265 550.417 147.318 545.477 158.077C538.519 154.462 531.16 154.849 528.733 159.098C526.197 163.541 530.008 170.53 537.236 174.702C539.514 176.035 542.008 176.96 544.603 177.435C545.718 180.592 547.481 183.48 549.777 185.914C552.074 188.348 554.854 190.274 557.939 191.568C557.748 196.137 558.834 200.669 561.073 204.654C563.313 208.64 566.618 211.921 570.617 214.131C571.054 217.307 572.227 220.336 574.041 222.978C573.829 223.532 573.648 224.098 573.5 224.673C571.228 233.303 576.144 242.08 584.47 244.271C592.796 246.461 601.392 241.244 603.657 232.614C604.266 230.313 604.372 227.908 603.966 225.563C606.638 222.911 608.548 219.587 609.494 215.942Z" fill="#3F3D56"/>
<path opacity="0.1" d="M533.502 161.343C535.93 157.094 543.281 156.699 550.247 160.321C555.171 149.562 566.929 143.502 578.378 146.521C578.896 146.652 579.406 146.815 579.924 146.985C577.966 145.776 575.841 144.863 573.616 144.276C562.167 141.265 550.425 147.318 545.485 158.077C538.527 154.462 531.168 154.849 528.74 159.098C526.205 163.541 530.016 170.53 537.244 174.702C538.6 175.484 540.03 176.132 541.511 176.637C534.6 172.411 531.029 165.677 533.502 161.343Z" fill="black"/>
<path opacity="0.1" d="M578.278 226.917C578.426 226.342 578.606 225.776 578.819 225.222C577.004 222.578 575.831 219.546 575.394 216.368C571.395 214.16 568.09 210.88 565.851 206.896C563.611 202.912 562.525 198.381 562.716 193.813C559.631 192.519 556.851 190.593 554.555 188.159C552.258 185.725 550.496 182.836 549.381 179.679C547.867 179.409 546.387 178.976 544.967 178.387C546.147 181.332 547.902 184.012 550.128 186.271C552.353 188.53 555.006 190.323 557.931 191.545C557.741 196.114 558.826 200.646 561.066 204.631C563.305 208.617 566.61 211.898 570.609 214.107C571.046 217.283 572.219 220.313 574.034 222.954C573.821 223.509 573.64 224.074 573.493 224.649C571.227 233.249 576.106 241.995 584.385 244.224C581.731 242.303 579.724 239.617 578.633 236.525C577.542 233.433 577.418 230.082 578.278 226.917Z" fill="black"/>
<path d="M560.435 193.798C561.682 192.849 561.666 190.725 560.398 189.053C559.13 187.382 557.09 186.796 555.843 187.745C554.595 188.694 554.611 190.818 555.879 192.49C557.147 194.161 559.187 194.747 560.435 193.798Z" fill="#FBBEBE"/>
<path d="M333.806 30.4496C340.761 30.4496 346.399 24.8045 346.399 17.841C346.399 10.8774 340.761 5.2323 333.806 5.2323C326.851 5.2323 321.213 10.8774 321.213 17.841C321.213 24.8045 326.851 30.4496 333.806 30.4496Z" fill="#3F3D56"/>
<path d="M361.134 91.6431C380.641 91.6431 396.455 71.1281 396.455 45.8215C396.455 20.515 380.641 0 361.134 0C341.626 0 325.813 20.515 325.813 45.8215C325.813 71.1281 341.626 91.6431 361.134 91.6431Z" fill="#3F3D56"/>
<path opacity="0.1" d="M361.134 77.8037C343.438 77.8037 328.781 60.9225 326.207 38.9019C325.939 41.1987 325.805 43.5091 325.805 45.8215C325.805 71.124 341.622 91.6431 361.134 91.6431C380.646 91.6431 396.455 71.124 396.455 45.8215C396.455 43.5091 396.321 41.1987 396.053 38.9019C393.486 60.9535 378.829 77.8037 361.134 77.8037Z" fill="black"/>
<path d="M436.399 180.02C435.626 183.116 432.371 185.639 428.753 187.381C421.131 191.057 411.746 192.149 402.631 192.52C400.312 192.661 397.986 192.617 395.674 192.389C390.904 191.824 386.482 189.788 383.722 186.885C383.329 186.568 383.056 186.126 382.949 185.631C382.969 185.335 383.047 185.045 383.18 184.779C383.313 184.513 383.497 184.277 383.722 184.083C388.585 178.774 396.687 175.507 404.819 173.185C411.004 171.397 421.78 166.769 428.529 167.396C435.084 167.961 437.357 176.072 436.399 180.02Z" fill="#3F3D56"/>
<path opacity="0.1" d="M436.399 180.02C435.626 183.116 432.371 185.639 428.753 187.381C421.131 191.057 411.746 192.149 402.631 192.52C400.312 192.661 397.986 192.617 395.674 192.389C390.904 191.824 386.482 189.788 383.722 186.885C383.329 186.568 383.056 186.126 382.949 185.631C382.969 185.335 383.047 185.045 383.18 184.779C383.313 184.513 383.497 184.277 383.722 184.083C388.585 178.774 396.687 175.507 404.819 173.185C411.004 171.397 421.78 166.769 428.529 167.396C435.084 167.961 437.357 176.072 436.399 180.02Z" fill="black"/>
<path d="M339.565 156.691C337.247 161.245 336.827 166.534 338.398 171.397C340 176.234 343 180.485 347.018 183.611C356.89 191.545 370.434 192.636 383.058 192.536C394.127 192.436 405.181 191.676 416.16 190.26C419.817 189.788 423.512 189.231 426.898 187.768C431.018 185.98 434.628 182.706 436.105 178.48C437.581 174.253 436.538 169.021 433.013 166.188C429.92 163.696 425.723 163.355 421.788 163.092L399.253 161.738C401.48 159.478 404.44 158.2 407.154 156.567C410.749 154.385 413.137 150.731 415.758 147.442C419.623 142.519 424.262 138.215 428.9 133.935C429.673 138.146 432.294 141.606 435.425 144.516C438.555 147.426 442.166 149.764 445.428 152.527C453.313 159.23 458.987 168.332 467.282 174.524C472.989 173.022 478.324 170.355 482.952 166.691L479.729 160.848C479.464 160.235 479.046 159.702 478.515 159.3C477.595 158.742 476.42 159.029 475.361 158.874C472.531 158.448 471.294 155.174 470.181 152.535C467.135 145.274 461.291 139.647 456.266 133.564C452.601 129.079 449.354 124.267 446.564 119.19C444.887 116.164 443.356 112.998 441.076 110.39C438.795 107.781 435.618 105.746 432.155 105.746C429.062 105.746 426.279 107.294 423.651 108.842C415.644 113.605 407.94 118.86 400.583 124.577C396.718 127.565 392.906 130.731 388.392 132.565C386.49 133.339 384.526 133.865 382.663 134.802C379.471 136.451 377.043 139.237 374.43 141.706C365.123 150.522 352.375 156.234 339.565 156.691Z" fill="#605D82"/>
<path d="M386.691 93.9187C386.591 96.6165 386.018 99.2757 384.998 101.775C384.482 103.017 383.716 104.138 382.748 105.071C381.779 106.003 380.63 106.725 379.37 107.193C377.579 107.674 375.7 107.735 373.881 107.371C372.292 107.199 370.762 106.67 369.405 105.823C367.295 104.368 366.244 101.775 365.857 99.2361C365.471 96.6974 365.648 94.1045 365.401 91.5502C365.16 89.4858 364.767 87.442 364.226 85.4355C364.064 84.7699 363.894 84.1042 363.723 83.4385C363.553 82.7729 363.407 82.1073 363.26 81.4416C363.113 80.776 362.997 80.1955 362.889 79.5608C362.78 78.9261 362.718 78.4926 362.664 77.9585C362.615 76.3626 362.355 74.7802 361.891 73.2526C361.451 72.2636 360.899 71.3286 360.245 70.4661C359.966 70.0636 359.696 69.6921 359.472 69.2509C358.752 68.1726 358.417 66.8826 358.521 65.5898C358.55 65.3894 358.6 65.1924 358.668 65.0016C358.691 64.9276 358.72 64.8552 358.753 64.7849C359.028 64.7091 359.281 64.5673 359.49 64.3718C359.699 64.1763 359.857 63.9329 359.951 63.6625C360.057 63.0792 360.006 62.4783 359.804 61.921C359.577 61.1427 359.263 60.3924 358.869 59.6841C358.614 59.2197 357.74 58.376 357.732 57.842C357.732 56.7661 359.82 55.8992 360.67 55.4735C363.268 54.1689 366.165 53.5812 369.065 53.7707C370.921 53.8945 372.931 54.4673 373.959 56.0308C374.886 57.4317 374.732 59.2507 375.157 60.8838C375.193 61.1223 375.291 61.3468 375.443 61.534C375.645 61.7178 375.899 61.8341 376.17 61.8668C376.623 61.9583 377.087 61.9766 377.546 61.921C377.668 61.9144 377.79 61.8962 377.909 61.8668C378.624 61.7345 379.3 61.4436 379.888 61.0154C380.275 60.9071 380.661 60.8297 381.04 60.76H381.086C382.632 65.6208 382.826 70.8222 384.086 75.7913C384.712 78.2527 385.632 80.6831 385.732 83.2218C385.732 83.3302 385.732 83.4463 385.732 83.5547C385.732 84.3751 385.686 85.1956 385.732 86.0083C385.746 86.3721 385.788 86.7343 385.856 87.0919C385.996 87.6682 386.166 88.2367 386.366 88.7947C386.42 88.9727 386.475 89.1508 386.521 89.3365C386.559 89.4663 386.59 89.5981 386.614 89.7313C386.84 91.1161 386.866 92.5264 386.691 93.9187Z" fill="#FBBEBE"/>
<path d="M365.138 62.1223C375.146 62.1223 383.259 53.9994 383.259 43.9794C383.259 33.9594 375.146 25.8365 365.138 25.8365C355.13 25.8365 347.018 33.9594 347.018 43.9794C347.018 53.9994 355.13 62.1223 365.138 62.1223Z" fill="#FBBEBE"/>
<path d="M480.192 142.836C479.664 137.891 477.907 133.157 475.082 129.067L476.497 137.465C475.91 137.633 475.287 137.627 474.704 137.447C474.12 137.267 473.602 136.921 473.212 136.451C472.447 135.496 471.863 134.41 471.488 133.246C469.429 128.13 466.735 123.293 463.471 118.85C451.937 117.882 440.527 113.099 430.384 107.51C420.242 101.922 410.741 95.2423 400.722 89.4294C398.985 88.3806 397.177 87.4546 395.311 86.6584C392.18 85.4045 388.662 84.7544 385.694 83.276L385.099 82.9587C384.426 82.5973 383.789 82.1722 383.197 81.6893C382.879 81.4264 382.577 81.1447 382.292 80.8456C380.81 79.1211 379.633 77.1551 378.814 75.0328C377.221 71.5033 376.649 67.2385 375.064 63.709C375.795 63.0275 376.614 62.447 377.499 61.9829L377.886 61.7894C378.516 61.495 379.17 61.2567 379.842 61.0773C380.228 60.969 380.615 60.8916 380.994 60.8219H381.04C382.837 60.532 384.676 60.678 386.405 61.2476C388.925 62.1068 391.043 63.8096 393.177 65.4273C396.54 67.9738 400.034 70.3732 403.088 73.2913C404.835 74.9709 406.435 76.813 408.313 78.3378C409.88 79.5484 411.53 80.6451 413.253 81.6196L443.82 99.8476C447.268 101.899 450.723 103.958 454.094 106.14C459.219 109.445 464.144 113.029 469.091 116.613L477.819 122.944C478.775 123.565 479.613 124.351 480.293 125.266C480.891 126.292 481.263 127.435 481.383 128.618C482.108 133.385 481.7 138.256 480.192 142.836Z" fill="#FBBEBE"/>
<path d="M391.19 107.565C389.961 113.052 384.426 116.373 381.527 121.195C377.925 127.178 379.393 134.136 380.754 140.994L373.34 147.387C371.98 148.556 370.611 149.71 369.15 150.77C367.007 152.212 364.768 153.505 362.448 154.64L355.892 158.015C353.859 159.159 351.704 160.073 349.468 160.739C345.155 161.846 340.578 161.072 336.326 159.795C335.823 159.664 335.34 159.466 334.888 159.207C334.623 159.047 334.392 158.837 334.208 158.587C333.784 157.833 333.632 156.956 333.775 156.103C334.208 148.92 335.963 141.884 337.71 134.903C338.628 130.71 339.871 126.595 341.428 122.596C342.962 119.172 344.726 115.857 346.708 112.673C349.028 108.749 351.347 104.794 354.439 101.427C355.761 99.9715 357.237 98.5937 358.026 96.7826C359.116 94.2902 358.691 91.4341 358.915 88.7251C359.082 86.6857 359.622 84.6944 360.508 82.8503C360.981 81.8578 361.551 80.9142 362.208 80.0329C362.51 80.7295 362.804 81.4261 363.105 82.115L363.685 83.4773C363.94 84.0578 364.187 84.646 364.458 85.2265C365.179 86.8881 365.896 88.5522 366.607 90.2189C367.374 92.3183 368.473 94.2809 369.862 96.0318C371.338 97.7036 373.51 98.9188 375.721 98.6789C376.76 98.5055 377.746 98.103 378.61 97.5006C379.474 96.8981 380.193 96.1109 380.715 95.1958C381.751 93.3629 382.499 91.3815 382.934 89.3211C383.543 86.8138 383.627 84.2075 383.181 81.6661C382.408 76.7666 380.36 71.7665 378.852 67.2153C378.237 65.6989 377.882 64.0897 377.801 62.4551C377.8 62.2705 377.818 62.0863 377.855 61.9055V61.7662C378.485 61.4718 379.139 61.2335 379.811 61.0541C380.197 60.9458 380.584 60.8684 380.963 60.7987C382.292 68.0228 383.625 75.2314 384.959 82.4246C384.959 82.5949 385.029 82.7652 385.06 82.9355C385.245 83.9726 385.439 85.0021 385.655 86.0315C385.872 87.0609 386.057 87.8969 386.289 88.818C386.366 89.1276 386.451 89.4449 386.536 89.7545C386.776 90.6059 387.039 91.4419 387.309 92.2778C389.196 97.3321 392.342 102.371 391.19 107.565Z" fill="#FF7171"/>
<path d="M464.739 184.71C464.672 185.776 464.877 186.842 465.334 187.806C466.463 189.881 469.199 190.353 471.519 190.546C485.275 191.682 499.115 191.261 512.777 189.293C513.519 189.238 514.238 189.013 514.879 188.635C516.82 187.272 515.652 183.952 513.503 182.884C511.354 181.816 508.865 182.11 506.546 181.622C504.233 181.036 502.029 180.08 500.021 178.789C495.306 176.075 490.667 173.237 486.106 170.275C483.377 168.518 480.154 166.645 477.085 167.69C468.743 170.507 464.677 175.724 464.739 184.71Z" fill="#2F2E41"/>
<path d="M363.329 81.0778L363.26 81.4571L363.144 82.0918C362.765 84.0423 362.293 85.9618 361.76 87.9201C360.283 93.253 358.312 98.5086 356.348 103.679L340.57 145.321C339.241 148.819 337.919 152.287 336.411 155.739C335.909 156.877 335.391 158.061 334.865 159.191C333.018 163.348 331.24 167.643 330.652 172.078C330.266 175.012 329.879 178.007 330.459 180.91C331.039 183.813 332.778 186.653 335.569 187.721C336.914 188.248 338.839 188.952 338.468 190.353C338.274 191.127 337.401 191.498 336.612 191.622C335.578 191.789 334.52 191.725 333.514 191.435C332.508 191.145 331.578 190.635 330.791 189.943C329.322 188.642 328.186 186.607 326.23 186.39C324.877 186.243 323.633 187.056 322.365 187.621C317.301 189.943 311.411 188.317 306.092 186.669C306.509 184.517 308.674 183.093 310.815 182.667C312.957 182.241 315.183 182.535 317.379 182.481C318.081 182.518 318.777 182.337 319.373 181.963C319.911 181.481 320.296 180.851 320.479 180.151C321.887 175.966 322.935 171.667 323.61 167.303C324.321 162.736 324.614 158.108 325.619 153.603C326.393 150.089 327.614 146.683 328.65 143.231C330.661 136.126 332.31 128.924 333.59 121.652C334.238 118.633 334.703 115.578 334.981 112.503C335.159 109.949 335.074 107.379 335.321 104.84C335.732 101.532 336.42 98.2645 337.378 95.072C338.321 91.5812 339.256 88.1059 340.199 84.6228C341.591 79.4679 343.083 74.1195 346.608 70.1178C347.832 68.7074 349.332 67.5639 351.015 66.7583C352.699 65.9528 354.53 65.5023 356.395 65.435C357.094 65.4318 357.792 65.5071 358.474 65.6595L358.815 65.7446C359.561 65.9372 360.277 66.2342 360.94 66.627C362.03 65.9304 362.579 66.1781 363.306 67.2385C363.937 68.3709 364.234 69.659 364.164 70.9537C364.22 74.3477 363.94 77.7389 363.329 81.0778Z" fill="#FBBEBE"/>
<path d="M364.52 85.1878L364.473 85.2343L364.226 85.482L361.76 87.9511L360.546 82.8581L356.395 65.4118C357.094 65.4086 357.792 65.4839 358.474 65.6363C358.504 65.4359 358.553 65.2388 358.621 65.048L358.815 65.7214L360.222 70.5126L362.889 79.6072L363.329 81.1088L364.52 85.1878Z" fill="#FF7171"/>
<path d="M378.365 17.2218H357.601C352.477 17.2218 348.324 21.3802 348.324 26.51V32.5395C348.324 37.6692 352.477 41.8277 357.601 41.8277H378.365C383.489 41.8277 387.642 37.6692 387.642 32.5395V26.51C387.642 21.3802 383.489 17.2218 378.365 17.2218Z" fill="#3F3D56"/>
<path d="M389.938 30.4496C396.893 30.4496 402.531 24.8045 402.531 17.841C402.531 10.8774 396.893 5.2323 389.938 5.2323C382.983 5.2323 377.345 10.8774 377.345 17.841C377.345 24.8045 382.983 30.4496 389.938 30.4496Z" fill="#3F3D56"/>
<path opacity="0.1" d="M389.636 5.22457H389.173C392.416 5.36403 395.48 6.75217 397.726 9.09931C399.972 11.4465 401.225 14.5713 401.225 17.8216C401.225 21.072 399.972 24.1968 397.726 26.5439C395.48 28.8911 392.416 30.2792 389.173 30.4187H389.636C392.976 30.4187 396.179 29.0903 398.541 26.7257C400.903 24.3611 402.229 21.154 402.229 17.81C402.229 14.466 400.903 11.2589 398.541 8.89434C396.179 6.52976 392.976 5.20136 389.636 5.20135V5.22457Z" fill="black"/>
<path opacity="0.1" d="M333.806 5.22457H334.27C331.027 5.36403 327.962 6.75217 325.717 9.09931C323.471 11.4465 322.217 14.5713 322.217 17.8216C322.217 21.072 323.471 24.1968 325.717 26.5439C327.962 28.8911 331.027 30.2792 334.27 30.4187H333.806C332.152 30.4187 330.515 30.0926 328.987 29.4589C327.459 28.8253 326.071 27.8965 324.901 26.7257C323.732 25.5549 322.804 24.1649 322.172 22.6351C321.539 21.1054 321.213 19.4658 321.213 17.81C321.213 16.1542 321.539 14.5146 322.172 12.9849C322.804 11.4551 323.732 10.0652 324.901 8.89434C326.071 7.72352 327.459 6.79478 328.987 6.16113C330.515 5.52749 332.152 5.20135 333.806 5.20135V5.22457Z" fill="black"/>
<path opacity="0.1" d="M388.028 39.3586H356.117C355.14 39.3586 354.203 38.9706 353.512 38.2799C352.821 37.5892 352.431 36.6521 352.429 35.6743V38.1279C352.431 39.1064 352.82 40.0443 353.511 40.7363C354.202 41.4282 355.139 41.8179 356.117 41.8199H388.059C389.037 41.8179 389.973 41.4282 390.665 40.7363C391.356 40.0443 391.745 39.1064 391.747 38.1279V35.6743C391.745 36.1608 391.647 36.6421 391.459 37.0907C391.271 37.5393 390.996 37.9464 390.651 38.2886C390.305 38.6308 389.896 38.9015 389.446 39.0851C388.996 39.2687 388.514 39.3616 388.028 39.3586Z" fill="black"/>
<path d="M496.287 168.425C496.287 168.425 498.282 168.773 498.607 167.156C498.769 166.382 498.22 161.413 497.594 156.443C497.292 153.998 496.968 151.559 496.705 149.609C496.388 147.217 496.156 145.569 496.156 145.569L495.793 144.361L493.643 137.132L491.618 130.32L490.126 127.642L479.388 132.875L472.709 144.431L474.781 145.739L475.144 145.971L478.955 149.965L489.639 161.188L494.447 166.242L495.012 166.831L496.287 168.425Z" fill="#FFE09C"/>
<path d="M487.846 123.045C487.846 123.045 476.08 128.571 473.25 134.578C473.25 134.578 470.606 139.632 470.274 142.318C470.274 142.318 469.501 144.771 474.379 145.375C474.379 145.375 476.598 136.358 483.254 132.441L489.917 128.533L487.846 123.045Z" fill="#E7C4C3"/>
<path d="M490.911 136.918C491.485 134.774 490.48 132.642 488.666 132.155C486.852 131.668 484.917 133.011 484.343 135.155C483.769 137.299 484.774 139.432 486.588 139.918C488.402 140.405 490.338 139.062 490.911 136.918Z" fill="#FF7F8E"/>
<path d="M489.635 150.932C490.203 148.796 489.199 146.674 487.392 146.192C485.585 145.71 483.659 147.05 483.091 149.186C482.523 151.321 483.527 153.443 485.334 153.925C487.141 154.408 489.067 153.067 489.635 150.932Z" fill="#FF7F8E"/>
<path d="M478.955 149.965C479.572 149.714 480.12 149.32 480.554 148.816C480.988 148.311 481.296 147.71 481.452 147.062C482.024 144.926 481.019 142.798 479.21 142.318C477.402 141.838 475.477 143.177 474.912 145.313C474.868 145.457 474.834 145.605 474.812 145.754L475.175 145.986L478.955 149.965Z" fill="#FF7F8E"/>
<path d="M493.326 144.802C493.75 144.91 494.192 144.926 494.622 144.85C495.053 144.774 495.462 144.607 495.823 144.361L493.674 137.132C493.034 137.37 492.462 137.762 492.009 138.273C491.556 138.785 491.236 139.4 491.077 140.065C490.513 142.225 491.518 144.322 493.326 144.802Z" fill="#FF7F8E"/>
<path d="M494.571 157.31C495.112 157.438 495.676 157.425 496.21 157.274C496.745 157.122 497.232 156.836 497.625 156.443C497.323 153.998 496.999 151.559 496.736 149.609H496.635C494.826 149.121 492.901 150.468 492.329 152.604C491.757 154.741 492.77 156.83 494.571 157.31Z" fill="#FF7F8E"/>
<path d="M494.447 166.219C494.669 165.844 494.838 165.441 494.95 165.019C495.522 162.883 494.517 160.762 492.708 160.282C492.16 160.15 491.588 160.161 491.046 160.316C490.504 160.47 490.011 160.763 489.616 161.165L494.447 166.219Z" fill="#FF7F8E"/>
<path d="M489.137 133.85L490.373 134.183C489.887 135.078 489.6 136.068 489.531 137.085C489.527 137.152 489.527 137.22 489.531 137.287C489.693 138.564 488.294 136.954 488.294 136.954C488.294 136.954 488.534 134.33 489.137 133.85Z" fill="#94CC79"/>
<path d="M483.501 141.838L484.746 142.171C484.255 143.062 483.968 144.05 483.903 145.065C483.899 145.132 483.899 145.2 483.903 145.267C484.065 146.544 482.666 144.934 482.666 144.934C482.666 144.934 482.898 142.31 483.501 141.838Z" fill="#94CC79"/>
<path d="M487.351 144.477L488.588 144.802C488.102 145.698 487.814 146.688 487.745 147.705C487.741 147.772 487.741 147.839 487.745 147.906C487.915 149.183 486.508 147.573 486.508 147.573C486.508 147.573 486.763 144.949 487.351 144.477Z" fill="#94CC79"/>
<path d="M492.298 151.141L493.543 151.467C493.053 152.361 492.766 153.351 492.7 154.369C492.697 154.436 492.697 154.503 492.7 154.57C492.863 155.847 491.464 154.237 491.464 154.237C491.464 154.237 491.703 151.614 492.298 151.141Z" fill="#94CC79"/>
<path d="M495.383 162.109L496.62 162.442C496.135 163.335 495.847 164.323 495.777 165.337C495.773 165.404 495.773 165.471 495.777 165.538C495.947 166.815 494.54 165.213 494.54 165.213C494.54 165.213 494.78 162.581 495.383 162.109Z" fill="#94CC79"/>
<path d="M488.673 154.439L489.91 154.772C489.421 155.676 489.138 156.678 489.082 157.705C489.078 157.772 489.078 157.839 489.082 157.906C489.245 159.183 487.846 157.581 487.846 157.581C487.846 157.581 488.077 154.911 488.673 154.439Z" fill="#94CC79"/>
<path d="M491.672 124.066C491.672 124.066 489.902 120.049 487.807 123.045C487.983 125.477 488.782 127.822 490.126 129.856C490.126 129.856 496.535 147.31 496.001 149.98C496.001 149.98 498.529 166.838 497.903 167.783C497.903 167.783 498.599 168.975 499.094 164.493C499.588 160.012 497.416 146.846 497.416 146.846L494.239 133.161L492.113 128.517L491.672 124.066Z" fill="#E7C4C3"/>
<path opacity="0.2" d="M491.672 124.066C491.672 124.066 489.902 120.049 487.807 123.045C487.983 125.477 488.782 127.822 490.126 129.856C490.126 129.856 496.535 147.31 496.001 149.98C496.001 149.98 498.529 166.838 497.903 167.783C497.903 167.783 498.599 168.975 499.094 164.493C499.588 160.012 497.416 146.846 497.416 146.846L494.239 133.161L492.113 128.517L491.672 124.066Z" fill="white"/>
<path d="M470.413 130.723C470.413 130.723 473.59 139.887 476.497 137.449L474.178 125.475L470.413 130.723Z" fill="#FBBEBE"/>
<path d="M253.107 168.363C253.107 168.363 281.13 215.632 287.678 221.948C287.678 221.948 315.678 251.051 301.446 249.039C300.402 248.892 279.909 231.546 278.71 228.698C277.512 225.849 238.766 175.453 238.766 175.453L244.294 170.36L253.107 168.363Z" fill="#A0616A"/>
<path opacity="0.1" d="M253.107 168.363C253.107 168.363 281.13 215.632 287.678 221.948C287.678 221.948 315.678 251.051 301.446 249.039C300.402 248.892 279.909 231.546 278.71 228.698C277.512 225.849 238.766 175.453 238.766 175.453L244.294 170.36L253.107 168.363Z" fill="black"/>
<path d="M278.734 322.74C278.734 322.74 269.766 333.963 273.508 338.453C277.249 342.942 295.888 351.526 301.902 351.17C308.257 350.798 329.554 351.944 330.304 342.191C330.304 342.191 331.796 337.702 312.369 336.951C292.942 336.2 298.91 315.998 298.91 315.998L278.734 322.74Z" fill="#2F2E41"/>
<path d="M171.866 227.707C171.866 227.707 162.899 258.381 189.801 263.621L218.945 262.127C218.945 262.127 260.049 253.892 271.266 259.883C271.266 259.883 275.75 260.657 274.25 266.616C272.75 272.576 276.492 313.011 276.492 313.011V326.479C276.492 326.479 301.902 326.479 304.894 323.483C304.894 323.483 302.652 311.509 304.894 301.811C307.136 292.112 301.16 261.4 301.16 261.4L300.565 242.97C300.519 240.687 299.867 238.456 298.676 236.508C297.484 234.56 295.796 232.965 293.785 231.886C292.372 231.137 290.8 230.737 289.201 230.718C289.201 230.718 238.38 222.49 220.445 223.984C202.51 225.478 171.866 227.707 171.866 227.707Z" fill="#605D82"/>
<path d="M221.937 129.678C221.937 129.678 235.388 145.39 236.88 150.631C238.372 155.871 254.846 169.315 254.846 169.315C254.846 169.315 242.887 178.294 245.129 182.783C247.371 187.272 229.436 167.821 229.436 167.821L208.463 137.163L221.937 129.678Z" fill="#FFB6B6"/>
<path opacity="0.1" d="M221.937 129.678C221.937 129.678 235.388 145.39 236.88 150.631C238.372 155.871 254.846 169.315 254.846 169.315C254.846 169.315 242.887 178.294 245.129 182.783C247.371 187.272 229.436 167.821 229.436 167.821L208.463 137.163L221.937 129.678Z" fill="#FF7171"/>
<path d="M230.881 111.721C230.881 111.721 224.156 133.393 224.156 141.652C224.156 149.911 195.754 139.407 196.503 134.918C197.253 130.429 212.946 113.966 213.696 107.232C214.446 100.498 230.881 111.721 230.881 111.721Z" fill="#A0616A"/>
<path opacity="0.1" d="M208.463 126.683C208.463 126.683 182.302 119.949 178.569 158.115C174.835 196.282 181.553 200.763 170.343 223.96C159.134 247.158 246.574 226.956 246.574 226.956C246.574 226.956 242.091 221.716 227.89 223.96L221.164 203.759C221.164 203.759 218.922 194.78 231.631 194.78C244.34 194.78 238.357 168.588 238.357 168.588C238.357 168.588 231.631 146.141 227.89 143.897C224.148 141.652 217.453 128.184 208.463 126.683Z" fill="black"/>
<path d="M208.463 125.197C208.463 125.197 182.302 118.463 178.569 156.621C174.835 194.78 181.553 199.277 170.343 222.474C159.134 245.672 246.574 225.47 246.574 225.47C246.574 225.47 242.091 220.23 227.89 222.474L221.164 202.273C221.164 202.273 218.945 193.31 231.654 193.31C244.363 193.31 238.38 167.117 238.38 167.117C238.38 167.117 231.654 144.671 227.913 142.426C224.171 140.181 217.453 126.683 208.463 125.197Z" fill="#FF7171"/>
<path d="M224.179 125.189C237.799 125.189 248.839 114.134 248.839 100.498C248.839 86.8613 237.799 75.8068 224.179 75.8068C210.559 75.8068 199.518 86.8613 199.518 100.498C199.518 114.134 210.559 125.189 224.179 125.189Z" fill="#A0616A"/>
<path d="M219.417 226.925L281.393 264.016L339.055 210.222L270.315 186.251L220.847 219.967L219.417 226.925Z" fill="#DADAE5"/>
<path d="M292.556 123.099L273.268 180.531L337.215 198.944L364.512 121.28L292.556 123.099Z" fill="#DADAE5"/>
<path opacity="0.03" d="M287.407 118.857L292.641 123.649L364.597 121.83L366.251 117.124L287.407 118.857Z" fill="black"/>
<path opacity="0.03" d="M268.413 177.226L287.407 118.857L292.641 123.648L273.84 179.641L268.413 177.226Z" fill="black"/>
<path d="M287.322 118.308L292.556 123.099L364.512 121.28L366.166 116.574L287.322 118.308Z" fill="#EFF0F4"/>
<path d="M268.328 176.684L287.322 118.308L292.556 123.099L273.755 179.091L268.328 176.684Z" fill="#EFF0F4"/>
<path opacity="0.03" d="M287.322 118.308L295.323 125.8L367.287 123.981L366.166 116.574L287.322 118.308Z" fill="black"/>
<path opacity="0.03" d="M268.328 176.684L287.322 118.308L295.323 125.8L276.523 181.792L268.328 176.684Z" fill="black"/>
<path opacity="0.03" d="M268.452 177.504L270.199 188.611L339.364 212.652L337.347 199.765L268.452 177.504Z" fill="black"/>
<path opacity="0.03" d="M217.322 214.007L268.452 177.504L270.686 188.604L220.46 226.004L217.322 214.007Z" fill="black"/>
<path d="M268.328 176.684L269.828 186.258L338.993 210.299L337.215 198.944L268.328 176.684Z" fill="#EFF0F4"/>
<path d="M217.19 213.179L268.328 176.684L270.315 186.251L220.089 223.651L217.19 213.179Z" fill="#EFF0F4"/>
<path opacity="0.03" d="M268.328 176.684L269.828 186.258L338.993 210.299L337.215 198.944L268.328 176.684Z" fill="black"/>
<path opacity="0.03" d="M217.19 213.179L268.328 176.684L270.315 186.251L220.089 223.651L217.19 213.179Z" fill="black"/>
<path d="M217.19 213.179L219.502 226.979L281.308 263.954L279.785 249.751L217.19 213.179Z" fill="#CCCAD6"/>
<path d="M245.353 210.996C245.353 210.996 244.278 213.047 245.917 213.991C246.69 214.44 252.28 215.539 257.892 216.592C260.644 217.103 263.404 217.598 265.622 217.985C268.328 218.465 270.199 218.759 270.199 218.759H271.621L280.218 218.922L288.304 219.077L291.729 218.372L289.757 204.92L279.522 193.658L277.381 195.469L277.017 195.779L271.389 198.519L255.511 206.259L248.368 209.742L247.533 210.152L245.353 210.996Z" fill="#FFE09C"/>
<path d="M297.511 217.49C297.511 217.49 295.586 202.784 290.036 197.629C290.036 197.629 285.475 192.985 282.668 191.715C282.668 191.715 280.28 190.02 277.93 195.129C277.93 195.129 286.951 200.655 288.899 209.254L290.84 217.854L297.511 217.49Z" fill="#E7C4C3"/>
<path d="M286.662 212.241C287.811 210.439 287.021 207.879 284.899 206.521C282.776 205.163 280.123 205.523 278.974 207.324C277.825 209.125 278.614 211.686 280.737 213.044C282.86 214.401 285.512 214.042 286.662 212.241Z" fill="#FF7F8E"/>
<path d="M272.56 209.047C273.709 207.246 272.92 204.685 270.797 203.327C268.674 201.969 266.022 202.329 264.873 204.13C263.723 205.931 264.513 208.492 266.636 209.85C268.758 211.208 271.411 210.848 272.56 209.047Z" fill="#FF7F8E"/>
<path d="M271.389 198.526C271.449 199.288 271.691 200.023 272.095 200.671C272.499 201.319 273.052 201.861 273.709 202.249C275.827 203.604 278.478 203.248 279.623 201.475C280.767 199.703 279.986 197.118 277.86 195.763C277.715 195.671 277.565 195.585 277.412 195.508L277.048 195.817L271.389 198.526Z" fill="#FF7F8E"/>
<path d="M272.008 215.934C271.745 216.358 271.574 216.833 271.506 217.328C271.438 217.823 271.475 218.326 271.614 218.806L280.21 218.968C280.177 218.18 279.947 217.414 279.542 216.738C279.137 216.062 278.569 215.498 277.891 215.098C275.804 213.775 273.152 214.138 272.008 215.934Z" fill="#FF7F8E"/>
<path d="M258 212.97C257.673 213.513 257.492 214.132 257.473 214.767C257.454 215.401 257.598 216.03 257.892 216.592C260.644 217.103 263.404 217.598 265.622 217.985L265.692 217.885C266.836 216.089 266.048 213.527 263.929 212.172C261.811 210.818 259.152 211.174 258 212.97Z" fill="#FF7F8E"/>
<path d="M248.368 209.757C248.699 210.127 249.079 210.45 249.497 210.717C251.615 212.072 254.266 211.716 255.41 209.943C255.74 209.397 255.922 208.775 255.939 208.137C255.957 207.5 255.809 206.869 255.511 206.305L248.368 209.757Z" fill="#FF7F8E"/>
<path d="M285.335 215.16L284.562 216.391C283.762 215.554 282.788 214.901 281.71 214.479L281.486 214.425C280.04 214.162 282.259 213.194 282.259 213.194C282.259 213.194 285.034 214.347 285.335 215.16Z" fill="#94CC79"/>
<path d="M278.618 206.274L277.845 207.513C277.045 206.672 276.071 206.017 274.992 205.593L274.768 205.539C273.33 205.284 275.541 204.308 275.541 204.308C275.541 204.308 278.316 205.462 278.618 206.274Z" fill="#94CC79"/>
<path d="M274.428 209.564L273.655 210.795C272.854 209.957 271.88 209.305 270.802 208.883L270.578 208.829C269.132 208.565 271.351 207.598 271.351 207.598C271.351 207.598 274.118 208.736 274.428 209.564Z" fill="#94CC79"/>
<path d="M265.483 212.66L264.71 213.898C263.91 213.058 262.937 212.403 261.858 211.979L261.634 211.925C260.188 211.669 262.407 210.694 262.407 210.694C262.407 210.694 265.174 211.816 265.483 212.66Z" fill="#94CC79"/>
<path d="M252.527 212.196L251.754 213.434C250.951 212.594 249.975 211.939 248.894 211.514L248.669 211.46C247.231 211.205 249.442 210.23 249.442 210.23C249.442 210.23 252.21 211.375 252.527 212.196Z" fill="#94CC79"/>
<path d="M263.156 207.551L262.383 208.782C261.584 207.942 260.61 207.287 259.531 206.863L259.307 206.808C257.861 206.553 260.08 205.578 260.08 205.578C260.08 205.578 262.847 206.731 263.156 207.551Z" fill="#94CC79"/>
<path d="M295.045 221.306C295.045 221.306 300.016 220.764 297.48 217.49C294.787 216.832 291.97 216.88 289.301 217.629C289.301 217.629 268.143 218.573 265.398 217.056C265.398 217.056 246.226 213.96 245.453 212.985C245.453 212.985 243.907 213.326 248.607 215.415C253.308 217.505 268.344 219.688 268.344 219.688L284.292 220.957L290.028 220.245L295.045 221.306Z" fill="#E7C4C3"/>
<path opacity="0.2" d="M295.045 221.306C295.045 221.306 300.016 220.764 297.48 217.49C294.787 216.832 291.97 216.88 289.301 217.629C289.301 217.629 268.143 218.573 265.398 217.056C265.398 217.056 246.226 213.96 245.453 212.985C245.453 212.985 243.907 213.326 248.607 215.415C253.308 217.505 268.344 219.688 268.344 219.688L284.292 220.957L290.028 220.245L295.045 221.306Z" fill="white"/>
<path d="M279.97 213.713C279.738 214.437 279.682 215.206 279.807 215.956C279.932 216.706 280.235 217.415 280.689 218.024C282.143 220.075 284.732 220.741 286.48 219.51C288.227 218.279 288.451 215.64 286.99 213.55C286.889 213.411 286.781 213.271 286.673 213.14L286.209 213.295L279.97 213.713Z" fill="#FF7F8E"/>
<path d="M279.785 249.751L337.215 198.944L338.978 210.16L281.308 263.954L279.785 249.751Z" fill="#CCCAD6"/>
<path d="M344.668 201.839L337.215 198.944L366.166 116.574L371.686 120.475L344.668 201.839Z" fill="#CCCAD6"/>
<g opacity="0.1">
<path opacity="0.1" d="M298.06 321.896C298.118 319.904 298.406 317.925 298.918 315.998L298.539 316.13C298.168 318.029 298.008 319.962 298.06 321.896Z" fill="white"/>
<path opacity="0.1" d="M301.902 349.66C295.888 350.016 277.242 341.425 273.508 336.935C273.015 336.331 272.713 335.592 272.642 334.815C272.531 335.446 272.551 336.093 272.7 336.716C272.849 337.339 273.124 337.924 273.508 338.437C277.242 342.926 295.888 351.51 301.902 351.154C308.257 350.783 329.554 351.928 330.304 342.176C330.356 341.913 330.321 341.642 330.204 341.402C328.488 350.365 308.094 349.312 301.902 349.66Z" fill="white"/>
</g>
<path d="M323.741 168.061C323.741 168.061 325.071 166.513 323.865 165.399C323.285 164.857 318.739 162.783 314.163 160.755C311.913 159.764 309.648 158.789 307.847 158.015L304.098 156.412L302.884 156.103L295.578 154.237L288.706 152.48L285.614 152.395L284.578 164.307L291.064 175.979L293.244 174.865L293.623 174.671L298.98 173.464L314.116 170.089L320.912 168.541L321.685 168.363L323.741 168.061Z" fill="#FFE09C"/>
<path d="M280.512 152.032C280.512 152.032 279.205 164.973 282.908 170.492C282.908 170.492 285.877 175.353 288.01 177.024C288.01 177.024 289.711 178.944 292.749 175.058C292.749 175.058 286.147 168.526 286.217 160.793L286.279 153.053L280.512 152.032Z" fill="#E7C4C3"/>
<path d="M294.296 164.499C295.637 163.194 295.477 160.851 293.938 159.267C292.4 157.682 290.065 157.455 288.725 158.761C287.384 160.066 287.544 162.408 289.083 163.993C290.621 165.578 292.955 165.804 294.296 164.499Z" fill="#FF7F8E"/>
<path d="M305.7 170.054C307.04 168.749 306.88 166.406 305.342 164.822C303.803 163.237 301.469 163.01 300.128 164.316C298.787 165.621 298.947 167.963 300.486 169.548C302.024 171.133 304.359 171.359 305.7 170.054Z" fill="#FF7F8E"/>
<path d="M299.011 173.472C299.114 172.813 299.058 172.139 298.848 171.507C298.638 170.874 298.281 170.3 297.805 169.834C296.259 168.286 293.94 168.023 292.587 169.331C291.234 170.639 291.412 172.976 292.95 174.563C293.053 174.672 293.161 174.776 293.275 174.873L293.654 174.679L299.011 173.472Z" fill="#FF7F8E"/>
<path d="M302.003 158.479C302.313 158.17 302.554 157.798 302.71 157.388C302.866 156.979 302.933 156.54 302.907 156.103L295.602 154.237C295.476 154.91 295.518 155.603 295.724 156.255C295.93 156.908 296.295 157.499 296.784 157.976C298.3 159.57 300.634 159.795 302.003 158.479Z" fill="#FF7F8E"/>
<path d="M313.336 163.835C313.727 163.433 314.009 162.938 314.153 162.395C314.298 161.853 314.302 161.283 314.163 160.739C311.913 159.748 309.648 158.773 307.847 157.999L307.762 158.069C306.424 159.377 306.587 161.722 308.125 163.309C309.664 164.896 311.998 165.143 313.336 163.835Z" fill="#FF7F8E"/>
<path d="M320.912 168.541C320.707 168.157 320.446 167.805 320.138 167.496C318.592 165.91 316.273 165.685 314.928 166.993C314.535 167.394 314.253 167.89 314.109 168.433C313.965 168.975 313.965 169.546 314.109 170.089L320.912 168.541Z" fill="#FF7F8E"/>
<path d="M290.407 156.467L291.327 155.577C291.845 156.452 292.547 157.204 293.383 157.782L293.561 157.875C294.744 158.386 292.641 158.765 292.641 158.765C292.641 158.765 290.538 157.225 290.407 156.467Z" fill="#94CC79"/>
<path d="M294.396 165.445L295.308 164.547C295.825 165.426 296.527 166.181 297.364 166.761L297.542 166.846C298.725 167.365 296.622 167.744 296.622 167.744C296.622 167.744 294.488 166.157 294.396 165.445Z" fill="#94CC79"/>
<path d="M298.624 163.456L299.544 162.558C300.062 163.436 300.763 164.192 301.601 164.772L301.778 164.857C302.961 165.376 300.858 165.755 300.858 165.755C300.858 165.755 298.725 164.215 298.624 163.456Z" fill="#94CC79"/>
<path d="M306.881 162.62L307.801 161.722C308.317 162.599 309.016 163.354 309.849 163.936L310.035 164.029C311.21 164.54 309.115 164.919 309.115 164.919C309.115 164.919 306.981 163.379 306.881 162.62Z" fill="#94CC79"/>
<path d="M317.866 165.608L318.786 164.71C319.299 165.589 319.998 166.344 320.834 166.924L321.02 167.009C322.195 167.527 320.1 167.907 320.1 167.907C320.1 167.907 317.966 166.358 317.866 165.608Z" fill="#94CC79"/>
<path d="M307.847 167.427L308.767 166.537C309.285 167.412 309.987 168.164 310.823 168.742C310.878 168.781 310.938 168.812 311.001 168.835C312.184 169.346 310.081 169.733 310.081 169.733C310.081 169.733 307.947 168.185 307.847 167.427Z" fill="#94CC79"/>
<path d="M283.356 149.261C283.356 149.261 279.004 148.727 280.512 152.032C282.678 153.139 285.092 153.672 287.523 153.58C287.523 153.58 305.775 157.032 307.816 158.874C307.816 158.874 323.563 165.36 324.05 166.366C324.05 166.366 325.434 166.366 321.847 163.649C318.26 160.933 305.868 156.018 305.868 156.018L292.509 151.722L287.469 151.172L283.356 149.261Z" fill="#E7C4C3"/>
<path opacity="0.2" d="M283.356 149.261C283.356 149.261 279.004 148.727 280.512 152.032C282.678 153.139 285.092 153.672 287.523 153.58C287.523 153.58 305.775 157.032 307.816 158.874C307.816 158.874 323.563 165.36 324.05 166.366C324.05 166.366 325.434 166.366 321.847 163.649C318.26 160.933 305.868 156.018 305.868 156.018L292.509 151.722L287.469 151.172L283.356 149.261Z" fill="white"/>
<path d="M261.1 167.287C263.32 166.121 265.33 164.59 267.045 162.759C267.818 161.846 268.467 160.817 269.264 159.919C271.271 157.772 273.879 156.282 276.747 155.646C279.592 155.021 282.501 154.737 285.413 154.803C287.362 154.678 289.316 154.914 291.18 155.499C292.112 155.804 292.951 156.342 293.619 157.06C294.287 157.779 294.762 158.656 294.999 159.609C295.424 161.931 293.909 164.184 292.092 165.677C290.4 167.059 288.41 168.027 286.279 168.503C284.542 168.803 282.789 169.008 281.03 169.114C270.686 170.198 261.456 175.832 252.426 180.964C244.464 185.477 239.949 185.268 231.685 189.184C231.361 186.707 227.619 188.627 227.673 186.127C227.72 184.261 227.812 181.413 229.575 180.314C231.623 179.037 234.986 178.766 237.305 177.992C242.634 176.243 247.838 174.135 252.883 171.684C255.671 170.316 258.41 168.851 261.1 167.287Z" fill="#A0616A"/>
<path opacity="0.1" d="M192.793 160.36L232.427 196.274C232.427 196.274 239.903 181.312 242.145 181.312C244.387 181.312 215.242 137.194 215.242 137.194C215.242 137.194 207.767 128.215 203.283 132.704C198.799 137.194 185.317 134.167 192.793 160.36Z" fill="black"/>
<path d="M192.043 158.866L231.654 194.78C231.654 194.78 239.13 179.811 241.372 179.811C243.614 179.811 214.462 135.692 214.462 135.692C214.462 135.692 206.986 126.706 202.502 131.195C198.019 135.684 184.567 132.674 192.043 158.866Z" fill="#FFADAD"/>
<path d="M257.258 95.5596C258.123 94.5963 258.825 93.4983 259.338 92.3088C262.754 84.5686 257.335 74.847 248.082 72.1844C243.443 70.8299 238.249 71.1008 233.618 69.6611C229.892 68.5079 226.753 66.3251 223.336 64.6223C216.915 61.4548 209.811 59.9284 202.657 60.1795C195.661 60.4272 188.054 62.8885 185.186 68.2989C180.996 76.1783 188.703 86.1012 184.034 93.7716C180.602 99.4064 172.276 101.071 165.372 103.516C158.225 105.991 151.718 110.029 146.324 115.336C140.913 120.754 137.048 128.184 139.769 134.903C141.354 138.842 144.933 141.923 147.778 145.321C152.524 150.896 155.3 157.884 155.676 165.2C156.052 172.516 154.007 179.752 149.857 185.786C148.528 187.698 146.974 189.563 146.425 191.731C145.111 196.901 150.414 202.102 156.544 203.109C162.674 204.115 169.037 201.824 173.806 198.441C178.21 195.402 181.754 191.274 184.096 186.46C189.762 174.431 185.781 160.917 185.217 147.968C185.147 146.459 185.217 144.818 186.276 143.634C187.915 141.861 191.007 141.907 193.651 141.675C200.492 141.072 206.793 137.232 209.692 131.938C215.235 121.752 208.78 107.518 218.466 99.8554C230.657 90.2112 248.206 105.459 257.258 95.5596Z" fill="#3F3D56"/>
<path opacity="0.1" d="M248.082 72.1534H248.005C251.622 76.3486 252.983 82.0144 250.834 86.9061C250.322 88.0957 249.619 89.1937 248.754 90.157C239.702 100.057 222.153 84.8085 209.962 94.4527C200.276 102.115 206.731 116.35 201.188 126.536C198.312 131.83 191.989 135.669 185.147 136.273C182.503 136.505 179.411 136.458 177.772 138.231C176.682 139.415 176.644 141.056 176.713 142.565C177.278 155.515 181.259 169.029 175.592 181.057C173.251 185.872 169.706 189.999 165.303 193.039C160.533 196.406 154.179 198.728 148.04 197.721L147.615 197.629C148.664 199.095 149.993 200.337 151.526 201.284C153.059 202.23 154.765 202.861 156.544 203.14C162.682 204.138 168.998 201.816 173.806 198.441C178.21 195.402 181.754 191.274 184.096 186.46C189.762 174.431 185.781 160.917 185.217 147.968C185.147 146.459 185.217 144.818 186.276 143.633C187.915 141.861 191.007 141.907 193.651 141.675C200.492 141.072 206.793 137.232 209.692 131.938C215.235 121.752 208.78 107.518 218.466 99.8554C230.657 90.2112 248.206 105.459 257.258 95.5596C258.123 94.5963 258.825 93.4983 259.338 92.3087C262.754 84.5454 257.335 74.8857 248.082 72.1534Z" fill="black"/>
</svg>
