<svg width="59" height="59" viewBox="0 0 59 59" fill="none" xmlns="http://www.w3.org/2000/svg">
<path d="M55.3161 7.375H50.9415L43.919 41.6572C43.7272 42.387 43.3146 43.0016 42.6815 43.501C42.0483 44.0003 41.3863 44.25 40.6956 44.25H9.20975C8.48065 44.25 7.79951 44.0003 7.16634 43.501C6.53317 43.0016 6.12065 42.387 5.92878 41.6572L0.287802 19.9355C-0.0959381 18.5527 -0.0383772 17.3428 0.460485 16.3057C0.959347 15.2686 1.72683 14.75 2.76292 14.75L43.5737 7.66309L44.6098 2.53516C44.8016 1.84375 45.2141 1.24837 45.8473 0.749023C46.4805 0.249674 47.1424 0 47.8332 0H55.3161C56.3522 0 57.2252 0.355306 57.9351 1.06592C58.645 1.77653 59 2.64079 59 3.65869C59 4.6766 58.6354 5.55046 57.9063 6.28027C57.1772 7.01009 56.3138 7.375 55.3161 7.375ZM16.6351 47.9375C18.1701 47.9375 19.4748 48.4753 20.5493 49.5508C21.6237 50.6263 22.161 51.9323 22.161 53.4688C22.161 55.0052 21.6237 56.3112 20.5493 57.3867C19.4748 58.4622 18.1701 59 16.6351 59C15.1002 59 13.7954 58.4622 12.721 57.3867C11.6465 56.3112 11.1093 55.0052 11.1093 53.4688C11.1093 51.9323 11.6465 50.6263 12.721 49.5508C13.7954 48.4753 15.1002 47.9375 16.6351 47.9375ZM35.0546 47.9375C36.5896 47.9375 37.8943 48.4753 38.9688 49.5508C40.0433 50.6263 40.5805 51.9323 40.5805 53.4688C40.5805 55.0052 40.0433 56.3112 38.9688 57.3867C37.8943 58.4622 36.5896 59 35.0546 59C33.5197 59 32.215 58.4622 31.1405 57.3867C30.066 56.3112 29.5288 55.0052 29.5288 53.4688C29.5288 51.9323 30.066 50.6263 31.1405 49.5508C32.215 48.4753 33.5197 47.9375 35.0546 47.9375Z" fill="white"/>
</svg>
