<svg width="44" height="39" viewBox="0 0 44 39" fill="none" xmlns="http://www.w3.org/2000/svg">
<path d="M1.79163 1.78395V36.2181H22.7095C35.3416 36.2181 42.2166 30.3386 42.2166 18.9591C42.2166 7.2716 34.7628 1.78395 22.7095 1.78395H1.79163ZM22.7095 0.00195312C41.2349 0.00195312 44 11.8751 44 18.9591C44 31.2406 36.4375 38.007 22.7095 38.007H0V0.00195312H22.7095ZM4.598 21.4849H11.2929V33.409H4.598V21.4849ZM12.1041 15.4845C12.1041 16.031 11.9965 16.5723 11.7873 17.0772C11.5781 17.5822 11.2716 18.041 10.8851 18.4275C10.4986 18.814 10.0397 19.1206 9.53478 19.3298C9.0298 19.5389 8.48858 19.6466 7.942 19.6466C7.39542 19.6466 6.8542 19.5389 6.34922 19.3298C5.84425 19.1206 5.38542 18.814 4.99893 18.4275C4.61244 18.041 4.30586 17.5822 4.0967 17.0772C3.88753 16.5723 3.77988 16.031 3.77988 15.4845C3.77988 9.935 12.1027 9.935 12.1027 15.4845H12.1041ZM14.6589 13.543V17.4328H15.8537C16.6787 17.4328 17.4446 17.1963 17.4446 15.4542C17.4446 13.7657 16.5921 13.5416 15.8537 13.5416L14.6589 13.543ZM34.5551 11.618H36.487V17.4328H39.3456C38.5578 6.87695 30.2583 4.59995 22.7095 4.59995H14.6671V11.618H15.8551C18.0263 11.618 19.3792 13.092 19.3792 15.4556C19.3792 17.9045 18.0634 19.3592 15.8551 19.3592H14.6671V33.4172H22.7095C34.9759 33.4172 39.2439 27.7178 39.3951 19.3592H34.562V11.6111L34.5551 11.618ZM29.183 15.9355H30.58L29.9351 13.7451H29.821L29.183 15.9355ZM26.1676 19.3647L28.5106 11.6166H31.2537L33.5871 19.3647H31.5837L31.1383 17.8618H28.6179L28.182 19.3647H26.1676ZM25.245 17.4328V19.3578H20.4751V11.618H25.0951V13.543H22.4015V14.4463H24.9425V16.3713H22.4015V17.4328H25.245Z" fill="#D63968"/>
</svg>
