<svg width="44" height="44" viewBox="0 0 44 44" fill="none" xmlns="http://www.w3.org/2000/svg">
<path d="M1.79163 4.78395V39.2181H22.7095C35.3416 39.2181 42.2166 33.3386 42.2166 21.9591C42.2166 10.2716 34.7628 4.78395 22.7095 4.78395H1.79163ZM22.7095 3.00195C41.2349 3.00195 44 14.8751 44 21.9591C44 34.2406 36.4375 41.007 22.7095 41.007H0V3.00195H22.7095ZM4.598 24.4849H11.2929V36.409H4.598V24.4849ZM12.1041 18.4845C12.1041 19.031 11.9965 19.5723 11.7873 20.0772C11.5781 20.5822 11.2716 21.041 10.8851 21.4275C10.4986 21.814 10.0397 22.1206 9.53478 22.3298C9.0298 22.5389 8.48858 22.6466 7.942 22.6466C7.39542 22.6466 6.8542 22.5389 6.34922 22.3298C5.84425 22.1206 5.38542 21.814 4.99893 21.4275C4.61244 21.041 4.30586 20.5822 4.0967 20.0772C3.88753 19.5723 3.77988 19.031 3.77988 18.4845C3.77988 12.935 12.1027 12.935 12.1027 18.4845H12.1041ZM14.6589 16.543V20.4328H15.8537C16.6787 20.4328 17.4446 20.1963 17.4446 18.4542C17.4446 16.7657 16.5921 16.5416 15.8537 16.5416L14.6589 16.543ZM34.5551 14.618H36.487V20.4328H39.3456C38.5578 9.87695 30.2583 7.59995 22.7095 7.59995H14.6671V14.618H15.8551C18.0263 14.618 19.3792 16.092 19.3792 18.4556C19.3792 20.9045 18.0634 22.3592 15.8551 22.3592H14.6671V36.4172H22.7095C34.9759 36.4172 39.2439 30.7178 39.3951 22.3592H34.562V14.6111L34.5551 14.618ZM29.183 18.9355H30.58L29.9351 16.7451H29.821L29.183 18.9355ZM26.1676 22.3647L28.5106 14.6166H31.2537L33.5871 22.3647H31.5837L31.1383 20.8618H28.6179L28.182 22.3647H26.1676ZM25.245 20.4328V22.3578H20.4751V14.618H25.0951V16.543H22.4015V17.4463H24.9425V19.3713H22.4015V20.4328H25.245Z" fill="#F7F7F7"/>
</svg>
