<svg width="40" height="41" viewBox="0 0 40 41" fill="none" xmlns="http://www.w3.org/2000/svg">
<path d="M35.4 10.7092C34.2467 11.2328 33.0234 11.5764 31.7708 11.7284C33.0902 10.9192 34.0775 9.64595 34.5488 8.14584C33.3086 8.90046 31.9516 9.43185 30.5364 9.71696C29.9452 9.07056 29.2307 8.55551 28.4373 8.20373C27.6439 7.85194 26.7885 7.67092 25.924 7.67188C22.4344 7.67188 19.6048 10.5714 19.6048 14.1491C19.6048 14.6562 19.6608 15.1511 19.7688 15.6255C14.5168 15.3553 9.86082 12.7764 6.74402 8.85719C6.18204 9.84573 5.88675 10.9697 5.88842 12.1138C5.88759 13.1802 6.14377 14.2303 6.6342 15.1708C7.12462 16.1114 7.83411 16.9131 8.69962 17.5049C7.6963 17.4722 6.71509 17.1945 5.83762 16.6947C5.83682 16.7218 5.83682 16.7485 5.83682 16.7763C5.83682 19.9137 8.01482 22.5315 10.9052 23.1272C9.97452 23.3855 8.9987 23.4233 8.05162 23.2379C8.85562 25.8107 11.1892 27.684 13.9544 27.7365C11.716 29.537 8.95182 30.5136 6.10642 30.5093C5.59642 30.5093 5.09362 30.479 4.59882 30.4187C7.48815 32.3216 10.8509 33.3316 14.2852 33.328C25.9084 33.328 32.2644 23.4589 32.2644 14.9006C32.2644 14.6201 32.258 14.3401 32.246 14.0617C33.4838 13.1457 34.552 12.0104 35.4 10.7092Z" fill="white"/>
</svg>
