<svg width="44" height="44" viewBox="0 0 44 44" fill="none" xmlns="http://www.w3.org/2000/svg">
<mask id="mask0" mask-type="alpha" maskUnits="userSpaceOnUse" x="0" y="0" width="44" height="44">
<path d="M0 0H43.7755V27.5591C43.8843 27.7061 43.9591 27.8709 44 28.0837V28.9376C43.9591 29.1514 43.8843 29.3375 43.7755 29.4944V44H0V0Z" fill="white"/>
</mask>
<g mask="url(#mask0)">
<path fill-rule="evenodd" clip-rule="evenodd" d="M0 44H44V0H0V44Z" fill="url(#paint0_radial)"/>
<path fill-rule="evenodd" clip-rule="evenodd" d="M3.9423 19.0705L3.10028 17.0261L2.26342 19.0705H3.9423ZM22.4694 18.2593C22.303 18.3538 22.103 18.3641 21.862 18.3641H20.3684V17.2223H21.8818C22.0978 17.2223 22.3221 17.2304 22.4678 17.3097C22.6248 17.388 22.7245 17.547 22.7245 17.7655C22.7245 17.9918 22.6277 18.1683 22.4694 18.2593ZM33.1164 19.0705L32.2694 17.0261L31.4273 19.0705H33.1164ZM13.2696 21.2877H12.0099L12.0025 17.2672L10.2228 21.2877H9.14409L7.35488 17.2583V21.2877H4.85512L4.3847 20.1418H1.82531L1.35042 21.2877H0.0146094L2.2122 16.1474H4.04044L6.12958 21.0173V16.1474H8.13811L9.74428 19.6375L11.2229 16.1474H13.2696V21.2877ZM18.2884 21.2877H14.1831V16.1474H18.288V17.2223H15.4151V18.145H18.2179V19.2017L15.4151 19.1972V20.2238H18.2882V21.2877H18.2884ZM24.0778 17.536C24.0778 18.3486 23.5312 18.7782 23.2146 18.9048C23.4828 19.0081 23.7107 19.1855 23.8176 19.3393C23.9912 19.5899 24.0257 19.8245 24.0257 20.2766V21.2877H22.786L22.7822 20.6415C22.7822 20.3359 22.8114 19.8904 22.5828 19.6442C22.4034 19.4603 22.133 19.4222 21.6891 19.4222H20.3686V21.2877H19.1405V16.1474H21.9696C22.594 16.1474 23.0586 16.1681 23.4572 16.3967C23.8463 16.6237 24.0778 16.9601 24.0778 17.5362V17.536ZM24.7923 21.2877H26.0459V16.1467H24.7923V21.2877ZM40.5912 21.2877H38.848L36.5179 17.4334L36.5222 21.2877H34.0192L33.5399 20.1418H30.9841L30.5247 21.2877H29.0861C28.4867 21.2877 27.7291 21.1545 27.3049 20.7214C26.8682 20.2824 26.6475 19.6941 26.6475 18.7568C26.6475 17.9948 26.7816 17.2987 27.3092 16.7483C27.7071 16.338 28.3277 16.1474 29.1756 16.1474H30.3633V17.2481H29.2019C28.7528 17.2481 28.4972 17.3169 28.2523 17.5551C28.0457 17.772 27.8991 18.1807 27.8991 18.7209C27.8991 19.2726 28.0091 19.6654 28.2406 19.9285C28.4252 20.13 28.7703 20.1908 29.095 20.1908H29.6476L31.379 16.1474H33.2198L35.3014 21.0101V16.1473H37.1752L39.3346 19.7269V16.1473H40.5912V21.2875V21.2877ZM0 22.3004H2.10014L2.57348 21.1545H3.63309L4.10489 22.3004H8.23763V21.4255L8.60716 22.3033H10.7487L11.1167 21.4145V22.3004H21.3855L21.3804 20.4252H21.5791C21.719 20.4283 21.7607 20.4443 21.7607 20.6751V22.3004H27.0683V21.8645C27.4969 22.0945 28.1645 22.3004 29.0379 22.3004H31.2735L31.7505 21.1545H32.8116L33.2843 22.3004H37.5855V21.2138L38.2384 22.3004H41.6831V15.1289H38.2728V15.9781L37.7967 15.1291H34.2908V15.9781L33.8525 15.1291H29.1208C28.3279 15.1291 27.6296 15.238 27.0684 15.5472V15.1289H23.8069V15.5472C23.4443 15.2293 22.9568 15.1289 22.4168 15.1289H10.4866L9.68275 16.9834L8.86497 15.1289H5.10812V15.9781L4.69116 15.1291H1.48741L0 18.5355V22.3002V22.3004Z" fill="white"/>
<path fill-rule="evenodd" clip-rule="evenodd" d="M43.7774 26.0942H41.5338C41.3103 26.0942 41.1615 26.103 41.0413 26.1858C40.9124 26.2678 40.8581 26.3962 40.8581 26.5595C40.8581 26.7501 40.9681 26.8819 41.1314 26.9392C41.2546 26.9845 41.3975 26.9962 41.607 26.9993L42.2651 27.016C42.9363 27.0351 43.3885 27.1494 43.6631 27.4285C43.7093 27.4698 43.7422 27.5187 43.7774 27.5583V26.0942ZM43.7774 29.4846C43.4756 29.9229 42.8945 30.1434 42.1061 30.1434H39.7318V29.0385H42.0987C42.3295 29.0385 42.4952 29.007 42.5971 28.9109C42.6796 28.8355 42.7429 28.7189 42.7429 28.5775C42.7429 28.4259 42.6798 28.3058 42.5941 28.2368C42.4981 28.1555 42.3713 28.1225 42.1589 28.1196C41.0056 28.0837 39.5656 28.1555 39.5656 26.5294C39.5656 25.7843 40.0412 24.9996 41.3265 24.9996H43.7774V23.9766H41.5009C40.8136 23.9766 40.316 24.1392 39.9608 24.3987V23.9766H36.5951C36.0623 23.9766 35.4315 24.1106 35.1281 24.3987L35.1326 23.9766H29.1232V24.3987C28.6447 24.0536 27.8401 23.9766 27.4629 23.9766H23.5051V24.3987C23.1247 24.0309 22.2881 23.9766 21.7728 23.9766H17.3367L16.3233 25.0786L15.3728 23.9766H8.74637V31.1523H15.2489L16.2953 30.0372L17.2808 31.1525L21.2831 31.1554V29.4678H21.6796C22.208 29.4752 22.8396 29.4561 23.392 29.2172V31.1525H26.6961V29.2818H26.8551C27.0588 29.2818 27.0792 29.2935 27.0792 29.495V31.1525H37.1197C37.7527 31.1525 38.418 30.9892 38.7903 30.696V31.1525H41.9756C42.6387 31.1525 43.2829 31.0609 43.7774 30.8242V29.4846ZM38.8731 27.4287C39.1134 27.6779 39.2409 27.9921 39.2409 28.5189C39.2409 29.6283 38.5485 30.1434 37.3116 30.1434H34.9147V29.0385H37.3006C37.5366 29.0385 37.6999 29.007 37.807 28.9109C37.8523 28.8681 37.8882 28.8164 37.9126 28.759C37.9369 28.7016 37.9491 28.6398 37.9484 28.5775C37.9484 28.4259 37.8824 28.3058 37.7982 28.2368C37.7037 28.1555 37.5753 28.1225 37.3622 28.1196C36.2096 28.0837 34.7741 28.1555 34.7741 26.5294C34.7741 25.7843 35.2423 24.9996 36.526 24.9996H38.9933V26.0942H36.7422C36.5159 26.0942 36.3686 26.103 36.2455 26.1858C36.1121 26.2678 36.0623 26.3962 36.0623 26.5595C36.0623 26.7501 36.1766 26.8819 36.3326 26.9392C36.4586 26.9845 36.5949 26.9962 36.8067 26.9993L37.4691 27.016C38.1404 27.0351 38.594 27.1494 38.8731 27.4285V27.4287ZM27.7827 27.1135C27.6215 27.208 27.4156 27.2176 27.1789 27.2176H25.6848V26.0657H27.1987C27.4156 26.0657 27.6384 26.07 27.7827 26.1544C27.9426 26.2408 28.0378 26.3991 28.0378 26.621C28.0378 26.8388 27.9426 27.016 27.7827 27.1135ZM28.5257 27.7532C28.799 27.8522 29.0225 28.0338 29.1273 28.1841C29.3004 28.4362 29.3289 28.6705 29.3303 29.1227V30.1436H28.0993V29.5008C28.0993 29.1887 28.1294 28.7322 27.8993 28.4948C27.7219 28.3058 27.4472 28.264 27.0002 28.264H25.6848V30.1434H24.4516V24.9996H27.2867C27.9109 24.9996 28.3645 25.0252 28.7669 25.2428C29.1545 25.4751 29.3949 25.8012 29.3949 26.3866C29.3949 27.2037 28.8497 27.6227 28.5257 27.7532ZM30.0785 24.9996H34.182V26.0657H31.3031V26.9962H34.1101V28.0464H31.3029V29.0685L34.182 29.0744V30.1434H30.0785V24.9996ZM21.7894 27.3714H20.1979V26.0657H21.8027C22.2461 26.0657 22.5531 26.2422 22.5531 26.6958C22.5531 27.1392 22.2607 27.3714 21.7894 27.3714ZM18.9741 29.6766L17.0912 27.5818L18.9745 25.552V29.6766H18.9741ZM14.1029 29.0685H11.0816V28.0464H13.7792V26.9962H11.0816V26.0657H14.1621L15.504 27.5612L14.1029 29.0685ZM23.8714 26.6958C23.8714 28.1196 22.8088 28.4171 21.7315 28.4171H20.1979V30.1434H17.8128L16.2989 28.4419L14.7264 30.1434H9.86012V24.9996H14.8019L16.3137 26.6841L17.8759 24.9996H21.8027C22.7788 24.9996 23.8714 25.2684 23.8714 26.696V26.6958Z" fill="white"/>
<path fill-rule="evenodd" clip-rule="evenodd" d="M24.0778 17.5367C24.0778 18.3502 23.5319 18.7782 23.216 18.9049C23.4841 19.0082 23.7122 19.1869 23.8191 19.3394C23.9927 19.5915 24.0266 19.8246 24.0266 20.2781V21.2877H22.7873L22.7822 20.6422C22.7822 20.3359 22.8131 19.8904 22.5837 19.6443C22.4034 19.4604 22.1346 19.4222 21.6889 19.4222H20.3699V21.2877H19.1405V16.1475H21.9711C22.594 16.1475 23.0591 16.1681 23.4571 16.3967C23.8476 16.6237 24.0778 16.9601 24.0778 17.5367Z" fill="#2F9BCA"/>
<path fill-rule="evenodd" clip-rule="evenodd" d="M18.2897 21.2879H14.1831V16.147H18.2896V17.2226H15.4151V18.1452H18.2179V19.2019L15.4151 19.199V20.2256H18.2897" fill="#2EA3D0"/>
<path fill-rule="evenodd" clip-rule="evenodd" d="M13.2696 21.2881H12.0099L12.0026 17.2676L10.2242 21.2881H9.14564L7.35471 17.2602V21.2881H4.85599L4.38488 20.1429H1.82532L1.35197 21.2881H0.0154724L2.21289 16.1471H4.04044L6.12958 21.0186V16.1471H8.1388L9.74583 19.6395L11.2229 16.147H13.2696" fill="#55B2D8"/>
<path fill-rule="evenodd" clip-rule="evenodd" d="M22.4709 18.2596C22.3037 18.3557 22.1038 18.3644 21.8642 18.3644H20.3699V17.2227H21.8831C22.0993 17.2227 22.3228 17.2307 22.4678 17.3113C22.6261 17.3883 22.7251 17.5473 22.7251 17.7665C22.7251 17.9921 22.6291 18.1702 22.4708 18.2597" fill="white"/>
<path fill-rule="evenodd" clip-rule="evenodd" d="M3.94299 19.0708L3.10029 17.0264L2.26343 19.0708" fill="white"/>
</g>
<defs>
<radialGradient id="paint0_radial" cx="0" cy="0" r="1" gradientUnits="userSpaceOnUse" gradientTransform="translate(7.30796 7.64368) scale(52.1488)">
<stop stop-color="#88CDE7"/>
<stop offset="1" stop-color="#2274AD"/>
</radialGradient>
</defs>
</svg>
