<svg width="30" height="35" viewBox="0 0 30 35" fill="none" xmlns="http://www.w3.org/2000/svg">
<path d="M25.4494 2.72448C23.8165 0.883849 20.8648 0.0947266 17.0886 0.0947266H6.12925C5.75564 0.0947402 5.39429 0.226561 5.11016 0.466488C4.82603 0.706416 4.63777 1.03871 4.57921 1.40363L0.0159311 30.0256C-0.074772 30.59 0.367142 31.1011 0.94558 31.1011H7.71152L9.41074 20.4422L9.358 20.776C9.47906 20.0226 10.1306 19.4669 10.9022 19.4669H14.1173C20.4335 19.4669 25.3792 16.9297 26.8239 9.59027C26.8668 9.3732 26.9039 9.16193 26.936 8.95552C26.7537 8.86002 26.7537 8.86002 26.936 8.95552C27.3662 6.24279 26.9331 4.39625 25.4494 2.72448Z" fill="#27346A"/>
<path d="M11.9996 7.9783C12.1846 7.8912 12.3869 7.84606 12.5918 7.84618H21.1837C22.2012 7.84618 23.1502 7.91166 24.0173 8.04969C24.26 8.08796 24.5014 8.13364 24.7412 8.18668C25.0811 8.26085 25.417 8.35163 25.7478 8.45868C26.1742 8.59949 26.5712 8.76348 26.9361 8.95552C27.3662 6.24175 26.9331 4.39625 25.4494 2.72448C23.8155 0.883849 20.8648 0.0947266 17.0886 0.0947266H6.12831C5.35663 0.0947266 4.70015 0.650323 4.57921 1.40363L0.0159318 30.0246C-0.0747713 30.5899 0.367143 31.1003 0.944643 31.1003H7.71152L11.2369 8.99122C11.2715 8.7739 11.3591 8.56817 11.4919 8.39172C11.6248 8.21528 11.799 8.0734 11.9996 7.9783Z" fill="#27346A"/>
<path d="M26.8239 9.59032C25.3792 16.9287 20.4336 19.4669 14.1173 19.4669H10.9012C10.1297 19.4669 9.47799 20.0226 9.35811 20.7761L7.24417 34.0291C7.16518 34.5231 7.55143 34.9706 8.05674 34.9706H13.7603C14.087 34.9706 14.4029 34.8552 14.6513 34.6453C14.8997 34.4354 15.0642 34.1448 15.1153 33.8256L15.1708 33.5382L16.2458 26.8006L16.3151 26.4282C16.3661 26.1091 16.5306 25.8185 16.779 25.6086C17.0274 25.3987 17.3433 25.2833 17.67 25.2832H18.5236C24.0486 25.2832 28.3748 23.0633 29.639 16.6433C30.1667 13.9603 29.8937 11.7203 28.4978 10.147C28.0744 9.6704 27.5485 9.27682 26.936 8.95557C26.9028 9.16302 26.8669 9.37325 26.8239 9.59032Z" fill="#2790C3"/>
<path d="M25.4241 8.35949C25.1988 8.29444 24.9714 8.23685 24.7423 8.18681C24.5023 8.13464 24.261 8.08926 24.0184 8.05075C23.1503 7.91179 22.202 7.84619 21.1836 7.84619H12.5927C12.3877 7.84573 12.1853 7.89126 12.0006 7.97936C11.7998 8.07417 11.6253 8.21596 11.4924 8.39245C11.3595 8.56895 11.272 8.77483 11.2377 8.99227L9.41168 20.4424L9.35895 20.7761C9.47906 20.0227 10.1306 19.467 10.9023 19.467H14.1184C20.4346 19.467 25.3801 16.9299 26.8248 9.5904C26.8678 9.37333 26.9039 9.16298 26.9371 8.95565C26.5712 8.76466 26.1752 8.59962 25.7488 8.45974C25.6412 8.42446 25.533 8.39104 25.4242 8.35949" fill="#1F264F"/>
</svg>
