<svg width="55" height="43" viewBox="0 0 55 43" fill="none" xmlns="http://www.w3.org/2000/svg">
<path d="M9.99883 42.7864V39.9404C9.99883 38.8492 9.3384 38.1379 8.20638 38.1379C7.64049 38.1379 7.02732 38.3276 6.60279 38.9443C6.27279 38.4224 5.80121 38.1379 5.09373 38.1379C4.62193 38.1379 4.15056 38.28 3.77308 38.8019V38.2327H2.78265V42.7864H3.77308V40.2723C3.77308 39.4661 4.19761 39.0865 4.85804 39.0865C5.51804 39.0865 5.84847 39.5134 5.84847 40.2723V42.7864H6.8389V40.2723C6.8389 39.4661 7.31027 39.0865 7.92344 39.0865C8.58387 39.0865 8.91387 39.5134 8.91387 40.2723V42.7864H9.99883ZM24.6664 38.2327H23.063V36.8572H22.0726V38.2327H21.1765V39.1338H22.0724V41.2211C22.0724 42.2648 22.4969 42.8813 23.6289 42.8813C24.0535 42.8813 24.5248 42.7391 24.8553 42.5494L24.5721 41.6954C24.2892 41.8851 23.9592 41.9327 23.7233 41.9327C23.2517 41.9327 23.063 41.6481 23.063 41.1736V39.1338H24.6664V38.2327ZM33.0617 38.1376C32.4958 38.1376 32.1185 38.4224 31.8826 38.8019V38.2327H30.8922V42.7864H31.8826V40.225C31.8826 39.4661 32.2126 39.0391 32.8258 39.0391C33.0144 39.0391 33.2503 39.0867 33.4389 39.134L33.7219 38.1854C33.5332 38.1379 33.2503 38.1379 33.0617 38.1379V38.1376ZM20.3747 38.6122C19.9029 38.28 19.2427 38.1379 18.5352 38.1379C17.4034 38.1379 16.6489 38.707 16.6489 39.6083C16.6489 40.3674 17.2148 40.7941 18.2052 40.9365L18.6768 40.9841C19.1956 41.0787 19.4786 41.2211 19.4786 41.4584C19.4786 41.7903 19.1013 42.0275 18.4409 42.0275C17.7807 42.0275 17.2618 41.7903 16.9316 41.5532L16.46 42.3121C16.9789 42.6915 17.6864 42.8813 18.3936 42.8813C19.7143 42.8813 20.469 42.2648 20.469 41.4108C20.469 40.6044 19.8559 40.1774 18.9125 40.0353L18.4409 39.9877C18.0164 39.9402 17.6864 39.8455 17.6864 39.561C17.6864 39.2288 18.0164 39.0391 18.5352 39.0391C19.1013 39.0391 19.6672 39.2762 19.9502 39.4186L20.3747 38.6122ZM46.692 38.1379C46.1259 38.1379 45.7486 38.4224 45.5127 38.8019V38.2327H44.5223V42.7864H45.5127V40.225C45.5127 39.4661 45.8429 39.0391 46.4559 39.0391C46.6447 39.0391 46.8806 39.0867 47.0693 39.134L47.3522 38.1854C47.1636 38.1379 46.8806 38.1379 46.692 38.1379ZM34.0521 40.5096C34.0521 41.8851 34.9953 42.8813 36.4575 42.8813C37.1177 42.8813 37.5893 42.7391 38.0609 42.3596L37.5893 41.5532C37.212 41.8378 36.8347 41.98 36.4102 41.98C35.6084 41.98 35.0425 41.4108 35.0425 40.5096C35.0425 39.6558 35.6084 39.0865 36.4102 39.0391C36.8347 39.0391 37.212 39.1813 37.5893 39.4661L38.0609 38.6597C37.5893 38.28 37.1177 38.1379 36.4575 38.1379C34.9953 38.1379 34.0521 39.134 34.0521 40.5096ZM43.2019 40.5096V38.2327H42.2114V38.8019C41.8812 38.3751 41.4096 38.1379 40.7965 38.1379C39.5231 38.1379 38.5327 39.134 38.5327 40.5096C38.5327 41.8851 39.5231 42.8813 40.7965 42.8813C41.4567 42.8813 41.9285 42.6442 42.2114 42.2172V42.7864H43.2019V40.5096ZM39.5701 40.5096C39.5701 39.7031 40.089 39.0391 40.9378 39.0391C41.7396 39.0391 42.3057 39.6558 42.3057 40.5096C42.3057 41.316 41.7396 41.98 40.9378 41.98C40.089 41.9324 39.5701 41.316 39.5701 40.5096ZM27.7322 38.1379C26.4116 38.1379 25.4682 39.0865 25.4682 40.5096C25.4682 41.9327 26.4114 42.8813 27.7793 42.8813C28.4395 42.8813 29.0999 42.6915 29.6188 42.2648L29.147 41.5532C28.7697 41.8378 28.2981 42.0275 27.8266 42.0275C27.2134 42.0275 26.6002 41.7429 26.4587 40.9363H29.8074V40.5571C29.8547 39.0865 29.0056 38.1379 27.732 38.1379H27.7322ZM27.7322 38.9916C28.3452 38.9916 28.7699 39.3712 28.864 40.0828H26.5059C26.6002 39.4661 27.0248 38.9916 27.7322 38.9916ZM52.3044 40.5096V36.4302H51.3139V38.8019C50.9837 38.3751 50.5121 38.1379 49.899 38.1379C48.6256 38.1379 47.6352 39.134 47.6352 40.5096C47.6352 41.8851 48.6256 42.8813 49.899 42.8813C50.5594 42.8813 51.031 42.6442 51.3139 42.2172V42.7864H52.3044V40.5096ZM48.6729 40.5096C48.6729 39.7031 49.1915 39.0391 50.0406 39.0391C50.8423 39.0391 51.4082 39.6558 51.4082 40.5096C51.4082 41.316 50.8423 41.98 50.0406 41.98C49.1915 41.9324 48.6729 41.316 48.6729 40.5096ZM15.5639 40.5096V38.2327H14.5735V38.8019C14.2433 38.3751 13.7717 38.1379 13.1585 38.1379C11.8852 38.1379 10.8947 39.134 10.8947 40.5096C10.8947 41.8851 11.8852 42.8813 13.1585 42.8813C13.819 42.8813 14.2905 42.6442 14.5735 42.2172V42.7864H15.5639V40.5096ZM11.8852 40.5096C11.8852 39.7031 12.404 39.0391 13.2529 39.0391C14.0546 39.0391 14.6208 39.6558 14.6208 40.5096C14.6208 41.316 14.0546 41.98 13.2529 41.98C12.404 41.9324 11.8852 41.316 11.8852 40.5096Z" fill="black"/>
<path d="M20.0445 3.65234H34.9009V30.5006H20.0445V3.65234Z" fill="#FF5F00"/>
<path d="M20.9879 17.0766C20.9879 11.6217 23.5346 6.7832 27.4491 3.65241C24.5723 1.37557 20.9408 0 16.9791 0C7.59322 0 0 7.63693 0 17.0766C0 26.5161 7.59322 34.1532 16.9789 34.1532C20.9406 34.1532 24.5721 32.7777 27.4491 30.5006C23.5346 27.4174 20.9879 22.5316 20.9879 17.0766Z" fill="#EB001B"/>
<path d="M54.9454 17.0766C54.9454 26.5161 47.3522 34.1532 37.9665 34.1532C34.0048 34.1532 30.3733 32.7777 27.4963 30.5006C31.4581 27.37 33.9578 22.5316 33.9578 17.0766C33.9578 11.6217 31.4108 6.7832 27.4963 3.65241C30.3731 1.37557 34.0048 0 37.9665 0C47.3522 0 54.9456 7.68447 54.9456 17.0766H54.9454Z" fill="#F79E1B"/>
</svg>
