<svg width="64" height="64" viewBox="0 0 64 64" fill="none" xmlns="http://www.w3.org/2000/svg">
<path d="M50.87 1.19011C50.5278 0.95976 50.1418 0.802443 49.7361 0.727988C49.3304 0.653534 48.9137 0.663543 48.5121 0.757389C48.1104 0.851235 47.7324 1.0269 47.4017 1.27342C47.071 1.51993 46.7947 1.83199 46.59 2.19011L44 6.69011C42.24 4.69011 29.49 -0.0898876 17 5.98011C16.6423 6.15755 16.3235 6.40462 16.0625 6.70684C15.8015 7.00906 15.6035 7.36035 15.48 7.74011C15.0876 7.65833 14.6828 7.65601 14.2895 7.7333C13.8961 7.81059 13.5223 7.96592 13.19 8.19011C9.4531 10.7267 6.34121 14.0791 4.08921 17.9941C1.83721 21.9091 0.503929 26.2845 0.190003 30.7901C0.14739 31.1831 0.182878 31.5807 0.294427 31.96C0.405977 32.3393 0.591389 32.6927 0.840003 33.0001C0.571906 33.2989 0.366501 33.6485 0.235955 34.0281C0.105409 34.4077 0.0523781 34.8096 0.0800035 35.2101C0.399646 39.72 1.7406 44.0982 4.00144 48.0135C6.26229 51.9288 9.38383 55.2788 13.13 57.8101C13.461 58.0368 13.8352 58.1929 14.2292 58.2686C14.6232 58.3443 15.0285 58.338 15.42 58.2501C15.5446 58.628 15.7432 58.9774 16.0042 59.2778C16.2651 59.5783 16.5832 59.8238 16.94 60.0001C21.0133 61.965 25.4775 62.9854 30 62.9854C34.5225 62.9854 38.9867 61.965 43.06 60.0001C43.4187 59.8216 43.7381 59.5729 43.9991 59.2689C44.2602 58.9649 44.4577 58.6117 44.58 58.2301C44.9715 58.318 45.3768 58.3243 45.7708 58.2486C46.1648 58.1729 46.539 58.0168 46.87 57.7901C50.6162 55.2588 53.7377 51.9088 55.9986 47.9935C58.2594 44.0782 59.6004 39.7 59.92 35.1901C59.9409 34.7909 59.8818 34.3914 59.7461 34.0154C59.6104 33.6393 59.401 33.2941 59.13 33.0001C57.92 31.7101 58.94 32.0001 31.73 32.0001L34.62 27.0001H60.92C61.3323 27.0011 61.7403 26.9171 62.1187 26.7534C62.4971 26.5897 62.8377 26.3497 63.1192 26.0485C63.4007 25.7473 63.6171 25.3913 63.7549 25.0028C63.8926 24.6142 63.9489 24.2014 63.92 23.7901C63.6004 19.2802 62.2594 14.9021 59.9986 10.9867C57.7377 7.07139 54.6162 3.72141 50.87 1.19011ZM40.62 53.4001C37.3419 55.1122 33.6983 56.0064 30 56.0064C26.3017 56.0064 22.6582 55.1122 19.38 53.4001L30 35.0001L40.62 53.4001ZM30 31.0001L19.38 12.6101C22.6523 10.9023 26.2888 10.0104 29.98 10.0104C33.6712 10.0104 37.3077 10.9023 40.58 12.6101C30 31.0001 33.69 24.6101 30 31.0001ZM28.27 32.0001H7C7.1653 28.3043 8.21969 24.7028 10.0737 21.5013C11.9277 18.2999 14.5267 15.5929 17.65 13.6101L28.27 32.0001ZM28.27 34.0001L17.65 52.3901C14.5267 50.4073 11.9277 47.7003 10.0737 44.4989C8.21969 41.2974 7.1653 37.696 7 34.0001H28.27ZM17.27 8.37011C17.31 8.2435 17.3748 8.12612 17.4607 8.02482C17.5465 7.92352 17.6517 7.84034 17.77 7.78011C21.5727 5.94844 25.7392 4.99727 29.96 4.99727C34.1808 4.99727 38.3474 5.94844 42.15 7.78011C42.2683 7.84034 42.3735 7.92352 42.4593 8.02482C42.5452 8.12612 42.61 8.2435 42.65 8.37011C42.8 8.88011 42.56 9.09011 41.54 10.8601C37.9628 8.97872 33.9818 7.99564 29.94 7.99564C25.8983 7.99564 21.9172 8.97872 18.34 10.8601C17.49 9.33011 17.13 9.00011 17.31 8.37011H17.27ZM14.27 9.84011C14.4863 9.70139 14.7477 9.65125 15 9.70011C15.57 9.83011 15.63 10.1501 16.63 11.8801C13.2074 14.0416 10.3608 17.002 8.33504 20.5066C6.30924 24.0113 5.16477 27.9554 5 32.0001H3.08C2.94348 32.0004 2.80835 31.9726 2.68294 31.9187C2.55753 31.8647 2.4445 31.7856 2.35081 31.6863C2.25712 31.587 2.18476 31.4696 2.13819 31.3412C2.09161 31.2129 2.07181 31.0764 2.08 30.9401C2.38084 26.7306 3.6334 22.6443 5.74326 18.9893C7.85312 15.3343 10.7652 12.2059 14.26 9.84011H14.27ZM14.27 56.1601C10.7705 53.7975 7.85373 50.6704 5.74021 47.015C3.62669 43.3597 2.37167 39.2717 2.07 35.0601C2.06256 34.9249 2.08266 34.7896 2.12907 34.6624C2.17548 34.5352 2.24724 34.4188 2.34 34.3201C2.73 33.9001 3 34.0001 5 34.0001C5.16694 38.0466 6.31446 41.992 8.34383 45.4968C10.3732 49.0016 13.2237 51.9609 16.65 54.1201C15.58 56.0001 15.56 56.1801 15 56.3001C14.7445 56.3517 14.479 56.3014 14.26 56.1601H14.27ZM42.7 57.6301C42.66 57.7567 42.5952 57.8741 42.5093 57.9754C42.4235 58.0767 42.3183 58.1599 42.2 58.2201C38.3974 60.0518 34.2308 61.003 30.01 61.003C25.7892 61.003 21.6227 60.0518 17.82 58.2201C17.7017 58.1599 17.5965 58.0767 17.5107 57.9754C17.4248 57.8741 17.36 57.7567 17.32 57.6301C17.15 57.0701 17.39 56.8601 18.39 55.1301C21.9743 57.0117 25.9619 57.9947 30.01 57.9947C34.0581 57.9947 38.0457 57.0117 41.63 55.1301C42.51 56.6701 42.87 57.0001 42.69 57.6301H42.7ZM57.7 34.3201C57.7928 34.4188 57.8645 34.5352 57.9109 34.6624C57.9574 34.7896 57.9774 34.9249 57.97 35.0601C57.6695 39.2709 56.416 43.3583 54.3042 47.0135C52.1925 50.6688 49.2777 53.7964 45.78 56.1601C45.6661 56.2339 45.5384 56.2837 45.4047 56.3065C45.2709 56.3293 45.1339 56.3247 45.002 56.2929C44.8701 56.2611 44.746 56.2028 44.6374 56.1215C44.5287 56.0402 44.4378 55.9377 44.37 55.8201L43.37 54.1201C46.7926 51.9586 49.6392 48.9983 51.665 45.4936C53.6908 41.989 54.8352 38.0448 55 34.0001C57 34.0001 57.27 33.9001 57.66 34.3201H57.7ZM42.35 52.3901L31.73 34.0001H53C52.8347 37.696 51.7803 41.2974 49.9263 44.4989C48.0723 47.7003 45.4733 50.4073 42.35 52.3901ZM35.77 25.0001C36.63 23.5201 45.5 8.08011 46.35 6.61011C49.4687 8.5979 52.0641 11.306 53.9175 14.5064C55.7709 17.7068 56.8281 21.3058 57 25.0001H35.77ZM61.66 24.6801C61.26 25.1001 60.97 25.0001 58.97 25.0001C58.801 20.9564 57.6548 17.0138 55.6294 13.5098C53.604 10.0059 50.7597 7.04481 47.34 4.88011L48.34 3.18011C48.4078 3.06255 48.4987 2.96001 48.6074 2.87873C48.716 2.79745 48.8401 2.73913 48.972 2.70732C49.1039 2.67551 49.2409 2.67088 49.3747 2.69371C49.5084 2.71654 49.6361 2.76635 49.75 2.84011C53.2477 5.20378 56.1625 8.33139 58.2742 11.9867C60.386 15.642 61.6395 19.7294 61.94 23.9401C61.9461 24.076 61.9244 24.2117 61.8763 24.339C61.8282 24.4662 61.7546 24.5823 61.66 24.6801Z" fill="#231F20"/>
<path d="M46.5 16C45.8078 16 45.1311 16.2053 44.5555 16.5899C43.9799 16.9744 43.5313 17.5211 43.2664 18.1606C43.0015 18.8001 42.9322 19.5039 43.0673 20.1828C43.2023 20.8617 43.5356 21.4854 44.0251 21.9749C44.5146 22.4644 45.1383 22.7977 45.8172 22.9327C46.4961 23.0678 47.1999 22.9985 47.8394 22.7336C48.4789 22.4687 49.0256 22.0201 49.4101 21.4445C49.7947 20.8689 50 20.1922 50 19.5C50 18.5717 49.6312 17.6815 48.9749 17.0251C48.3185 16.3687 47.4283 16 46.5 16ZM46.5 21C46.1022 21 45.7206 20.842 45.4393 20.5607C45.158 20.2794 45 19.8978 45 19.5C45 19.1022 45.158 18.7206 45.4393 18.4393C45.7206 18.158 46.1022 18 46.5 18C46.8978 18 47.2794 18.158 47.5607 18.4393C47.842 18.7206 48 19.1022 48 19.5C48 19.8978 47.842 20.2794 47.5607 20.5607C47.2794 20.842 46.8978 21 46.5 21Z" fill="#231F20"/>
<path d="M27 18.5C27 19.1922 27.2053 19.8689 27.5899 20.4445C27.9744 21.0201 28.5211 21.4687 29.1606 21.7336C29.8001 21.9985 30.5039 22.0678 31.1828 21.9327C31.8617 21.7977 32.4854 21.4644 32.9749 20.9749C33.4644 20.4854 33.7977 19.8617 33.9327 19.1828C34.0678 18.5039 33.9985 17.8001 33.7336 17.1606C33.4687 16.5211 33.0201 15.9744 32.4445 15.5899C31.8689 15.2053 31.1922 15 30.5 15C29.5717 15 28.6815 15.3687 28.0251 16.0251C27.3687 16.6815 27 17.5717 27 18.5ZM30.5 17C30.8978 17 31.2794 17.158 31.5607 17.4393C31.842 17.7206 32 18.1022 32 18.5C32 18.8978 31.842 19.2794 31.5607 19.5607C31.2794 19.842 30.8978 20 30.5 20C30.1022 20 29.7206 19.842 29.4393 19.5607C29.158 19.2794 29 18.8978 29 18.5C29 18.1022 29.158 17.7206 29.4393 17.4393C29.7206 17.158 30.1022 17 30.5 17Z" fill="#231F20"/>
<path d="M44.5 40C43.8078 40 43.1311 40.2053 42.5555 40.5899C41.9799 40.9744 41.5313 41.5211 41.2664 42.1606C41.0015 42.8001 40.9322 43.5039 41.0673 44.1828C41.2023 44.8617 41.5356 45.4854 42.0251 45.9749C42.5146 46.4644 43.1383 46.7977 43.8172 46.9327C44.4961 47.0678 45.1999 46.9985 45.8394 46.7336C46.4789 46.4687 47.0256 46.0201 47.4101 45.4445C47.7947 44.8689 48 44.1922 48 43.5C48 42.5717 47.6312 41.6815 46.9749 41.0251C46.3185 40.3688 45.4283 40 44.5 40ZM44.5 45C44.1022 45 43.7206 44.842 43.4393 44.5607C43.158 44.2794 43 43.8978 43 43.5C43 43.1022 43.158 42.7206 43.4393 42.4393C43.7206 42.158 44.1022 42 44.5 42C44.8978 42 45.2794 42.158 45.5607 42.4393C45.842 42.7206 46 43.1022 46 43.5C46 43.8978 45.842 44.2794 45.5607 44.5607C45.2794 44.842 44.8978 45 44.5 45Z" fill="#231F20"/>
<path d="M29.5 43C28.8078 43 28.1311 43.2053 27.5555 43.5899C26.9799 43.9744 26.5313 44.5211 26.2664 45.1606C26.0015 45.8001 25.9322 46.5039 26.0673 47.1828C26.2023 47.8617 26.5356 48.4854 27.0251 48.9749C27.5146 49.4644 28.1383 49.7977 28.8172 49.9327C29.4961 50.0678 30.1999 49.9985 30.8394 49.7336C31.4789 49.4687 32.0256 49.0201 32.4101 48.4445C32.7947 47.8689 33 47.1922 33 46.5C33 45.5717 32.6313 44.6815 31.9749 44.0251C31.3185 43.3688 30.4283 43 29.5 43ZM29.5 48C29.1022 48 28.7206 47.842 28.4393 47.5607C28.158 47.2794 28 46.8978 28 46.5C28 46.1022 28.158 45.7206 28.4393 45.4393C28.7206 45.158 29.1022 45 29.5 45C29.8978 45 30.2794 45.158 30.5607 45.4393C30.842 45.7206 31 46.1022 31 46.5C31 46.8978 30.842 47.2794 30.5607 47.5607C30.2794 47.842 29.8978 48 29.5 48Z" fill="#231F20"/>
<path d="M16.5 45C17.1922 45 17.8689 44.7947 18.4445 44.4101C19.0201 44.0256 19.4687 43.4789 19.7336 42.8394C19.9985 42.1999 20.0678 41.4961 19.9327 40.8172C19.7977 40.1383 19.4644 39.5146 18.9749 39.0251C18.4854 38.5356 17.8617 38.2023 17.1828 38.0673C16.5039 37.9322 15.8001 38.0015 15.1606 38.2664C14.5211 38.5313 13.9744 38.9799 13.5899 39.5555C13.2053 40.1311 13 40.8078 13 41.5C13 42.4283 13.3687 43.3185 14.0251 43.9749C14.6815 44.6312 15.5717 45 16.5 45ZM16.5 40C16.8978 40 17.2794 40.158 17.5607 40.4393C17.842 40.7206 18 41.1022 18 41.5C18 41.8978 17.842 42.2794 17.5607 42.5607C17.2794 42.842 16.8978 43 16.5 43C16.1022 43 15.7206 42.842 15.4393 42.5607C15.158 42.2794 15 41.8978 15 41.5C15 41.1022 15.158 40.7206 15.4393 40.4393C15.7206 40.158 16.1022 40 16.5 40Z" fill="#231F20"/>
<path d="M11 25.5C11 26.1922 11.2053 26.8689 11.5899 27.4445C11.9744 28.0201 12.5211 28.4687 13.1606 28.7336C13.8001 28.9985 14.5039 29.0678 15.1828 28.9327C15.8618 28.7977 16.4854 28.4644 16.9749 27.9749C17.4644 27.4854 17.7977 26.8617 17.9327 26.1828C18.0678 25.5039 17.9985 24.8001 17.7336 24.1606C17.4687 23.5211 17.0201 22.9744 16.4445 22.5899C15.8689 22.2053 15.1922 22 14.5 22C13.5717 22 12.6815 22.3687 12.0251 23.0251C11.3687 23.6815 11 24.5717 11 25.5ZM14.5 24C14.8978 24 15.2794 24.158 15.5607 24.4393C15.842 24.7206 16 25.1022 16 25.5C16 25.8978 15.842 26.2794 15.5607 26.5607C15.2794 26.842 14.8978 27 14.5 27C14.1022 27 13.7206 26.842 13.4393 26.5607C13.158 26.2794 13 25.8978 13 25.5C13 25.1022 13.158 24.7206 13.4393 24.4393C13.7206 24.158 14.1022 24 14.5 24Z" fill="#231F20"/>
<path d="M47.29 11.7102L49.79 14.2102C49.9783 14.3985 50.2337 14.5043 50.5 14.5043C50.7663 14.5043 51.0217 14.3985 51.21 14.2102C51.3983 14.0219 51.5041 13.7665 51.5041 13.5002C51.5041 13.2339 51.3983 12.9785 51.21 12.7902L48.71 10.2902C48.5217 10.1019 48.2663 9.99609 48 9.99609C47.7337 9.99609 47.4783 10.1019 47.29 10.2902C47.1017 10.4785 46.9959 10.7339 46.9959 11.0002C46.9959 11.2665 47.1017 11.5219 47.29 11.7102Z" fill="#231F20"/>
<path d="M42 38H46C46.2652 38 46.5196 37.8946 46.7071 37.7071C46.8946 37.5196 47 37.2652 47 37C47 36.7348 46.8946 36.4804 46.7071 36.2929C46.5196 36.1054 46.2652 36 46 36H42C41.7348 36 41.4804 36.1054 41.2929 36.2929C41.1054 36.4804 41 36.7348 41 37C41 37.2652 41.1054 37.5196 41.2929 37.7071C41.4804 37.8946 41.7348 38 42 38Z" fill="#231F20"/>
<path d="M32.24 54.0001L36.24 53.0001C36.5052 52.9364 36.7343 52.77 36.8768 52.5375C37.0193 52.3049 37.0637 52.0253 37 51.7601C36.9364 51.4949 36.7699 51.2658 36.5374 51.1233C36.3049 50.9807 36.0252 50.9364 35.76 51.0001L31.76 52.0001C31.4948 52.0637 31.2657 52.2301 31.1232 52.4627C30.9807 52.6952 30.9364 52.9749 31 53.2401C31.0637 53.5053 31.2301 53.7344 31.4626 53.8769C31.6951 54.0194 31.9748 54.0637 32.24 54.0001Z" fill="#231F20"/>
<path d="M21.45 38.83C21.6696 38.9478 21.9252 38.9794 22.1668 38.9186C22.4084 38.8577 22.6187 38.7089 22.7563 38.5012C22.8939 38.2935 22.9491 38.0419 22.9109 37.7957C22.8727 37.5495 22.744 37.3263 22.55 37.17L19.55 35.17C19.3304 35.0523 19.0748 35.0207 18.8332 35.0815C18.5916 35.1424 18.3813 35.2912 18.2437 35.4989C18.1061 35.7066 18.0509 35.9582 18.0891 36.2044C18.1273 36.4506 18.256 36.6737 18.45 36.83L21.45 38.83Z" fill="#231F20"/>
<path d="M19.55 27.89C23.87 30.05 23.67 30 24 30C24.2239 29.9987 24.4409 29.9223 24.6162 29.783C24.7915 29.6436 24.915 29.4495 24.9669 29.2317C25.0188 29.0138 24.996 28.7849 24.9023 28.5815C24.8086 28.3782 24.6493 28.2121 24.45 28.11L20.45 26.11C20.2169 26.013 19.9557 26.0077 19.7189 26.0952C19.4821 26.1828 19.2871 26.3567 19.1732 26.582C19.0592 26.8073 19.0348 27.0674 19.1047 27.31C19.1746 27.5527 19.3337 27.7599 19.55 27.89Z" fill="#231F20"/>
<path d="M27.55 12.11L23.55 14.11C23.3507 14.2121 23.1914 14.3782 23.0977 14.5815C23.004 14.7849 22.9812 15.0138 23.0331 15.2317C23.085 15.4495 23.2085 15.6436 23.3838 15.783C23.5591 15.9223 23.7761 15.9987 24 16C24.34 16 24.13 16.05 28.45 13.89C28.6663 13.7599 28.8254 13.5527 28.8953 13.31C28.9652 13.0674 28.9408 12.8073 28.8268 12.582C28.7129 12.3567 28.5179 12.1828 28.2811 12.0952C28.0443 12.0077 27.7831 12.013 27.55 12.11Z" fill="#231F20"/>
</svg>
