<svg width="360" height="248" viewBox="0 0 360 248" fill="none" xmlns="http://www.w3.org/2000/svg">
<path fill-rule="evenodd" clip-rule="evenodd" d="M155.162 95.345C164.294 93.66 191.928 98.204 193.334 114.364C195.335 137.32 124.113 151.802 130.098 113.022C131.216 105.772 139.346 98.264 155.162 95.345ZM140.96 124.671C147.91 137.49 186.512 132.286 186.503 116.38C187.958 116.172 187.439 114.498 184.987 115.113C180.904 129.793 153.36 130.272 140.96 124.671Z" fill="white"/>
<path fill-rule="evenodd" clip-rule="evenodd" d="M358.381 124.812C352.412 98.881 328.248 78.617 308.633 54.935C286.752 28.518 262.967 0.630999 230.788 0.200999C207.292 -0.114001 207.17 11.733 195.859 17.359C185.511 22.506 172.527 23.167 161.699 27.435C151.564 31.431 142.104 36.236 132.085 41.312C94.58 60.31 62.924 90.238 35.11 117.332C30.332 121.985 25.402 126.872 20.752 131.881C20.752 131.881 20.739 131.894 20.721 131.914C20.694 131.944 20.667 131.974 20.639 132.003C19.311 133.451 6.229 148.1 1.609 167.291L1.6 167.307L1.601 167.321C0.0179965 173.915 -0.572003 181.04 0.664997 188.356C0.781997 189.045 0.892997 189.764 0.995997 190.522C2.698 203.008 -1.538 223.116 2.33 236.688C7.135 253.547 22.928 248.506 24.843 237.475C27.597 221.598 6.883 200.153 18.461 181.942C23.422 174.141 29.098 173.407 37.524 171.159L41.608 170.53L46.911 169.712L48.223 169.511L54.723 168.507L60.21 167.661L78.014 164.917L82.215 164.269L91.249 162.876C92.297 162.647 93.577 162.446 95.134 162.278C95.136 162.278 95.138 162.278 95.14 162.276L95.696 162.192C96.001 162.167 96.319 162.145 96.634 162.122C97.376 162.048 98.138 161.976 98.911 161.907C99.455 162.63 99.951 163.807 100.469 165.05C101.974 168.665 104.495 174.714 112.18 176.113C113.591 176.369 115.081 176.498 116.608 176.498C125.332 176.498 136.444 172.152 142.01 160.06C166.829 159.691 189.376 160.134 189.376 160.134C201.847 160.099 210.269 160.128 210.269 160.128V160.126C213.297 160.173 216.443 160.077 219.844 159.677C223.048 169.888 224.319 178.833 232.847 179.55C244.037 180.491 244.038 169.372 250.954 162.499C265.201 164.313 258.725 176.374 269.147 177.698C277.619 178.774 280.943 168.452 290.662 167.354C304.813 165.754 316.289 178.186 325.305 178.272C347.391 178.484 365.643 156.369 358.381 124.812ZM265.163 23.768C257.644 25.64 252.31 29.336 249.339 35.005C278.981 20.627 285.489 44.323 302.05 59.733C310.363 67.467 320.481 69.791 322.011 78.982C317.563 82.561 308.852 82.578 307.453 88.703C309.607 90.834 321.016 89.81 322.76 87.33C335.592 96.109 348.71 104.544 352.69 123.92C338.148 123.878 323.087 128.542 311.572 134.619C310.662 132.626 309.199 131.297 308.29 129.303C309.081 120.952 319.482 120.634 328.412 119.084C322.638 111.472 308.694 115.545 301.85 120.063C298.301 101.201 279.632 100.434 275.968 81.708C272.401 71.086 256.654 75.04 255.884 61.067C260.513 55.923 271.412 56.017 272.974 48.314C264.542 46.444 252.257 52.44 247.161 57.642C239.394 53.585 236.365 43.859 231.25 36.627C232.596 29.168 239.806 26.611 242.401 20.198C233.922 16.157 227.671 25.024 222.029 27.636C213.386 28.222 209.692 22.887 205.725 17.877C217.859 -5.222 254.887 8.775 265.163 23.768ZM178.483 58.189C185.331 70.014 210.841 71.613 223.756 62.545C228.812 65.618 219.361 67.353 218.814 70.001C202.511 72.567 188.881 71.935 180.498 65.021C181.294 60.986 178.214 61.593 178.483 58.189ZM120.646 85.817C114.553 93.169 97.386 89.706 93.836 84.014C98.655 83.061 110.675 92.683 120.646 85.817ZM305.113 140.809C303.229 149.131 295.862 146.803 290.556 150.53C282.018 156.528 280.381 169.284 268.648 172.132C261.819 166.079 268.996 159.521 269.683 152.403C267.119 143.118 258.649 143.462 256.288 143.786C241.996 145.743 245.629 174.413 233.737 173.86C220.747 173.256 229.675 151.471 222.519 142.606C218.592 141.409 214.656 140.706 210.799 140.46V140.456C210.768 140.454 210.737 140.454 210.707 140.454C209.052 140.352 207.413 140.333 205.795 140.399C187.994 140.245 172.072 140.628 158.227 141.278C153.743 141.51 140.184 144.682 135.452 156.038C130.688 167.47 119.828 169.757 113.54 168.612C112.062 168.344 110.998 167.714 110.165 166.858C110.369 166.997 110.166 166.749 109.391 165.917C108.854 165.146 108.423 164.265 108.015 163.331C106.848 159.071 108.753 152.827 107.825 148.835C106.682 143.919 86.619 148.835 86.619 148.835L48.341 155.421C28.473 161.179 9.929 166.626 9.094 186.991C8.454 202.538 18.626 220.255 16.634 236.936C14.09 241.887 10.602 237.092 10.486 236.932C5.538 226.432 7.454 205.725 6.83 193.571C5.491 182.932 5.527 163.065 17.706 146.294C29.803 129.634 35.882 127.114 35.979 127.075C35.98 127.075 35.98 127.074 35.981 127.073C35.981 127.073 35.981 127.074 35.981 127.075C35.981 127.074 35.984 127.073 35.984 127.073L35.98 127.08C31.826 170.333 107.105 148.509 88.23 115.375C83.528 107.12 69.211 105.036 55.479 109.896C63.806 98.832 75.221 90.347 85.11 80.589C97.556 109.175 146.191 91.779 142.553 64.218C141.481 56.103 135.842 54.075 135.49 48.019C157.344 34.978 196.454 15.394 219.991 36.234C202.764 31.033 171.073 41.09 171.522 58.814C172.055 79.826 213.065 83.312 231.46 70.272C233.139 65.238 235.968 61.167 235.652 54.466C243.426 68.786 258.966 73.809 267.991 86.632C245.359 75.534 217.661 92.92 224.319 115.795C231.229 139.526 285.313 138.437 280.745 103.722C288.963 105.135 287.312 115.232 290.715 121.062C295.398 129.078 306.117 132.979 305.113 140.809ZM45.578 140.238C55.758 146.384 70.786 143.509 80.365 137.118C77.274 146.436 50.006 150.574 45.578 140.238ZM265.674 123.307C253.312 131.607 233.34 124.614 229.641 112.512C238.63 119.726 247.276 127.353 265.674 123.307ZM352.526 153.389C346.976 150.653 346.492 141.934 338.757 140.598C327.272 138.617 316.843 146.58 319.507 160.557C320.996 162.883 322.528 165.161 326.838 164.108C333.435 160.708 322.405 160.307 324.448 153.102C329.761 146.45 340.369 145.172 345.444 152.622C345.87 178.763 295.093 175.563 309.785 146.003C314.257 137.005 343.689 124.123 352.296 135.177C355.281 141.684 354.039 147.396 352.526 153.389Z" fill="white"/>
</svg>
