<svg width="39" height="39" viewBox="0 0 39 39" fill="none" xmlns="http://www.w3.org/2000/svg">
<path d="M0 4.65543V12.7756C0 15.8354 2.16287 17.8618 5.00987 17.8618C5.65815 17.8716 6.30173 17.7504 6.90206 17.5055C7.50239 17.2606 8.04712 16.8971 8.50362 16.4367V17.6441H10.4731V4.65381H8.48738V12.6716C8.48738 14.7272 7.07363 16.1166 5.2455 16.1198C3.39462 16.1166 2.00037 14.7646 2.00037 12.6716V4.65381L0 4.65543ZM11.9633 4.65543V17.6441H13.8531V16.4546C14.305 16.9065 14.8417 17.2648 15.4322 17.5091C16.0228 17.7533 16.6558 17.8787 17.2949 17.8781C17.9549 17.895 18.6117 17.7796 19.2264 17.5387C19.8411 17.2978 20.4014 16.9363 20.8742 16.4754C21.3471 16.0146 21.7228 15.4637 21.9794 14.8554C22.236 14.247 22.3682 13.5934 22.3682 12.9332C22.3682 12.2729 22.236 11.6194 21.9794 11.011C21.7228 10.4026 21.3471 9.85179 20.8742 9.39094C20.4014 8.93009 19.8411 8.56856 19.2264 8.32767C18.6117 8.08677 17.9549 7.97139 17.2949 7.98831C16.6585 7.98787 16.0283 8.11343 15.4406 8.35775C14.853 8.60206 14.3195 8.9603 13.871 9.41181V4.65543H11.9633ZM28.028 7.99643C27.3811 7.99365 26.74 8.11872 26.1415 8.36447C25.543 8.61021 24.999 8.97179 24.5408 9.42841C24.0825 9.88504 23.7189 10.4277 23.471 11.0253C23.2231 11.6228 23.0957 12.2635 23.0961 12.9104C23.0961 15.7331 25.3272 17.8456 28.2197 17.8456C29.023 17.862 29.8187 17.6874 30.5414 17.3363C31.264 16.9851 31.893 16.4674 32.3765 15.8257L30.9952 14.8214C30.6807 15.2618 30.2635 15.6189 29.7799 15.8618C29.2963 16.1048 28.7608 16.2262 28.2197 16.2157C27.4525 16.2252 26.7073 15.959 26.1198 15.4654C25.5323 14.9718 25.1415 14.2837 25.0185 13.5263H32.8461V12.9104C32.8461 10.0927 30.8084 7.99643 28.0296 7.99643H28.028ZM38.0429 8.10368C37.5943 8.09978 37.1524 8.21244 36.7604 8.43064C36.3685 8.64884 36.0399 8.96509 35.8069 9.34843V8.18006H33.917V17.6441H35.8247V12.2621C35.8247 10.7963 36.7331 9.85056 37.9811 9.85056H38.7855V8.10693L38.0429 8.10368ZM27.963 9.63768C28.6637 9.62816 29.3456 9.86454 29.8901 10.3057C30.4346 10.7469 30.8073 11.365 30.9432 12.0524H25.064C25.1973 11.3786 25.558 10.7711 26.0857 10.3315C26.6135 9.89192 27.2762 9.64698 27.963 9.63768ZM17.1421 9.64743C17.5734 9.64722 18.0005 9.73196 18.399 9.8968C18.7976 10.0616 19.1597 10.3034 19.4648 10.6082C19.7699 10.913 20.012 11.2749 20.1773 11.6733C20.3425 12.0716 20.4277 12.4987 20.4279 12.9299C20.4281 13.3612 20.3434 13.7883 20.1785 14.1868C20.0137 14.5854 19.7719 14.9475 19.4671 15.2526C19.1623 15.5577 18.8004 15.7998 18.402 15.9651C18.0037 16.1303 17.5767 16.2155 17.1454 16.2157C16.2801 16.2085 15.4528 15.8592 14.8444 15.2439C14.2345 14.6296 13.8927 13.7988 13.8938 12.9332C13.8923 12.0678 14.2335 11.237 14.8427 10.6224C15.4503 10.0064 16.277 9.65588 17.1421 9.64743ZM0 21.1037V34.0566H9.29825V31.8352H2.51225V28.6339H9.11625V26.4971H2.51225V23.3202H9.29825V21.1021L0 21.1037ZM23.66 21.7699V24.5081H21.7913V26.6823H23.6665V31.7897C23.6665 33.0783 24.596 34.0988 26.2665 34.0988H28.9364L28.9266 31.9246H27.0725C26.507 31.9246 26.143 31.6808 26.143 31.1706V26.6726H28.925V24.5081H26.1528V21.7683L23.66 21.7699ZM15.0524 24.2513C14.3843 24.2495 13.7225 24.3805 13.1054 24.6367C12.4884 24.8928 11.9284 25.2691 11.458 25.7435C10.9877 26.218 10.6163 26.7812 10.3654 27.4004C10.1145 28.0196 9.98925 28.6825 9.99678 29.3505C10.0043 30.0186 10.1445 30.6785 10.4093 31.2919C10.6741 31.9053 11.0581 32.46 11.539 32.9237C12.02 33.3874 12.5883 33.7509 13.211 33.9931C13.8337 34.2353 14.4982 34.3513 15.1661 34.3344C16.2967 34.3462 17.396 33.9635 18.2747 33.2522V34.1167H20.7399V24.5081H18.2878V25.3628C17.409 24.6402 16.3055 24.247 15.1677 24.2513H15.054H15.0524ZM34.1803 24.2627C31.6046 24.2627 29.7927 25.3092 29.7927 27.3274C29.7927 28.7249 30.7889 29.6366 32.9388 30.0818L35.2918 30.6148C36.218 30.7936 36.465 31.0357 36.465 31.4111C36.465 32.0139 35.7533 32.3909 34.6336 32.3909C33.2101 32.3909 32.3944 32.0822 32.0775 31.0129H29.5864C29.9439 33.0133 31.4665 34.3442 34.541 34.3442H34.5443C37.3913 34.3442 39 33.0133 39 31.1706C39 29.8608 38.0494 28.8826 36.0604 28.4617L33.9576 28.0392C32.7372 27.8182 32.3521 27.5939 32.3521 27.1519C32.3521 26.5718 32.9387 26.2176 34.0259 26.2176C35.1991 26.2176 36.0604 26.5296 36.309 27.5939H38.7757C38.636 25.5968 37.167 24.2627 34.1819 24.2627H34.1803ZM15.3839 26.2939C17.0251 26.3102 18.3398 27.6541 18.3202 29.2953C18.3207 29.6831 18.2441 30.0672 18.0947 30.4251C17.9454 30.7831 17.7264 31.1077 17.4504 31.3802C17.1744 31.6527 16.847 31.8676 16.4872 32.0124C16.1274 32.1572 15.7424 32.2289 15.3546 32.2236C14.5685 32.2197 13.8162 31.9037 13.263 31.3451C12.7099 30.7865 12.4014 30.031 12.4052 29.2449C12.4091 28.4588 12.7251 27.7065 13.2837 27.1534C13.8423 26.6002 14.5978 26.2917 15.3839 26.2956V26.2939Z" fill="white"/>
</svg>
