<svg width="40" height="39" viewBox="0 0 40 39" fill="none" xmlns="http://www.w3.org/2000/svg">
<path d="M28.1017 0L26.2233 17.199L23.0167 2.6975L12.9617 4.75475L16.1683 19.253L1.67667 22.2138L4.235 33.7951L29.72 39L35.55 26.416L38.3233 1.0335L28.1017 0ZM18.9833 22.1162C19.1681 22.1131 19.3514 22.1498 19.52 22.2235C19.8667 22.3746 20.4533 22.6947 20.57 23.1855C20.7417 23.8907 20.5767 24.4839 20.05 24.947V24.9503C19.525 25.4118 18.83 25.3695 18.0933 25.1339C17.3583 24.8983 17.0317 24.0419 17.31 23.0068C17.5167 22.2381 18.4933 22.1228 18.9833 22.1146V22.1162ZM25.8867 23.0068C26.6317 22.9872 27.2733 23.309 27.6367 23.8891C27.9983 24.4692 27.815 25.1079 27.4333 25.7465H27.43C27.0483 26.3835 26.0467 26.4696 25.06 26.0065C24.395 25.6929 24.3983 24.895 24.4717 24.4091C24.5102 24.1433 24.6213 23.8924 24.7933 23.6828C25.03 23.3951 25.4283 23.0198 25.8867 23.0068Z" fill="white"/>
</svg>
