<svg width="58" height="26" viewBox="0 0 58 26" fill="none" xmlns="http://www.w3.org/2000/svg">
<path d="M22.0212 0.332982L14.4275 18.569H9.47348L5.73656 4.01495C5.51 3.12068 5.31312 2.79158 4.62369 2.41344C3.49677 1.79719 1.63578 1.22086 0 0.862333L0.110336 0.332982H8.08624C9.10124 0.332982 10.0152 1.01332 10.2476 2.1913L12.2221 12.7448L17.0969 0.332982H22.0212ZM28.7184 0.332982L24.8435 18.569H20.1564L24.0317 0.332982H28.7186H28.7184ZM41.4322 12.615C41.4516 7.80296 34.8224 7.53589 34.8657 5.38588C34.8816 4.73223 35.5001 4.03639 36.854 3.85849C37.5246 3.77114 39.3775 3.70158 41.4761 4.67498L42.2972 0.805544C41.1696 0.395018 39.7184 0 37.9134 0C33.2802 0 30.0211 2.4773 29.9951 6.02744C29.9647 8.65344 32.323 10.117 34.0965 10.9916C35.9233 11.8847 36.5359 12.4588 36.5275 13.257C36.5144 14.4806 35.0685 15.0223 33.7243 15.0424C31.3671 15.08 30.0007 14.401 28.9107 13.8899L28.06 17.8875C29.1566 18.3934 31.1775 18.8329 33.2707 18.8552C38.1962 18.8552 41.4177 16.4065 41.4322 12.6152V12.615ZM53.6665 18.569H58L54.2141 0.332982H50.216C49.3143 0.332982 48.5564 0.859825 48.2202 1.6697L41.1877 18.569H46.1093L47.0856 15.8449H53.0985L53.6668 18.569H53.6665ZM48.4352 12.108L50.9029 5.25975L52.3205 12.108H48.435H48.4352ZM34.7169 23.5886H32.8124V25.3728H34.9425V25.9092H32.1707V20.9596H34.8333V21.4961H32.8124V23.0599H34.7166V23.5891L34.7169 23.5886ZM35.9265 20.6953H36.5681V25.909H35.9265V20.6953ZM38.1871 24.2493C38.2016 25.1235 38.749 25.4832 39.3979 25.4832C39.8578 25.4832 40.1421 25.4025 40.3759 25.2998L40.4924 25.7626C40.2663 25.8652 39.8725 25.99 39.3104 25.99C38.2238 25.99 37.5747 25.2631 37.5747 24.1907C37.5747 23.1188 38.2016 22.2813 39.2304 22.2813C40.3904 22.2813 40.6895 23.2951 40.6895 23.9485C40.6895 24.0806 40.682 24.1759 40.6673 24.2496H38.1871V24.2493ZM40.0692 23.7868C40.0766 23.3831 39.9015 22.7441 39.1792 22.7441C38.5226 22.7441 38.2453 23.3389 38.1941 23.7868H40.0692ZM44.1822 25.7842C44.0145 25.8652 43.6423 25.9902 43.1683 25.9902C42.1032 25.9902 41.4102 25.2631 41.4102 24.1761C41.4102 23.0818 42.154 22.2815 43.3067 22.2815C43.686 22.2815 44.0215 22.3766 44.1967 22.4724L44.0512 22.9644C43.8974 22.8836 43.6568 22.7952 43.3067 22.7952C42.4968 22.7952 42.0595 23.4048 42.0595 24.1396C42.0595 24.9618 42.5847 25.4686 43.285 25.4686C43.6498 25.4686 43.8904 25.3806 44.0728 25.2998L44.1822 25.7842ZM45.9829 21.5029V22.3548H46.9018V22.8465H45.9829V24.7634C45.9829 25.2045 46.1071 25.4538 46.4643 25.4538C46.6393 25.4538 46.7417 25.4394 46.8366 25.4095L46.8658 25.9022C46.7417 25.9459 46.5448 25.99 46.2967 25.99C45.9974 25.99 45.7566 25.8871 45.6036 25.7186C45.4285 25.5199 45.3555 25.2045 45.3555 24.7858V22.8465H44.8082V22.3548H45.3555V21.694L45.9831 21.5031L45.9829 21.5029ZM47.7983 23.4639C47.7983 23.0451 47.7906 22.6855 47.7691 22.3548H48.331L48.3604 23.0595H48.3817C48.5426 22.5826 48.9361 22.2813 49.3664 22.2813C49.4323 22.2813 49.4835 22.2888 49.542 22.2959V22.9058C49.4763 22.8907 49.4108 22.8907 49.3227 22.8907C48.8709 22.8907 48.5494 23.2285 48.4622 23.7136C48.4471 23.8132 48.4398 23.9139 48.4402 24.0146V25.9095H47.7983V23.4639ZM53.4876 24.1025C53.4876 25.4171 52.5754 25.99 51.7294 25.99C50.7808 25.99 50.037 25.2848 50.037 24.1615C50.037 22.979 50.8175 22.2815 51.7879 22.2815C52.8018 22.2815 53.4876 23.0228 53.4876 24.1027V24.1025ZM50.6934 24.1394C50.6934 24.9178 51.1311 25.5055 51.7584 25.5055C52.3715 25.5055 52.8307 24.9249 52.8307 24.1246C52.8307 23.5225 52.5317 22.7657 51.7729 22.7657C51.0219 22.7657 50.6934 23.4712 50.6934 24.1394ZM54.4713 23.3168C54.4713 22.9425 54.4636 22.6485 54.4418 22.355H55.011L55.0474 22.9425H55.0619C55.2371 22.6118 55.6456 22.2815 56.2292 22.2815C56.7177 22.2815 57.4766 22.5753 57.4766 23.7939V25.9092H56.8348V23.8602C56.8348 23.2878 56.6232 22.81 56.0178 22.81C55.6018 22.81 55.2733 23.1113 55.1571 23.4709C55.1276 23.5519 55.1131 23.6618 55.1131 23.7722V25.9092H54.4713V23.3168Z" fill="#1A1F71"/>
</svg>
